solid OpenSCAD_Model
  facet normal 1 -0 0
    outer loop
      vertex 86 0 15
      vertex 86 20 0
      vertex 86 20 15
    endloop
  endfacet
  facet normal 1 0 0
    outer loop
      vertex 86 20 0
      vertex 86 0 15
      vertex 86 0 0
    endloop
  endfacet
  facet normal 0 0 1
    outer loop
      vertex 86 20 15
      vertex 78.5 10 15
      vertex 86 0 15
    endloop
  endfacet
  facet normal 0 0 1
    outer loop
      vertex 86 20 15
      vertex 78.1651 11.25 15
      vertex 78.5 10 15
    endloop
  endfacet
  facet normal 0 0 1
    outer loop
      vertex 86 20 15
      vertex 77.25 12.1651 15
      vertex 78.1651 11.25 15
    endloop
  endfacet
  facet normal 0 0 1
    outer loop
      vertex 86 20 15
      vertex 76 12.5 15
      vertex 77.25 12.1651 15
    endloop
  endfacet
  facet normal 0 0 1
    outer loop
      vertex 86 20 15
      vertex 74.75 12.1651 15
      vertex 76 12.5 15
    endloop
  endfacet
  facet normal 0 0 1
    outer loop
      vertex 73.8349 11.25 15
      vertex 12.5 10 15
      vertex 73.5 10 15
    endloop
  endfacet
  facet normal 0 0 1
    outer loop
      vertex 12.1651 11.25 15
      vertex 73.8349 11.25 15
      vertex 74.75 12.1651 15
    endloop
  endfacet
  facet normal 0 0 1
    outer loop
      vertex 11.25 12.1651 15
      vertex 74.75 12.1651 15
      vertex 86 20 15
    endloop
  endfacet
  facet normal 0 0 1
    outer loop
      vertex 73.8349 11.25 15
      vertex 12.1651 11.25 15
      vertex 12.5 10 15
    endloop
  endfacet
  facet normal 0 0 1
    outer loop
      vertex 74.75 12.1651 15
      vertex 11.25 12.1651 15
      vertex 12.1651 11.25 15
    endloop
  endfacet
  facet normal -0 0 1
    outer loop
      vertex 0 20 15
      vertex 11.25 12.1651 15
      vertex 86 20 15
    endloop
  endfacet
  facet normal 0 0 1
    outer loop
      vertex 7.83494 11.25 15
      vertex 0 20 15
      vertex 7.5 10 15
    endloop
  endfacet
  facet normal 0 0 1
    outer loop
      vertex 8.75 12.1651 15
      vertex 0 20 15
      vertex 7.83494 11.25 15
    endloop
  endfacet
  facet normal 0 0 1
    outer loop
      vertex 10 12.5 15
      vertex 0 20 15
      vertex 8.75 12.1651 15
    endloop
  endfacet
  facet normal 0 0 1
    outer loop
      vertex 11.25 12.1651 15
      vertex 0 20 15
      vertex 10 12.5 15
    endloop
  endfacet
  facet normal -0 0 1
    outer loop
      vertex 78.1651 8.75 15
      vertex 86 0 15
      vertex 78.5 10 15
    endloop
  endfacet
  facet normal -0 0 1
    outer loop
      vertex 77.25 7.83494 15
      vertex 86 0 15
      vertex 78.1651 8.75 15
    endloop
  endfacet
  facet normal -0 0 1
    outer loop
      vertex 76 7.5 15
      vertex 86 0 15
      vertex 77.25 7.83494 15
    endloop
  endfacet
  facet normal 0 0 1
    outer loop
      vertex 74.75 7.83494 15
      vertex 86 0 15
      vertex 76 7.5 15
    endloop
  endfacet
  facet normal -0 0 1
    outer loop
      vertex 12.5 10 15
      vertex 73.8349 8.75 15
      vertex 73.5 10 15
    endloop
  endfacet
  facet normal 0 0 1
    outer loop
      vertex 12.1651 8.75 15
      vertex 73.8349 8.75 15
      vertex 12.5 10 15
    endloop
  endfacet
  facet normal 0 0 1
    outer loop
      vertex 73.8349 8.75 15
      vertex 12.1651 8.75 15
      vertex 74.75 7.83494 15
    endloop
  endfacet
  facet normal 0 0 1
    outer loop
      vertex 11.25 7.83494 15
      vertex 74.75 7.83494 15
      vertex 12.1651 8.75 15
    endloop
  endfacet
  facet normal 0 0 1
    outer loop
      vertex 74.75 7.83494 15
      vertex 11.25 7.83494 15
      vertex 86 0 15
    endloop
  endfacet
  facet normal 0 0 1
    outer loop
      vertex 0 0 15
      vertex 11.25 7.83494 15
      vertex 10 7.5 15
    endloop
  endfacet
  facet normal 0 0 1
    outer loop
      vertex 0 0 15
      vertex 7.5 10 15
      vertex 0 20 15
    endloop
  endfacet
  facet normal 0 0 1
    outer loop
      vertex 11.25 7.83494 15
      vertex 0 0 15
      vertex 86 0 15
    endloop
  endfacet
  facet normal 0 0 1
    outer loop
      vertex 8.75 7.83494 15
      vertex 0 0 15
      vertex 10 7.5 15
    endloop
  endfacet
  facet normal 0 0 1
    outer loop
      vertex 7.83494 8.75 15
      vertex 0 0 15
      vertex 8.75 7.83494 15
    endloop
  endfacet
  facet normal 0 0 1
    outer loop
      vertex 7.5 10 15
      vertex 0 0 15
      vertex 7.83494 8.75 15
    endloop
  endfacet
  facet normal 0 0 -1
    outer loop
      vertex 0 0 0
      vertex 86 20 0
      vertex 86 0 0
    endloop
  endfacet
  facet normal -0 0 -1
    outer loop
      vertex 86 20 0
      vertex 0 0 0
      vertex 0 20 0
    endloop
  endfacet
  facet normal -1 0 0
    outer loop
      vertex 0 0 0
      vertex 0 20 15
      vertex 0 20 0
    endloop
  endfacet
  facet normal -1 -0 0
    outer loop
      vertex 0 20 15
      vertex 0 0 0
      vertex 0 0 15
    endloop
  endfacet
  facet normal 0 1 -0
    outer loop
      vertex 86 20 0
      vertex 0 20 15
      vertex 86 20 15
    endloop
  endfacet
  facet normal 0 1 0
    outer loop
      vertex 0 20 15
      vertex 86 20 0
      vertex 0 20 0
    endloop
  endfacet
  facet normal 0 -1 0
    outer loop
      vertex 19.7678 0 9.26777
      vertex 68 0 10
      vertex 18 0 10
    endloop
  endfacet
  facet normal 0 -1 0
    outer loop
      vertex 19.7678 0 9.26777
      vertex 66.2322 0 9.26777
      vertex 68 0 10
    endloop
  endfacet
  facet normal 0 -1 0
    outer loop
      vertex 20.5 0 7.5
      vertex 66.2322 0 9.26777
      vertex 19.7678 0 9.26777
    endloop
  endfacet
  facet normal 0 -1 0
    outer loop
      vertex 20.5 0 7.5
      vertex 65.5 0 7.5
      vertex 66.2322 0 9.26777
    endloop
  endfacet
  facet normal 0 -1 0
    outer loop
      vertex 19.7678 0 5.73223
      vertex 65.5 0 7.5
      vertex 20.5 0 7.5
    endloop
  endfacet
  facet normal 0 -1 0
    outer loop
      vertex 19.7678 0 5.73223
      vertex 66.2322 0 5.73223
      vertex 65.5 0 7.5
    endloop
  endfacet
  facet normal 0 -1 0
    outer loop
      vertex 18 0 5
      vertex 66.2322 0 5.73223
      vertex 19.7678 0 5.73223
    endloop
  endfacet
  facet normal 0 -1 -0
    outer loop
      vertex 66.2322 0 5.73223
      vertex 18 0 5
      vertex 68 0 5
    endloop
  endfacet
  facet normal 0 -1 0
    outer loop
      vertex 0 0 15
      vertex 18 0 10
      vertex 86 0 15
    endloop
  endfacet
  facet normal 0 -1 0
    outer loop
      vertex 0 0 15
      vertex 16.2322 0 9.26777
      vertex 18 0 10
    endloop
  endfacet
  facet normal 0 -1 0
    outer loop
      vertex 0 0 15
      vertex 15.5 0 7.5
      vertex 16.2322 0 9.26777
    endloop
  endfacet
  facet normal 0 -1 0
    outer loop
      vertex 0 0 0
      vertex 15.5 0 7.5
      vertex 0 0 15
    endloop
  endfacet
  facet normal 0 -1 -0
    outer loop
      vertex 18 0 5
      vertex 0 0 0
      vertex 68 0 5
    endloop
  endfacet
  facet normal 0 -1 -0
    outer loop
      vertex 16.2322 0 5.73223
      vertex 0 0 0
      vertex 18 0 5
    endloop
  endfacet
  facet normal 0 -1 -0
    outer loop
      vertex 15.5 0 7.5
      vertex 0 0 0
      vertex 16.2322 0 5.73223
    endloop
  endfacet
  facet normal 0 -1 0
    outer loop
      vertex 68 0 10
      vertex 86 0 15
      vertex 18 0 10
    endloop
  endfacet
  facet normal 0 -1 0
    outer loop
      vertex 69.7678 0 9.26777
      vertex 86 0 15
      vertex 68 0 10
    endloop
  endfacet
  facet normal 0 -1 0
    outer loop
      vertex 70.5 0 7.5
      vertex 86 0 15
      vertex 69.7678 0 9.26777
    endloop
  endfacet
  facet normal 0 -1 0
    outer loop
      vertex 86 0 0
      vertex 70.5 0 7.5
      vertex 69.7678 0 5.73223
    endloop
  endfacet
  facet normal 0 -1 0
    outer loop
      vertex 70.5 0 7.5
      vertex 86 0 0
      vertex 86 0 15
    endloop
  endfacet
  facet normal 0 -1 0
    outer loop
      vertex 68 0 5
      vertex 86 0 0
      vertex 69.7678 0 5.73223
    endloop
  endfacet
  facet normal 0 -1 0
    outer loop
      vertex 86 0 0
      vertex 68 0 5
      vertex 0 0 0
    endloop
  endfacet
  facet normal -0.707107 -0.707107 0
    outer loop
      vertex 12.1651 11.25 7
      vertex 11.25 12.1651 15
      vertex 11.25 12.1651 7
    endloop
  endfacet
  facet normal -0.707107 -0.707107 0
    outer loop
      vertex 11.25 12.1651 15
      vertex 12.1651 11.25 7
      vertex 12.1651 11.25 15
    endloop
  endfacet
  facet normal -0.965933 -0.258793 0
    outer loop
      vertex 12.5 10 7
      vertex 12.1651 11.25 15
      vertex 12.1651 11.25 7
    endloop
  endfacet
  facet normal -0.965933 -0.258793 0
    outer loop
      vertex 12.1651 11.25 15
      vertex 12.5 10 7
      vertex 12.5 10 15
    endloop
  endfacet
  facet normal 0.258793 -0.965933 0
    outer loop
      vertex 8.75 12.1651 7
      vertex 10 12.5 15
      vertex 8.75 12.1651 15
    endloop
  endfacet
  facet normal 0.258793 -0.965933 0
    outer loop
      vertex 10 12.5 15
      vertex 8.75 12.1651 7
      vertex 10 12.5 7
    endloop
  endfacet
  facet normal 0.707107 0.707107 0
    outer loop
      vertex 8.75 7.83494 15
      vertex 7.83494 8.75 7
      vertex 7.83494 8.75 15
    endloop
  endfacet
  facet normal 0.707107 0.707107 0
    outer loop
      vertex 7.83494 8.75 7
      vertex 8.75 7.83494 15
      vertex 8.75 7.83494 7
    endloop
  endfacet
  facet normal 0.965925 -0.258822 0
    outer loop
      vertex 7.5 10 15
      vertex 7.83494 11.25 7
      vertex 7.83494 11.25 15
    endloop
  endfacet
  facet normal 0.965925 -0.258822 0
    outer loop
      vertex 7.83494 11.25 7
      vertex 7.5 10 15
      vertex 7.5 10 7
    endloop
  endfacet
  facet normal 0.707122 -0.707091 0
    outer loop
      vertex 7.83494 11.25 7
      vertex 8.75 12.1651 15
      vertex 7.83494 11.25 15
    endloop
  endfacet
  facet normal 0.707122 -0.707091 0
    outer loop
      vertex 8.75 12.1651 15
      vertex 7.83494 11.25 7
      vertex 8.75 12.1651 7
    endloop
  endfacet
  facet normal 0.965925 0.258822 0
    outer loop
      vertex 7.83494 8.75 15
      vertex 7.5 10 7
      vertex 7.5 10 15
    endloop
  endfacet
  facet normal 0.965925 0.258822 0
    outer loop
      vertex 7.5 10 7
      vertex 7.83494 8.75 15
      vertex 7.83494 8.75 7
    endloop
  endfacet
  facet normal 0 0 1
    outer loop
      vertex 12.1651 11.25 7
      vertex 12.1651 8.75 7
      vertex 12.5 10 7
    endloop
  endfacet
  facet normal 0 0 1
    outer loop
      vertex 11.25 12.1651 7
      vertex 12.1651 8.75 7
      vertex 12.1651 11.25 7
    endloop
  endfacet
  facet normal 0 0 1
    outer loop
      vertex 11.25 12.1651 7
      vertex 11.25 7.83494 7
      vertex 12.1651 8.75 7
    endloop
  endfacet
  facet normal 0 0 1
    outer loop
      vertex 10 12.5 7
      vertex 11.25 7.83494 7
      vertex 11.25 12.1651 7
    endloop
  endfacet
  facet normal 0 0 1
    outer loop
      vertex 10 12.5 7
      vertex 10 7.5 7
      vertex 11.25 7.83494 7
    endloop
  endfacet
  facet normal -0 0 1
    outer loop
      vertex 8.75 12.1651 7
      vertex 10 7.5 7
      vertex 10 12.5 7
    endloop
  endfacet
  facet normal 0 0 1
    outer loop
      vertex 8.75 12.1651 7
      vertex 8.75 7.83494 7
      vertex 10 7.5 7
    endloop
  endfacet
  facet normal -0 0 1
    outer loop
      vertex 7.83494 11.25 7
      vertex 8.75 7.83494 7
      vertex 8.75 12.1651 7
    endloop
  endfacet
  facet normal 0 0 1
    outer loop
      vertex 7.83494 11.25 7
      vertex 7.83494 8.75 7
      vertex 8.75 7.83494 7
    endloop
  endfacet
  facet normal 0 -0 1
    outer loop
      vertex 7.83494 8.75 7
      vertex 7.83494 11.25 7
      vertex 7.5 10 7
    endloop
  endfacet
  facet normal -0.707091 0.707122 0
    outer loop
      vertex 11.25 7.83494 7
      vertex 12.1651 8.75 15
      vertex 12.1651 8.75 7
    endloop
  endfacet
  facet normal -0.707091 0.707122 0
    outer loop
      vertex 12.1651 8.75 15
      vertex 11.25 7.83494 7
      vertex 11.25 7.83494 15
    endloop
  endfacet
  facet normal -0.258793 -0.965933 0
    outer loop
      vertex 10 12.5 7
      vertex 11.25 12.1651 15
      vertex 10 12.5 15
    endloop
  endfacet
  facet normal -0.258793 -0.965933 -0
    outer loop
      vertex 11.25 12.1651 15
      vertex 10 12.5 7
      vertex 11.25 12.1651 7
    endloop
  endfacet
  facet normal -0.965933 0.258793 0
    outer loop
      vertex 12.1651 8.75 7
      vertex 12.5 10 15
      vertex 12.5 10 7
    endloop
  endfacet
  facet normal -0.965933 0.258793 0
    outer loop
      vertex 12.5 10 15
      vertex 12.1651 8.75 7
      vertex 12.1651 8.75 15
    endloop
  endfacet
  facet normal -0.258822 0.965925 0
    outer loop
      vertex 11.25 7.83494 7
      vertex 10 7.5 15
      vertex 11.25 7.83494 15
    endloop
  endfacet
  facet normal -0.258822 0.965925 0
    outer loop
      vertex 10 7.5 15
      vertex 11.25 7.83494 7
      vertex 10 7.5 7
    endloop
  endfacet
  facet normal 0.258822 0.965925 -0
    outer loop
      vertex 10 7.5 7
      vertex 8.75 7.83494 15
      vertex 10 7.5 15
    endloop
  endfacet
  facet normal 0.258822 0.965925 0
    outer loop
      vertex 8.75 7.83494 15
      vertex 10 7.5 7
      vertex 8.75 7.83494 7
    endloop
  endfacet
  facet normal -0.707107 -0.707107 0
    outer loop
      vertex 78.1651 11.25 7
      vertex 77.25 12.1651 15
      vertex 77.25 12.1651 7
    endloop
  endfacet
  facet normal -0.707107 -0.707107 0
    outer loop
      vertex 77.25 12.1651 15
      vertex 78.1651 11.25 7
      vertex 78.1651 11.25 15
    endloop
  endfacet
  facet normal -0.965933 -0.258793 0
    outer loop
      vertex 78.5 10 7
      vertex 78.1651 11.25 15
      vertex 78.1651 11.25 7
    endloop
  endfacet
  facet normal -0.965933 -0.258793 0
    outer loop
      vertex 78.1651 11.25 15
      vertex 78.5 10 7
      vertex 78.5 10 15
    endloop
  endfacet
  facet normal 0.707091 0.707122 0
    outer loop
      vertex 74.75 7.83494 15
      vertex 73.8349 8.75 7
      vertex 73.8349 8.75 15
    endloop
  endfacet
  facet normal 0.707091 0.707122 0
    outer loop
      vertex 73.8349 8.75 7
      vertex 74.75 7.83494 15
      vertex 74.75 7.83494 7
    endloop
  endfacet
  facet normal 0.965933 -0.258793 0
    outer loop
      vertex 73.5 10 15
      vertex 73.8349 11.25 7
      vertex 73.8349 11.25 15
    endloop
  endfacet
  facet normal 0.965933 -0.258793 0
    outer loop
      vertex 73.8349 11.25 7
      vertex 73.5 10 15
      vertex 73.5 10 7
    endloop
  endfacet
  facet normal 0.707107 -0.707107 0
    outer loop
      vertex 73.8349 11.25 15
      vertex 74.75 12.1651 7
      vertex 74.75 12.1651 15
    endloop
  endfacet
  facet normal 0.707107 -0.707107 0
    outer loop
      vertex 74.75 12.1651 7
      vertex 73.8349 11.25 15
      vertex 73.8349 11.25 7
    endloop
  endfacet
  facet normal 0.258793 -0.965933 0
    outer loop
      vertex 74.75 12.1651 7
      vertex 76 12.5 15
      vertex 74.75 12.1651 15
    endloop
  endfacet
  facet normal 0.258793 -0.965933 0
    outer loop
      vertex 76 12.5 15
      vertex 74.75 12.1651 7
      vertex 76 12.5 7
    endloop
  endfacet
  facet normal 0.965933 0.258793 0
    outer loop
      vertex 73.8349 8.75 15
      vertex 73.5 10 7
      vertex 73.5 10 15
    endloop
  endfacet
  facet normal 0.965933 0.258793 0
    outer loop
      vertex 73.5 10 7
      vertex 73.8349 8.75 15
      vertex 73.8349 8.75 7
    endloop
  endfacet
  facet normal 0 0 1
    outer loop
      vertex 78.1651 11.25 7
      vertex 78.1651 8.75 7
      vertex 78.5 10 7
    endloop
  endfacet
  facet normal 0 0 1
    outer loop
      vertex 77.25 12.1651 7
      vertex 78.1651 8.75 7
      vertex 78.1651 11.25 7
    endloop
  endfacet
  facet normal 0 0 1
    outer loop
      vertex 77.25 12.1651 7
      vertex 77.25 7.83494 7
      vertex 78.1651 8.75 7
    endloop
  endfacet
  facet normal 0 0 1
    outer loop
      vertex 76 12.5 7
      vertex 77.25 7.83494 7
      vertex 77.25 12.1651 7
    endloop
  endfacet
  facet normal 0 0 1
    outer loop
      vertex 76 12.5 7
      vertex 76 7.5 7
      vertex 77.25 7.83494 7
    endloop
  endfacet
  facet normal -0 0 1
    outer loop
      vertex 74.75 12.1651 7
      vertex 76 7.5 7
      vertex 76 12.5 7
    endloop
  endfacet
  facet normal 0 0 1
    outer loop
      vertex 74.75 12.1651 7
      vertex 74.75 7.83494 7
      vertex 76 7.5 7
    endloop
  endfacet
  facet normal -0 0 1
    outer loop
      vertex 73.8349 11.25 7
      vertex 74.75 7.83494 7
      vertex 74.75 12.1651 7
    endloop
  endfacet
  facet normal 0 0 1
    outer loop
      vertex 73.8349 11.25 7
      vertex 73.8349 8.75 7
      vertex 74.75 7.83494 7
    endloop
  endfacet
  facet normal 0 -0 1
    outer loop
      vertex 73.8349 8.75 7
      vertex 73.8349 11.25 7
      vertex 73.5 10 7
    endloop
  endfacet
  facet normal -0.707091 0.707122 0
    outer loop
      vertex 77.25 7.83494 7
      vertex 78.1651 8.75 15
      vertex 78.1651 8.75 7
    endloop
  endfacet
  facet normal -0.707091 0.707122 0
    outer loop
      vertex 78.1651 8.75 15
      vertex 77.25 7.83494 7
      vertex 77.25 7.83494 15
    endloop
  endfacet
  facet normal -0.258793 -0.965933 0
    outer loop
      vertex 76 12.5 7
      vertex 77.25 12.1651 15
      vertex 76 12.5 15
    endloop
  endfacet
  facet normal -0.258793 -0.965933 -0
    outer loop
      vertex 77.25 12.1651 15
      vertex 76 12.5 7
      vertex 77.25 12.1651 7
    endloop
  endfacet
  facet normal -0.965933 0.258793 0
    outer loop
      vertex 78.1651 8.75 7
      vertex 78.5 10 15
      vertex 78.5 10 7
    endloop
  endfacet
  facet normal -0.965933 0.258793 0
    outer loop
      vertex 78.5 10 15
      vertex 78.1651 8.75 7
      vertex 78.1651 8.75 15
    endloop
  endfacet
  facet normal -0.258822 0.965925 0
    outer loop
      vertex 77.25 7.83494 7
      vertex 76 7.5 15
      vertex 77.25 7.83494 15
    endloop
  endfacet
  facet normal -0.258822 0.965925 0
    outer loop
      vertex 76 7.5 15
      vertex 77.25 7.83494 7
      vertex 76 7.5 7
    endloop
  endfacet
  facet normal 0.258822 0.965925 -0
    outer loop
      vertex 76 7.5 7
      vertex 74.75 7.83494 15
      vertex 76 7.5 15
    endloop
  endfacet
  facet normal 0.258822 0.965925 0
    outer loop
      vertex 74.75 7.83494 15
      vertex 76 7.5 7
      vertex 74.75 7.83494 7
    endloop
  endfacet
  facet normal -0.382676 0 -0.923883
    outer loop
      vertex 18 0 10
      vertex 19.7678 8 9.26777
      vertex 19.7678 0 9.26777
    endloop
  endfacet
  facet normal -0.382676 0 -0.923883
    outer loop
      vertex 19.7678 8 9.26777
      vertex 18 0 10
      vertex 18 8 10
    endloop
  endfacet
  facet normal -0.923886 0 -0.382668
    outer loop
      vertex 20.5 0 7.5
      vertex 19.7678 8 9.26777
      vertex 20.5 8 7.5
    endloop
  endfacet
  facet normal -0.923886 -0 -0.382668
    outer loop
      vertex 19.7678 8 9.26777
      vertex 20.5 0 7.5
      vertex 19.7678 0 9.26777
    endloop
  endfacet
  facet normal 0.382676 0 -0.923883
    outer loop
      vertex 16.2322 0 9.26777
      vertex 18 8 10
      vertex 18 0 10
    endloop
  endfacet
  facet normal 0.382676 0 -0.923883
    outer loop
      vertex 18 8 10
      vertex 16.2322 0 9.26777
      vertex 16.2322 8 9.26777
    endloop
  endfacet
  facet normal 0.923886 0 -0.382668
    outer loop
      vertex 16.2322 0 9.26777
      vertex 15.5 8 7.5
      vertex 16.2322 8 9.26777
    endloop
  endfacet
  facet normal 0.923886 0 -0.382668
    outer loop
      vertex 15.5 8 7.5
      vertex 16.2322 0 9.26777
      vertex 15.5 0 7.5
    endloop
  endfacet
  facet normal -0.382676 0 0.923883
    outer loop
      vertex 18 8 5
      vertex 19.7678 0 5.73223
      vertex 19.7678 8 5.73223
    endloop
  endfacet
  facet normal -0.382676 0 0.923883
    outer loop
      vertex 19.7678 0 5.73223
      vertex 18 8 5
      vertex 18 0 5
    endloop
  endfacet
  facet normal 0.923886 -0 0.382668
    outer loop
      vertex 15.5 0 7.5
      vertex 16.2322 8 5.73223
      vertex 15.5 8 7.5
    endloop
  endfacet
  facet normal 0.923886 0 0.382668
    outer loop
      vertex 16.2322 8 5.73223
      vertex 15.5 0 7.5
      vertex 16.2322 0 5.73223
    endloop
  endfacet
  facet normal -0.923886 0 0.382668
    outer loop
      vertex 19.7678 0 5.73223
      vertex 20.5 8 7.5
      vertex 19.7678 8 5.73223
    endloop
  endfacet
  facet normal -0.923886 0 0.382668
    outer loop
      vertex 20.5 8 7.5
      vertex 19.7678 0 5.73223
      vertex 20.5 0 7.5
    endloop
  endfacet
  facet normal 0.382676 0 0.923883
    outer loop
      vertex 16.2322 8 5.73223
      vertex 18 0 5
      vertex 18 8 5
    endloop
  endfacet
  facet normal 0.382676 0 0.923883
    outer loop
      vertex 18 0 5
      vertex 16.2322 8 5.73223
      vertex 16.2322 0 5.73223
    endloop
  endfacet
  facet normal 0 -1 0
    outer loop
      vertex 16.2322 8 9.26777
      vertex 19.7678 8 9.26777
      vertex 18 8 10
    endloop
  endfacet
  facet normal 0 -1 0
    outer loop
      vertex 15.5 8 7.5
      vertex 19.7678 8 9.26777
      vertex 16.2322 8 9.26777
    endloop
  endfacet
  facet normal 0 -1 0
    outer loop
      vertex 15.5 8 7.5
      vertex 20.5 8 7.5
      vertex 19.7678 8 9.26777
    endloop
  endfacet
  facet normal 0 -1 0
    outer loop
      vertex 16.2322 8 5.73223
      vertex 20.5 8 7.5
      vertex 15.5 8 7.5
    endloop
  endfacet
  facet normal 0 -1 0
    outer loop
      vertex 16.2322 8 5.73223
      vertex 19.7678 8 5.73223
      vertex 20.5 8 7.5
    endloop
  endfacet
  facet normal -0 -1 0
    outer loop
      vertex 19.7678 8 5.73223
      vertex 16.2322 8 5.73223
      vertex 18 8 5
    endloop
  endfacet
  facet normal -0.382676 0 -0.923883
    outer loop
      vertex 68 0 10
      vertex 69.7678 8 9.26777
      vertex 69.7678 0 9.26777
    endloop
  endfacet
  facet normal -0.382676 0 -0.923883
    outer loop
      vertex 69.7678 8 9.26777
      vertex 68 0 10
      vertex 68 8 10
    endloop
  endfacet
  facet normal -0.923886 0 -0.382668
    outer loop
      vertex 70.5 0 7.5
      vertex 69.7678 8 9.26777
      vertex 70.5 8 7.5
    endloop
  endfacet
  facet normal -0.923886 -0 -0.382668
    outer loop
      vertex 69.7678 8 9.26777
      vertex 70.5 0 7.5
      vertex 69.7678 0 9.26777
    endloop
  endfacet
  facet normal 0.382676 0 -0.923883
    outer loop
      vertex 66.2322 0 9.26777
      vertex 68 8 10
      vertex 68 0 10
    endloop
  endfacet
  facet normal 0.382676 0 -0.923883
    outer loop
      vertex 68 8 10
      vertex 66.2322 0 9.26777
      vertex 66.2322 8 9.26777
    endloop
  endfacet
  facet normal 0.923886 0 -0.382668
    outer loop
      vertex 66.2322 0 9.26777
      vertex 65.5 8 7.5
      vertex 66.2322 8 9.26777
    endloop
  endfacet
  facet normal 0.923886 0 -0.382668
    outer loop
      vertex 65.5 8 7.5
      vertex 66.2322 0 9.26777
      vertex 65.5 0 7.5
    endloop
  endfacet
  facet normal -0.382676 0 0.923883
    outer loop
      vertex 68 8 5
      vertex 69.7678 0 5.73223
      vertex 69.7678 8 5.73223
    endloop
  endfacet
  facet normal -0.382676 0 0.923883
    outer loop
      vertex 69.7678 0 5.73223
      vertex 68 8 5
      vertex 68 0 5
    endloop
  endfacet
  facet normal 0.923886 -0 0.382668
    outer loop
      vertex 65.5 0 7.5
      vertex 66.2322 8 5.73223
      vertex 65.5 8 7.5
    endloop
  endfacet
  facet normal 0.923886 0 0.382668
    outer loop
      vertex 66.2322 8 5.73223
      vertex 65.5 0 7.5
      vertex 66.2322 0 5.73223
    endloop
  endfacet
  facet normal -0.923886 0 0.382668
    outer loop
      vertex 69.7678 0 5.73223
      vertex 70.5 8 7.5
      vertex 69.7678 8 5.73223
    endloop
  endfacet
  facet normal -0.923886 0 0.382668
    outer loop
      vertex 70.5 8 7.5
      vertex 69.7678 0 5.73223
      vertex 70.5 0 7.5
    endloop
  endfacet
  facet normal 0.382676 0 0.923883
    outer loop
      vertex 66.2322 8 5.73223
      vertex 68 0 5
      vertex 68 8 5
    endloop
  endfacet
  facet normal 0.382676 0 0.923883
    outer loop
      vertex 68 0 5
      vertex 66.2322 8 5.73223
      vertex 66.2322 0 5.73223
    endloop
  endfacet
  facet normal 0 -1 0
    outer loop
      vertex 66.2322 8 9.26777
      vertex 69.7678 8 9.26777
      vertex 68 8 10
    endloop
  endfacet
  facet normal 0 -1 0
    outer loop
      vertex 65.5 8 7.5
      vertex 69.7678 8 9.26777
      vertex 66.2322 8 9.26777
    endloop
  endfacet
  facet normal 0 -1 0
    outer loop
      vertex 65.5 8 7.5
      vertex 70.5 8 7.5
      vertex 69.7678 8 9.26777
    endloop
  endfacet
  facet normal 0 -1 0
    outer loop
      vertex 66.2322 8 5.73223
      vertex 70.5 8 7.5
      vertex 65.5 8 7.5
    endloop
  endfacet
  facet normal 0 -1 0
    outer loop
      vertex 66.2322 8 5.73223
      vertex 69.7678 8 5.73223
      vertex 70.5 8 7.5
    endloop
  endfacet
  facet normal -0 -1 0
    outer loop
      vertex 69.7678 8 5.73223
      vertex 66.2322 8 5.73223
      vertex 68 8 5
    endloop
  endfacet
endsolid OpenSCAD_Model
