solid OpenSCAD_Model
  facet normal -0.555574 0.831467 0
    outer loop
      vertex -1.91342 4.6194 0
      vertex -3.53553 3.53553 4
      vertex -1.91342 4.6194 4
    endloop
  endfacet
  facet normal -0.555574 0.831467 0
    outer loop
      vertex -3.53553 3.53553 4
      vertex -1.91342 4.6194 0
      vertex -3.53553 3.53553 0
    endloop
  endfacet
  facet normal 0.831467 0.555574 0
    outer loop
      vertex 4.6194 1.91342 4
      vertex 3.53553 3.53553 0
      vertex 3.53553 3.53553 4
    endloop
  endfacet
  facet normal 0.831467 0.555574 0
    outer loop
      vertex 3.53553 3.53553 0
      vertex 4.6194 1.91342 4
      vertex 4.6194 1.91342 0
    endloop
  endfacet
  facet normal 0.980786 0.195089 0
    outer loop
      vertex 5 0 4
      vertex 4.6194 1.91342 0
      vertex 4.6194 1.91342 4
    endloop
  endfacet
  facet normal 0.980786 0.195089 0
    outer loop
      vertex 4.6194 1.91342 0
      vertex 5 0 4
      vertex 5 0 0
    endloop
  endfacet
  facet normal -0.831467 0.555574 0
    outer loop
      vertex -4.6194 1.91342 0
      vertex -3.53553 3.53553 4
      vertex -3.53553 3.53553 0
    endloop
  endfacet
  facet normal -0.831467 0.555574 0
    outer loop
      vertex -3.53553 3.53553 4
      vertex -4.6194 1.91342 0
      vertex -4.6194 1.91342 4
    endloop
  endfacet
  facet normal -0.195089 -0.980786 0
    outer loop
      vertex -1.91342 -4.6194 0
      vertex 0 -5 4
      vertex -1.91342 -4.6194 4
    endloop
  endfacet
  facet normal -0.195089 -0.980786 -0
    outer loop
      vertex 0 -5 4
      vertex -1.91342 -4.6194 0
      vertex 0 -5 0
    endloop
  endfacet
  facet normal 0.195089 -0.980786 0
    outer loop
      vertex 0 -5 0
      vertex 1.91342 -4.6194 4
      vertex 0 -5 4
    endloop
  endfacet
  facet normal 0.195089 -0.980786 0
    outer loop
      vertex 1.91342 -4.6194 4
      vertex 0 -5 0
      vertex 1.91342 -4.6194 0
    endloop
  endfacet
  facet normal 0.555574 -0.831467 0
    outer loop
      vertex 1.91342 -4.6194 0
      vertex 3.53553 -3.53553 4
      vertex 1.91342 -4.6194 4
    endloop
  endfacet
  facet normal 0.555574 -0.831467 0
    outer loop
      vertex 3.53553 -3.53553 4
      vertex 1.91342 -4.6194 0
      vertex 3.53553 -3.53553 0
    endloop
  endfacet
  facet normal 0.831467 -0.555574 0
    outer loop
      vertex 3.53553 -3.53553 4
      vertex 4.6194 -1.91342 0
      vertex 4.6194 -1.91342 4
    endloop
  endfacet
  facet normal 0.831467 -0.555574 0
    outer loop
      vertex 4.6194 -1.91342 0
      vertex 3.53553 -3.53553 4
      vertex 3.53553 -3.53553 0
    endloop
  endfacet
  facet normal -0.980786 0.195089 0
    outer loop
      vertex -5 0 0
      vertex -4.6194 1.91342 4
      vertex -4.6194 1.91342 0
    endloop
  endfacet
  facet normal -0.980786 0.195089 0
    outer loop
      vertex -4.6194 1.91342 4
      vertex -5 0 0
      vertex -5 0 4
    endloop
  endfacet
  facet normal 0.980786 -0.195089 0
    outer loop
      vertex 4.6194 -1.91342 4
      vertex 5 0 0
      vertex 5 0 4
    endloop
  endfacet
  facet normal 0.980786 -0.195089 0
    outer loop
      vertex 5 0 0
      vertex 4.6194 -1.91342 4
      vertex 4.6194 -1.91342 0
    endloop
  endfacet
  facet normal 0 0 -1
    outer loop
      vertex 4.6194 -1.91342 0
      vertex 4.6194 1.91342 0
      vertex 5 0 0
    endloop
  endfacet
  facet normal 0 0 -1
    outer loop
      vertex 3.53553 -3.53553 0
      vertex 4.6194 1.91342 0
      vertex 4.6194 -1.91342 0
    endloop
  endfacet
  facet normal 0 0 -1
    outer loop
      vertex 3.53553 -3.53553 0
      vertex 3.53553 3.53553 0
      vertex 4.6194 1.91342 0
    endloop
  endfacet
  facet normal 0 0 -1
    outer loop
      vertex 1.91342 -4.6194 0
      vertex 3.53553 3.53553 0
      vertex 3.53553 -3.53553 0
    endloop
  endfacet
  facet normal 0 0 -1
    outer loop
      vertex 1.91342 -4.6194 0
      vertex 1.91342 4.6194 0
      vertex 3.53553 3.53553 0
    endloop
  endfacet
  facet normal 0 0 -1
    outer loop
      vertex 0 -5 0
      vertex 1.91342 4.6194 0
      vertex 1.91342 -4.6194 0
    endloop
  endfacet
  facet normal 0 0 -1
    outer loop
      vertex 0 -5 0
      vertex 0 5 0
      vertex 1.91342 4.6194 0
    endloop
  endfacet
  facet normal 0 0 -1
    outer loop
      vertex -1.91342 -4.6194 0
      vertex 0 5 0
      vertex 0 -5 0
    endloop
  endfacet
  facet normal 0 0 -1
    outer loop
      vertex -1.91342 -4.6194 0
      vertex -1.91342 4.6194 0
      vertex 0 5 0
    endloop
  endfacet
  facet normal 0 0 -1
    outer loop
      vertex -3.53553 -3.53553 0
      vertex -1.91342 4.6194 0
      vertex -1.91342 -4.6194 0
    endloop
  endfacet
  facet normal 0 0 -1
    outer loop
      vertex -3.53553 -3.53553 0
      vertex -3.53553 3.53553 0
      vertex -1.91342 4.6194 0
    endloop
  endfacet
  facet normal 0 0 -1
    outer loop
      vertex -4.6194 -1.91342 0
      vertex -3.53553 3.53553 0
      vertex -3.53553 -3.53553 0
    endloop
  endfacet
  facet normal 0 0 -1
    outer loop
      vertex -4.6194 -1.91342 0
      vertex -4.6194 1.91342 0
      vertex -3.53553 3.53553 0
    endloop
  endfacet
  facet normal 0 -0 -1
    outer loop
      vertex -4.6194 1.91342 0
      vertex -4.6194 -1.91342 0
      vertex -5 0 0
    endloop
  endfacet
  facet normal -0.195089 0.980786 0
    outer loop
      vertex 0 5 0
      vertex -1.91342 4.6194 4
      vertex 0 5 4
    endloop
  endfacet
  facet normal -0.195089 0.980786 0
    outer loop
      vertex -1.91342 4.6194 4
      vertex 0 5 0
      vertex -1.91342 4.6194 0
    endloop
  endfacet
  facet normal 0.195089 0.980786 -0
    outer loop
      vertex 1.91342 4.6194 0
      vertex 0 5 4
      vertex 1.91342 4.6194 4
    endloop
  endfacet
  facet normal 0.195089 0.980786 0
    outer loop
      vertex 0 5 4
      vertex 1.91342 4.6194 0
      vertex 0 5 0
    endloop
  endfacet
  facet normal -0.831467 -0.555574 0
    outer loop
      vertex -3.53553 -3.53553 0
      vertex -4.6194 -1.91342 4
      vertex -4.6194 -1.91342 0
    endloop
  endfacet
  facet normal -0.831467 -0.555574 0
    outer loop
      vertex -4.6194 -1.91342 4
      vertex -3.53553 -3.53553 0
      vertex -3.53553 -3.53553 4
    endloop
  endfacet
  facet normal 0 0 1
    outer loop
      vertex 2.7 0 4
      vertex 5 0 4
      vertex 4.6194 1.91342 4
    endloop
  endfacet
  facet normal 0 0 1
    outer loop
      vertex 2.06832 1.73553 4
      vertex 4.6194 1.91342 4
      vertex 3.53553 3.53553 4
    endloop
  endfacet
  facet normal 0 0 1
    outer loop
      vertex 5 0 4
      vertex 2.7 0 4
      vertex 4.6194 -1.91342 4
    endloop
  endfacet
  facet normal -0 0 1
    outer loop
      vertex 2.06832 -1.73553 4
      vertex 4.6194 -1.91342 4
      vertex 2.7 0 4
    endloop
  endfacet
  facet normal 0 0 1
    outer loop
      vertex 4.6194 1.91342 4
      vertex 2.06832 1.73553 4
      vertex 2.7 0 4
    endloop
  endfacet
  facet normal 0 0 1
    outer loop
      vertex 1.91342 4.6194 4
      vertex 2.06832 1.73553 4
      vertex 3.53553 3.53553 4
    endloop
  endfacet
  facet normal 0 0 1
    outer loop
      vertex 1.91342 4.6194 4
      vertex 0.468849 2.65898 4
      vertex 2.06832 1.73553 4
    endloop
  endfacet
  facet normal 0 0 1
    outer loop
      vertex 0 5 4
      vertex 0.468849 2.65898 4
      vertex 1.91342 4.6194 4
    endloop
  endfacet
  facet normal 0 0 1
    outer loop
      vertex 0 5 4
      vertex -1.35 2.33827 4
      vertex 0.468849 2.65898 4
    endloop
  endfacet
  facet normal -0 0 1
    outer loop
      vertex -1.91342 4.6194 4
      vertex -1.35 2.33827 4
      vertex 0 5 4
    endloop
  endfacet
  facet normal -0 0 1
    outer loop
      vertex -3.53553 3.53553 4
      vertex -1.35 2.33827 4
      vertex -1.91342 4.6194 4
    endloop
  endfacet
  facet normal -0 0 1
    outer loop
      vertex -4.6194 1.91342 4
      vertex -2.53717 0.923454 4
      vertex -3.53553 3.53553 4
    endloop
  endfacet
  facet normal 0 0 1
    outer loop
      vertex -1.35 2.33827 4
      vertex -3.53553 3.53553 4
      vertex -2.53717 0.923454 4
    endloop
  endfacet
  facet normal 0 0 1
    outer loop
      vertex 4.6194 -1.91342 4
      vertex 2.06832 -1.73553 4
      vertex 3.53553 -3.53553 4
    endloop
  endfacet
  facet normal 0 0 1
    outer loop
      vertex 2.06832 -1.73553 4
      vertex 1.91342 -4.6194 4
      vertex 3.53553 -3.53553 4
    endloop
  endfacet
  facet normal -0 0 1
    outer loop
      vertex 0.468849 -2.65898 4
      vertex 1.91342 -4.6194 4
      vertex 2.06832 -1.73553 4
    endloop
  endfacet
  facet normal 0 0 1
    outer loop
      vertex 0.468849 -2.65898 4
      vertex 0 -5 4
      vertex 1.91342 -4.6194 4
    endloop
  endfacet
  facet normal 0 0 1
    outer loop
      vertex -1.35 -2.33827 4
      vertex 0 -5 4
      vertex 0.468849 -2.65898 4
    endloop
  endfacet
  facet normal 0 0 1
    outer loop
      vertex -1.35 -2.33827 4
      vertex -1.91342 -4.6194 4
      vertex 0 -5 4
    endloop
  endfacet
  facet normal 0 0 1
    outer loop
      vertex -3.53553 -3.53553 4
      vertex -1.35 -2.33827 4
      vertex -2.53717 -0.923454 4
    endloop
  endfacet
  facet normal 0 0 1
    outer loop
      vertex -5 0 4
      vertex -2.53717 0.923454 4
      vertex -4.6194 1.91342 4
    endloop
  endfacet
  facet normal 0 0 1
    outer loop
      vertex -1.35 -2.33827 4
      vertex -3.53553 -3.53553 4
      vertex -1.91342 -4.6194 4
    endloop
  endfacet
  facet normal 0 0 1
    outer loop
      vertex -2.53717 0.923454 4
      vertex -5 0 4
      vertex -2.53717 -0.923454 4
    endloop
  endfacet
  facet normal 0 0 1
    outer loop
      vertex -2.53717 -0.923454 4
      vertex -4.6194 -1.91342 4
      vertex -3.53553 -3.53553 4
    endloop
  endfacet
  facet normal 0 0 1
    outer loop
      vertex -2.53717 -0.923454 4
      vertex -5 0 4
      vertex -4.6194 -1.91342 4
    endloop
  endfacet
  facet normal 0.555574 0.831467 -0
    outer loop
      vertex 3.53553 3.53553 0
      vertex 1.91342 4.6194 4
      vertex 3.53553 3.53553 4
    endloop
  endfacet
  facet normal 0.555574 0.831467 0
    outer loop
      vertex 1.91342 4.6194 4
      vertex 3.53553 3.53553 0
      vertex 1.91342 4.6194 0
    endloop
  endfacet
  facet normal -0.980786 -0.195089 0
    outer loop
      vertex -4.6194 -1.91342 0
      vertex -5 0 4
      vertex -5 0 0
    endloop
  endfacet
  facet normal -0.980786 -0.195089 0
    outer loop
      vertex -5 0 4
      vertex -4.6194 -1.91342 0
      vertex -4.6194 -1.91342 4
    endloop
  endfacet
  facet normal -0.555574 -0.831467 0
    outer loop
      vertex -3.53553 -3.53553 0
      vertex -1.91342 -4.6194 4
      vertex -3.53553 -3.53553 4
    endloop
  endfacet
  facet normal -0.555574 -0.831467 -0
    outer loop
      vertex -1.91342 -4.6194 4
      vertex -3.53553 -3.53553 0
      vertex -1.91342 -4.6194 0
    endloop
  endfacet
  facet normal -0.499998 -0.866027 0
    outer loop
      vertex 0.468849 2.65898 2
      vertex 2.06832 1.73553 4
      vertex 0.468849 2.65898 4
    endloop
  endfacet
  facet normal -0.499998 -0.866027 -0
    outer loop
      vertex 2.06832 1.73553 4
      vertex 0.468849 2.65898 2
      vertex 2.06832 1.73553 2
    endloop
  endfacet
  facet normal -0.939693 -0.34202 0
    outer loop
      vertex 2.7 0 2
      vertex 2.06832 1.73553 4
      vertex 2.06832 1.73553 2
    endloop
  endfacet
  facet normal -0.939693 -0.34202 0
    outer loop
      vertex 2.06832 1.73553 4
      vertex 2.7 0 2
      vertex 2.7 0 4
    endloop
  endfacet
  facet normal 0.173647 -0.984808 0
    outer loop
      vertex -1.35 2.33827 2
      vertex 0.468849 2.65898 4
      vertex -1.35 2.33827 4
    endloop
  endfacet
  facet normal 0.173647 -0.984808 0
    outer loop
      vertex 0.468849 2.65898 4
      vertex -1.35 2.33827 2
      vertex 0.468849 2.65898 2
    endloop
  endfacet
  facet normal -0.939693 0.34202 0
    outer loop
      vertex 2.06832 -1.73553 2
      vertex 2.7 0 4
      vertex 2.7 0 2
    endloop
  endfacet
  facet normal -0.939693 0.34202 0
    outer loop
      vertex 2.7 0 4
      vertex 2.06832 -1.73553 2
      vertex 2.06832 -1.73553 4
    endloop
  endfacet
  facet normal 0.766045 -0.642787 0
    outer loop
      vertex -2.53717 0.923454 4
      vertex -1.35 2.33827 2
      vertex -1.35 2.33827 4
    endloop
  endfacet
  facet normal 0.766045 -0.642787 0
    outer loop
      vertex -1.35 2.33827 2
      vertex -2.53717 0.923454 4
      vertex -2.53717 0.923454 2
    endloop
  endfacet
  facet normal -0.499998 0.866027 0
    outer loop
      vertex 2.06832 -1.73553 2
      vertex 0.468849 -2.65898 4
      vertex 2.06832 -1.73553 4
    endloop
  endfacet
  facet normal -0.499998 0.866027 0
    outer loop
      vertex 0.468849 -2.65898 4
      vertex 2.06832 -1.73553 2
      vertex 0.468849 -2.65898 2
    endloop
  endfacet
  facet normal 0.173647 0.984808 -0
    outer loop
      vertex 0.468849 -2.65898 2
      vertex -1.35 -2.33827 4
      vertex 0.468849 -2.65898 4
    endloop
  endfacet
  facet normal 0.173647 0.984808 0
    outer loop
      vertex -1.35 -2.33827 4
      vertex 0.468849 -2.65898 2
      vertex -1.35 -2.33827 2
    endloop
  endfacet
  facet normal 0.766045 0.642787 0
    outer loop
      vertex -1.35 -2.33827 4
      vertex -2.53717 -0.923454 2
      vertex -2.53717 -0.923454 4
    endloop
  endfacet
  facet normal 0.766045 0.642787 0
    outer loop
      vertex -2.53717 -0.923454 2
      vertex -1.35 -2.33827 4
      vertex -1.35 -2.33827 2
    endloop
  endfacet
  facet normal 1 -0 0
    outer loop
      vertex -2.53717 -0.923454 4
      vertex -2.53717 0.923454 2
      vertex -2.53717 0.923454 4
    endloop
  endfacet
  facet normal 1 0 0
    outer loop
      vertex -2.53717 0.923454 2
      vertex -2.53717 -0.923454 4
      vertex -2.53717 -0.923454 2
    endloop
  endfacet
  facet normal 0 0 1
    outer loop
      vertex 2.06832 1.73553 2
      vertex 2.06832 -1.73553 2
      vertex 2.7 0 2
    endloop
  endfacet
  facet normal 0 0 1
    outer loop
      vertex 0.468849 2.65898 2
      vertex 2.06832 -1.73553 2
      vertex 2.06832 1.73553 2
    endloop
  endfacet
  facet normal 0 0 1
    outer loop
      vertex 0.468849 2.65898 2
      vertex 0.468849 -2.65898 2
      vertex 2.06832 -1.73553 2
    endloop
  endfacet
  facet normal -0 0 1
    outer loop
      vertex -1.35 2.33827 2
      vertex 0.468849 -2.65898 2
      vertex 0.468849 2.65898 2
    endloop
  endfacet
  facet normal 0 0 1
    outer loop
      vertex -1.35 2.33827 2
      vertex -1.35 -2.33827 2
      vertex 0.468849 -2.65898 2
    endloop
  endfacet
  facet normal -0 0 1
    outer loop
      vertex -2.53717 0.923454 2
      vertex -1.35 -2.33827 2
      vertex -1.35 2.33827 2
    endloop
  endfacet
  facet normal 0 0 1
    outer loop
      vertex -1.35 -2.33827 2
      vertex -2.53717 0.923454 2
      vertex -2.53717 -0.923454 2
    endloop
  endfacet
endsolid OpenSCAD_Model
