solid OpenSCAD_Model
  facet normal 1 -0 0
    outer loop
      vertex 22 0 15
      vertex 22 60 0
      vertex 22 60 15
    endloop
  endfacet
  facet normal 1 0 0
    outer loop
      vertex 22 60 0
      vertex 22 0 15
      vertex 22 0 0
    endloop
  endfacet
  facet normal -0 0 1
    outer loop
      vertex 0 60 15
      vertex 5 0 15
      vertex 5 60 15
    endloop
  endfacet
  facet normal 0 0 1
    outer loop
      vertex 5 0 15
      vertex 0 60 15
      vertex 0 0 15
    endloop
  endfacet
  facet normal -0 0 1
    outer loop
      vertex 17 60 15
      vertex 22 0 15
      vertex 22 60 15
    endloop
  endfacet
  facet normal 0 0 1
    outer loop
      vertex 22 0 15
      vertex 17 60 15
      vertex 17 0 15
    endloop
  endfacet
  facet normal 0 0 -1
    outer loop
      vertex 0 0 0
      vertex 22 60 0
      vertex 22 0 0
    endloop
  endfacet
  facet normal -0 0 -1
    outer loop
      vertex 22 60 0
      vertex 0 0 0
      vertex 0 60 0
    endloop
  endfacet
  facet normal -1 0 0
    outer loop
      vertex 0 0 0
      vertex 0 60 15
      vertex 0 60 0
    endloop
  endfacet
  facet normal -1 -0 0
    outer loop
      vertex 0 60 15
      vertex 0 0 0
      vertex 0 0 15
    endloop
  endfacet
  facet normal 0 1 0
    outer loop
      vertex 22 60 15
      vertex 17 60 10
      vertex 17 60 15
    endloop
  endfacet
  facet normal 0 1 0
    outer loop
      vertex 17 60 10
      vertex 22 60 0
      vertex 5 60 10
    endloop
  endfacet
  facet normal 0 1 -0
    outer loop
      vertex 22 60 0
      vertex 17 60 10
      vertex 22 60 15
    endloop
  endfacet
  facet normal 0 1 -0
    outer loop
      vertex 5 60 10
      vertex 0 60 15
      vertex 5 60 15
    endloop
  endfacet
  facet normal 0 1 0
    outer loop
      vertex 5 60 10
      vertex 0 60 0
      vertex 0 60 15
    endloop
  endfacet
  facet normal 0 1 0
    outer loop
      vertex 0 60 0
      vertex 5 60 10
      vertex 22 60 0
    endloop
  endfacet
  facet normal 0 -1 0
    outer loop
      vertex 0 0 15
      vertex 5 0 10
      vertex 5 0 15
    endloop
  endfacet
  facet normal 0 -1 -0
    outer loop
      vertex 5 0 10
      vertex 0 0 0
      vertex 17 0 10
    endloop
  endfacet
  facet normal 0 -1 0
    outer loop
      vertex 0 0 0
      vertex 5 0 10
      vertex 0 0 15
    endloop
  endfacet
  facet normal 0 -1 0
    outer loop
      vertex 17 0 10
      vertex 22 0 15
      vertex 17 0 15
    endloop
  endfacet
  facet normal 0 -1 0
    outer loop
      vertex 17 0 10
      vertex 22 0 0
      vertex 22 0 15
    endloop
  endfacet
  facet normal 0 -1 0
    outer loop
      vertex 22 0 0
      vertex 17 0 10
      vertex 0 0 0
    endloop
  endfacet
  facet normal -1 0 0
    outer loop
      vertex 17 55 1
      vertex 17 5 1
      vertex 17 55 10
    endloop
  endfacet
  facet normal -1 0 0
    outer loop
      vertex 17 55 10
      vertex 17 60 15
      vertex 17 60 10
    endloop
  endfacet
  facet normal -1 0 0
    outer loop
      vertex 17 5 10
      vertex 17 55 10
      vertex 17 5 1
    endloop
  endfacet
  facet normal -1 0 0
    outer loop
      vertex 17 55 10
      vertex 17 5 10
      vertex 17 60 15
    endloop
  endfacet
  facet normal -1 0 0
    outer loop
      vertex 17 0 15
      vertex 17 5 10
      vertex 17 0 10
    endloop
  endfacet
  facet normal -1 0 0
    outer loop
      vertex 17 5 10
      vertex 17 0 15
      vertex 17 60 15
    endloop
  endfacet
  facet normal -0 0 1
    outer loop
      vertex 5 55 1
      vertex 17 5 1
      vertex 17 55 1
    endloop
  endfacet
  facet normal 0 0 1
    outer loop
      vertex 17 5 1
      vertex 5 55 1
      vertex 5 5 1
    endloop
  endfacet
  facet normal 1 0 0
    outer loop
      vertex 5 60 15
      vertex 5 55 10
      vertex 5 60 10
    endloop
  endfacet
  facet normal 1 0 0
    outer loop
      vertex 5 55 10
      vertex 5 5 10
      vertex 5 55 1
    endloop
  endfacet
  facet normal 1 0 0
    outer loop
      vertex 5 60 15
      vertex 5 5 10
      vertex 5 55 10
    endloop
  endfacet
  facet normal 1 -0 0
    outer loop
      vertex 5 0 15
      vertex 5 5 10
      vertex 5 60 15
    endloop
  endfacet
  facet normal 1 0 0
    outer loop
      vertex 5 5 10
      vertex 5 0 15
      vertex 5 0 10
    endloop
  endfacet
  facet normal 1 0 0
    outer loop
      vertex 5 55 1
      vertex 5 5 10
      vertex 5 5 1
    endloop
  endfacet
  facet normal 0 -1 0
    outer loop
      vertex 5 55 1
      vertex 17 55 10
      vertex 5 55 10
    endloop
  endfacet
  facet normal 0 -1 -0
    outer loop
      vertex 17 55 10
      vertex 5 55 1
      vertex 17 55 1
    endloop
  endfacet
  facet normal 0 1 -0
    outer loop
      vertex 17 5 1
      vertex 5 5 10
      vertex 17 5 10
    endloop
  endfacet
  facet normal 0 1 0
    outer loop
      vertex 5 5 10
      vertex 17 5 1
      vertex 5 5 1
    endloop
  endfacet
  facet normal -0 0 1
    outer loop
      vertex 5 5 10
      vertex 17 0 10
      vertex 17 5 10
    endloop
  endfacet
  facet normal 0 0 1
    outer loop
      vertex 17 0 10
      vertex 5 5 10
      vertex 5 0 10
    endloop
  endfacet
  facet normal -0 0 1
    outer loop
      vertex 5 60 10
      vertex 17 55 10
      vertex 17 60 10
    endloop
  endfacet
  facet normal 0 0 1
    outer loop
      vertex 17 55 10
      vertex 5 60 10
      vertex 5 55 10
    endloop
  endfacet
endsolid OpenSCAD_Model
