solid OpenSCAD_Model
  facet normal 0 0 -1
    outer loop
      vertex -1.48492 -1.48492 0
      vertex -0.375 -0.375 0
      vertex -0.375 -1.94467 0
    endloop
  endfacet
  facet normal -0 0 -1
    outer loop
      vertex -0.375 -0.375 0
      vertex -1.48492 -1.48492 0
      vertex -1.94467 -0.375 0
    endloop
  endfacet
  facet normal 0 0 -1
    outer loop
      vertex 0.375 0.375 0
      vertex 1.48492 1.48492 0
      vertex 1.94467 0.375 0
    endloop
  endfacet
  facet normal -0 0 -1
    outer loop
      vertex 1.48492 1.48492 0
      vertex 0.375 0.375 0
      vertex 0.375 1.94467 0
    endloop
  endfacet
  facet normal 0 0 -1
    outer loop
      vertex -0.375 0.375 0
      vertex -1.48492 1.48492 0
      vertex -0.375 1.94467 0
    endloop
  endfacet
  facet normal 0 -0 -1
    outer loop
      vertex -1.48492 1.48492 0
      vertex -0.375 0.375 0
      vertex -1.94467 0.375 0
    endloop
  endfacet
  facet normal 0 0 -1
    outer loop
      vertex 0.375 -0.375 0
      vertex 1.48492 -1.48492 0
      vertex 0.375 -1.94467 0
    endloop
  endfacet
  facet normal 0 0 -1
    outer loop
      vertex 1.48492 -1.48492 0
      vertex 0.375 -0.375 0
      vertex 1.94467 -0.375 0
    endloop
  endfacet
  facet normal 0.382076 -0.922404 -0.0564739
    outer loop
      vertex 1.00438 -1.86152 2.9
      vertex 0.375 -2.12222 2.9
      vertex 0.375 -2.01096 1.08276
    endloop
  endfacet
  facet normal 0.922404 0.382076 -0.0564739
    outer loop
      vertex 2.01096 0.375 1.08276
      vertex 1.86152 1.00438 2.9
      vertex 2.12222 0.375 2.9
    endloop
  endfacet
  facet normal 0.922406 0.382072 -0.0564725
    outer loop
      vertex 2.01096 0.375 1.08276
      vertex 1.61047 1.61047 2.9
      vertex 1.86152 1.00438 2.9
    endloop
  endfacet
  facet normal 0.922404 0.382075 -0.0564749
    outer loop
      vertex 1.61047 1.61047 2.9
      vertex 2.01096 0.375 1.08276
      vertex 1.48492 1.48492 0
    endloop
  endfacet
  facet normal 0.922403 0.382077 -0.0564725
    outer loop
      vertex 1.48492 1.48492 0
      vertex 2.01096 0.375 1.08276
      vertex 1.94467 0.375 0
    endloop
  endfacet
  facet normal 0.922406 -0.382072 -0.0564725
    outer loop
      vertex 1.61047 -1.61047 2.9
      vertex 2.01096 -0.375 1.08276
      vertex 1.86152 -1.00438 2.9
    endloop
  endfacet
  facet normal 0.922403 -0.382077 -0.0564725
    outer loop
      vertex 2.01096 -0.375 1.08276
      vertex 1.48492 -1.48492 0
      vertex 1.94467 -0.375 0
    endloop
  endfacet
  facet normal 0.922404 -0.382075 -0.0564749
    outer loop
      vertex 2.01096 -0.375 1.08276
      vertex 1.61047 -1.61047 2.9
      vertex 1.48492 -1.48492 0
    endloop
  endfacet
  facet normal -0.382072 0.922406 -0.0564725
    outer loop
      vertex -0.375 2.01096 1.08276
      vertex -1.61047 1.61047 2.9
      vertex -1.00438 1.86152 2.9
    endloop
  endfacet
  facet normal -0.382077 0.922403 -0.0564725
    outer loop
      vertex -1.48492 1.48492 0
      vertex -0.375 2.01096 1.08276
      vertex -0.375 1.94467 0
    endloop
  endfacet
  facet normal -0.382075 0.922404 -0.0564749
    outer loop
      vertex -0.375 2.01096 1.08276
      vertex -1.48492 1.48492 0
      vertex -1.61047 1.61047 2.9
    endloop
  endfacet
  facet normal -0.922404 0.382076 -0.0564739
    outer loop
      vertex -2.01096 0.375 1.08276
      vertex -2.12222 0.375 2.9
      vertex -1.86152 1.00438 2.9
    endloop
  endfacet
  facet normal -0.922404 -0.382076 -0.0564739
    outer loop
      vertex -1.86152 -1.00438 2.9
      vertex -2.12222 -0.375 2.9
      vertex -2.01096 -0.375 1.08276
    endloop
  endfacet
  facet normal -0.382076 -0.922404 -0.0564739
    outer loop
      vertex -0.375 -2.12222 2.9
      vertex -1.00438 -1.86152 2.9
      vertex -0.375 -2.01096 1.08276
    endloop
  endfacet
  facet normal 0.922404 -0.382076 -0.0564739
    outer loop
      vertex 2.12222 -0.375 2.9
      vertex 1.86152 -1.00438 2.9
      vertex 2.01096 -0.375 1.08276
    endloop
  endfacet
  facet normal -0.382072 -0.922406 -0.0564725
    outer loop
      vertex -1.61047 -1.61047 2.9
      vertex -0.375 -2.01096 1.08276
      vertex -1.00438 -1.86152 2.9
    endloop
  endfacet
  facet normal -0.382075 -0.922404 -0.0564749
    outer loop
      vertex -1.48492 -1.48492 0
      vertex -0.375 -2.01096 1.08276
      vertex -1.61047 -1.61047 2.9
    endloop
  endfacet
  facet normal -0.382077 -0.922403 -0.0564725
    outer loop
      vertex -0.375 -2.01096 1.08276
      vertex -1.48492 -1.48492 0
      vertex -0.375 -1.94467 0
    endloop
  endfacet
  facet normal 0.382072 -0.922406 -0.0564725
    outer loop
      vertex 0.375 -2.01096 1.08276
      vertex 1.61047 -1.61047 2.9
      vertex 1.00438 -1.86152 2.9
    endloop
  endfacet
  facet normal 0.382077 -0.922403 -0.0564725
    outer loop
      vertex 1.48492 -1.48492 0
      vertex 0.375 -2.01096 1.08276
      vertex 0.375 -1.94467 0
    endloop
  endfacet
  facet normal 0.382075 -0.922404 -0.0564749
    outer loop
      vertex 0.375 -2.01096 1.08276
      vertex 1.48492 -1.48492 0
      vertex 1.61047 -1.61047 2.9
    endloop
  endfacet
  facet normal -0.922403 -0.382077 -0.0564725
    outer loop
      vertex -1.48492 -1.48492 0
      vertex -2.01096 -0.375 1.08276
      vertex -1.94467 -0.375 0
    endloop
  endfacet
  facet normal -0.922404 -0.382075 -0.0564749
    outer loop
      vertex -1.61047 -1.61047 2.9
      vertex -2.01096 -0.375 1.08276
      vertex -1.48492 -1.48492 0
    endloop
  endfacet
  facet normal -0.922406 -0.382072 -0.0564725
    outer loop
      vertex -2.01096 -0.375 1.08276
      vertex -1.61047 -1.61047 2.9
      vertex -1.86152 -1.00438 2.9
    endloop
  endfacet
  facet normal -0.382076 0.922404 -0.0564739
    outer loop
      vertex -0.375 2.01096 1.08276
      vertex -1.00438 1.86152 2.9
      vertex -0.375 2.12222 2.9
    endloop
  endfacet
  facet normal -0.922404 0.382075 -0.0564749
    outer loop
      vertex -2.01096 0.375 1.08276
      vertex -1.61047 1.61047 2.9
      vertex -1.48492 1.48492 0
    endloop
  endfacet
  facet normal -0.922403 0.382077 -0.0564725
    outer loop
      vertex -2.01096 0.375 1.08276
      vertex -1.48492 1.48492 0
      vertex -1.94467 0.375 0
    endloop
  endfacet
  facet normal -0.922406 0.382072 -0.0564725
    outer loop
      vertex -1.61047 1.61047 2.9
      vertex -2.01096 0.375 1.08276
      vertex -1.86152 1.00438 2.9
    endloop
  endfacet
  facet normal 0.382076 0.922404 -0.0564739
    outer loop
      vertex 1.00438 1.86152 2.9
      vertex 0.375 2.01096 1.08276
      vertex 0.375 2.12222 2.9
    endloop
  endfacet
  facet normal 0.382072 0.922406 -0.0564725
    outer loop
      vertex 1.61047 1.61047 2.9
      vertex 0.375 2.01096 1.08276
      vertex 1.00438 1.86152 2.9
    endloop
  endfacet
  facet normal 0.382075 0.922404 -0.0564749
    outer loop
      vertex 1.48492 1.48492 0
      vertex 0.375 2.01096 1.08276
      vertex 1.61047 1.61047 2.9
    endloop
  endfacet
  facet normal 0.382077 0.922403 -0.0564725
    outer loop
      vertex 0.375 2.01096 1.08276
      vertex 1.48492 1.48492 0
      vertex 0.375 1.94467 0
    endloop
  endfacet
  facet normal 0 -1 0
    outer loop
      vertex -2.01096 0.375 1.08276
      vertex -0.375 0.375 2.9
      vertex -2.12222 0.375 2.9
    endloop
  endfacet
  facet normal 0 -1 0
    outer loop
      vertex -0.375 0.375 0
      vertex -2.01096 0.375 1.08276
      vertex -1.94467 0.375 0
    endloop
  endfacet
  facet normal 0 -1 0
    outer loop
      vertex -2.01096 0.375 1.08276
      vertex -0.375 0.375 0
      vertex -0.375 0.375 2.9
    endloop
  endfacet
  facet normal 0 -1 0
    outer loop
      vertex 0.375 0.375 2.9
      vertex 2.01096 0.375 1.08276
      vertex 2.12222 0.375 2.9
    endloop
  endfacet
  facet normal 0 -1 0
    outer loop
      vertex 0.375 0.375 0
      vertex 2.01096 0.375 1.08276
      vertex 0.375 0.375 2.9
    endloop
  endfacet
  facet normal 0 -1 0
    outer loop
      vertex 2.01096 0.375 1.08276
      vertex 0.375 0.375 0
      vertex 1.94467 0.375 0
    endloop
  endfacet
  facet normal 0 1 0
    outer loop
      vertex -0.375 -0.375 2.9
      vertex -2.01096 -0.375 1.08276
      vertex -2.12222 -0.375 2.9
    endloop
  endfacet
  facet normal 0 1 -0
    outer loop
      vertex -0.375 -0.375 0
      vertex -2.01096 -0.375 1.08276
      vertex -0.375 -0.375 2.9
    endloop
  endfacet
  facet normal 0 1 0
    outer loop
      vertex -2.01096 -0.375 1.08276
      vertex -0.375 -0.375 0
      vertex -1.94467 -0.375 0
    endloop
  endfacet
  facet normal 0 1 -0
    outer loop
      vertex 2.01096 -0.375 1.08276
      vertex 0.375 -0.375 2.9
      vertex 2.12222 -0.375 2.9
    endloop
  endfacet
  facet normal 0 1 0
    outer loop
      vertex 0.375 -0.375 0
      vertex 2.01096 -0.375 1.08276
      vertex 1.94467 -0.375 0
    endloop
  endfacet
  facet normal 0 1 0
    outer loop
      vertex 2.01096 -0.375 1.08276
      vertex 0.375 -0.375 0
      vertex 0.375 -0.375 2.9
    endloop
  endfacet
  facet normal -1 0 0
    outer loop
      vertex 0.375 0.375 0
      vertex 0.375 2.01096 1.08276
      vertex 0.375 1.94467 0
    endloop
  endfacet
  facet normal -1 -0 0
    outer loop
      vertex 0.375 2.01096 1.08276
      vertex 0.375 0.375 0
      vertex 0.375 0.375 2.9
    endloop
  endfacet
  facet normal -1 0 0
    outer loop
      vertex 0.375 2.01096 1.08276
      vertex 0.375 0.375 2.9
      vertex 0.375 2.12222 2.9
    endloop
  endfacet
  facet normal -1 0 0
    outer loop
      vertex 0.375 -2.01096 1.08276
      vertex 0.375 -0.375 0
      vertex 0.375 -1.94467 0
    endloop
  endfacet
  facet normal -1 0 0
    outer loop
      vertex 0.375 -0.375 0
      vertex 0.375 -2.01096 1.08276
      vertex 0.375 -0.375 2.9
    endloop
  endfacet
  facet normal -1 -0 0
    outer loop
      vertex 0.375 -0.375 2.9
      vertex 0.375 -2.01096 1.08276
      vertex 0.375 -2.12222 2.9
    endloop
  endfacet
  facet normal 1 -0 0
    outer loop
      vertex -0.375 0.375 2.9
      vertex -0.375 2.01096 1.08276
      vertex -0.375 2.12222 2.9
    endloop
  endfacet
  facet normal 1 0 0
    outer loop
      vertex -0.375 0.375 0
      vertex -0.375 2.01096 1.08276
      vertex -0.375 0.375 2.9
    endloop
  endfacet
  facet normal 1 0 0
    outer loop
      vertex -0.375 2.01096 1.08276
      vertex -0.375 0.375 0
      vertex -0.375 1.94467 0
    endloop
  endfacet
  facet normal 1 -0 0
    outer loop
      vertex -0.375 -2.01096 1.08276
      vertex -0.375 -0.375 0
      vertex -0.375 -0.375 2.9
    endloop
  endfacet
  facet normal 1 0 0
    outer loop
      vertex -0.375 -0.375 0
      vertex -0.375 -2.01096 1.08276
      vertex -0.375 -1.94467 0
    endloop
  endfacet
  facet normal 1 0 -0
    outer loop
      vertex -0.375 -2.01096 1.08276
      vertex -0.375 -0.375 2.9
      vertex -0.375 -2.12222 2.9
    endloop
  endfacet
  facet normal 0.463407 0.802648 0.375514
    outer loop
      vertex 1.36386 4.19752 3.77791
      vertex 1.15623 3.55851 5.4
      vertex 2.50358 2.78062 5.4
    endloop
  endfacet
  facet normal 0.772177 0.514785 0.372478
    outer loop
      vertex 2.50369 2.78052 5.4
      vertex 2.95323 3.27989 3.77791
      vertex 2.50365 2.78058 5.4
    endloop
  endfacet
  facet normal 0.749811 0.544771 0.375511
    outer loop
      vertex 2.95323 3.27989 3.77791
      vertex 2.50369 2.78052 5.4
      vertex 4.03196 1.79515 3.77791
    endloop
  endfacet
  facet normal -0.846689 -0.376973 0.375512
    outer loop
      vertex -3.57062 -2.59421 3.77791
      vertex -3.02708 -2.19921 5.4
      vertex -4.31709 -0.917624 3.77791
    endloop
  endfacet
  facet normal -0.852249 -0.365249 0.37452
    outer loop
      vertex -3.02708 -2.19921 5.4
      vertex -3.57062 -2.59421 3.77791
      vertex -3.02705 -2.19928 5.4
    endloop
  endfacet
  facet normal 0 -0.924618 0.380896
    outer loop
      vertex -0.461339 -4.38936 3.77791
      vertex -0.391034 -3.72114 5.4
      vertex -0.391108 -3.72114 5.4
    endloop
  endfacet
  facet normal 0.0968807 -0.92174 0.375512
    outer loop
      vertex -0.391034 -3.72114 5.4
      vertex -0.461339 -4.38936 3.77791
      vertex 1.36386 -4.19752 3.77791
    endloop
  endfacet
  facet normal 0.104531 -0.994522 0
    outer loop
      vertex -0.461339 -4.38936 2.9
      vertex 1.36386 -4.19752 3.77791
      vertex -0.461339 -4.38936 3.77791
    endloop
  endfacet
  facet normal 0.104531 -0.994522 0
    outer loop
      vertex 1.36386 -4.19752 3.77791
      vertex -0.461339 -4.38936 2.9
      vertex 1.36386 -4.19752 2.9
    endloop
  endfacet
  facet normal 0.809016 -0.587786 0
    outer loop
      vertex 2.95323 -3.27989 3.77791
      vertex 4.03196 -1.79515 2.9
      vertex 4.03196 -1.79515 3.77791
    endloop
  endfacet
  facet normal 0.809016 -0.587786 0
    outer loop
      vertex 4.03196 -1.79515 2.9
      vertex 2.95323 -3.27989 3.77791
      vertex 2.95323 -3.27989 2.9
    endloop
  endfacet
  facet normal 0.500003 0.866024 -0
    outer loop
      vertex 2.95323 3.27989 2.9
      vertex 1.36386 4.19752 3.77791
      vertex 2.95323 3.27989 3.77791
    endloop
  endfacet
  facet normal 0.500003 0.866024 0
    outer loop
      vertex 1.36386 4.19752 3.77791
      vertex 2.95323 3.27989 2.9
      vertex 1.36386 4.19752 2.9
    endloop
  endfacet
  facet normal 0.749811 -0.54477 0.375512
    outer loop
      vertex 3.41816 -1.52186 5.4
      vertex 2.50369 -2.78052 5.4
      vertex 4.03196 -1.79515 3.77791
    endloop
  endfacet
  facet normal 0.772177 -0.514785 0.372478
    outer loop
      vertex 2.95323 -3.27989 3.77791
      vertex 2.50369 -2.78052 5.4
      vertex 2.50365 -2.78058 5.4
    endloop
  endfacet
  facet normal 0.749811 -0.544771 0.375511
    outer loop
      vertex 2.50369 -2.78052 5.4
      vertex 2.95323 -3.27989 3.77791
      vertex 4.03196 -1.79515 3.77791
    endloop
  endfacet
  facet normal 0.919644 0.131378 0.370128
    outer loop
      vertex 3.41817 1.52179 5.4
      vertex 4.03196 1.79515 3.77791
      vertex 3.41816 1.52186 5.4
    endloop
  endfacet
  facet normal 0.906564 0.192696 0.375513
    outer loop
      vertex 4.03196 1.79515 3.77791
      vertex 3.41817 1.52179 5.4
      vertex 4.41353 0 3.77791
    endloop
  endfacet
  facet normal 0.906565 0.192698 0.37551
    outer loop
      vertex 4.41353 0 3.77791
      vertex 3.41817 1.52179 5.4
      vertex 3.74164 0 5.4
    endloop
  endfacet
  facet normal 0.919644 -0.131378 0.370128
    outer loop
      vertex 4.03196 -1.79515 3.77791
      vertex 3.41817 -1.52179 5.4
      vertex 3.41816 -1.52186 5.4
    endloop
  endfacet
  facet normal 0.906564 -0.192696 0.375513
    outer loop
      vertex 3.41817 -1.52179 5.4
      vertex 4.03196 -1.79515 3.77791
      vertex 4.41353 0 3.77791
    endloop
  endfacet
  facet normal -0.30902 0.951056 0
    outer loop
      vertex -0.461339 4.38936 2.9
      vertex -2.20677 3.82223 3.77791
      vertex -0.461339 4.38936 3.77791
    endloop
  endfacet
  facet normal -0.30902 0.951056 0
    outer loop
      vertex -2.20677 3.82223 3.77791
      vertex -0.461339 4.38936 2.9
      vertex -2.20677 3.82223 2.9
    endloop
  endfacet
  facet normal -0.620163 0.688758 0.375513
    outer loop
      vertex -3.57062 2.59421 3.77791
      vertex -3.02699 2.19933 5.4
      vertex -2.20677 3.82223 3.77791
    endloop
  endfacet
  facet normal -0.594075 0.71289 0.372644
    outer loop
      vertex -3.02699 2.19933 5.4
      vertex -3.57062 2.59421 3.77791
      vertex -3.02705 2.19928 5.4
    endloop
  endfacet
  facet normal 0.459893 0.804812 0.375201
    outer loop
      vertex 2.95323 3.27989 3.77791
      vertex 2.50358 2.78062 5.4
      vertex 2.50365 2.78058 5.4
    endloop
  endfacet
  facet normal 0.463412 0.802647 0.37551
    outer loop
      vertex 2.50358 2.78062 5.4
      vertex 2.95323 3.27989 3.77791
      vertex 1.36386 4.19752 3.77791
    endloop
  endfacet
  facet normal -0.669132 -0.743144 0
    outer loop
      vertex -3.57062 -2.59421 2.9
      vertex -2.20677 -3.82223 3.77791
      vertex -3.57062 -2.59421 3.77791
    endloop
  endfacet
  facet normal -0.669132 -0.743144 -0
    outer loop
      vertex -2.20677 -3.82223 3.77791
      vertex -3.57062 -2.59421 2.9
      vertex -2.20677 -3.82223 2.9
    endloop
  endfacet
  facet normal 0.906565 -0.192698 0.37551
    outer loop
      vertex 3.74164 0 5.4
      vertex 3.41817 -1.52179 5.4
      vertex 4.41353 0 3.77791
    endloop
  endfacet
  facet normal -0.2864 -0.881458 0.375509
    outer loop
      vertex -1.87082 -3.24036 5.4
      vertex -2.20677 -3.82223 3.77791
      vertex -0.391178 -3.72112 5.4
    endloop
  endfacet
  facet normal -0.286404 -0.881454 0.375514
    outer loop
      vertex -0.461339 -4.38936 3.77791
      vertex -0.391178 -3.72112 5.4
      vertex -2.20677 -3.82223 3.77791
    endloop
  endfacet
  facet normal -0.254365 -0.890277 0.377763
    outer loop
      vertex -0.391178 -3.72112 5.4
      vertex -0.461339 -4.38936 3.77791
      vertex -0.391108 -3.72114 5.4
    endloop
  endfacet
  facet normal 0.749811 0.54477 0.375512
    outer loop
      vertex 4.03196 1.79515 3.77791
      vertex 2.50369 2.78052 5.4
      vertex 3.41816 1.52186 5.4
    endloop
  endfacet
  facet normal 0.809016 0.587786 0
    outer loop
      vertex 4.03196 1.79515 3.77791
      vertex 2.95323 3.27989 2.9
      vertex 2.95323 3.27989 3.77791
    endloop
  endfacet
  facet normal 0.809016 0.587786 0
    outer loop
      vertex 2.95323 3.27989 2.9
      vertex 4.03196 1.79515 3.77791
      vertex 4.03196 1.79515 2.9
    endloop
  endfacet
  facet normal 0.463412 -0.802647 0.37551
    outer loop
      vertex 2.95323 -3.27989 3.77791
      vertex 2.50358 -2.78062 5.4
      vertex 1.36386 -4.19752 3.77791
    endloop
  endfacet
  facet normal 0.459893 -0.804812 0.375201
    outer loop
      vertex 2.50358 -2.78062 5.4
      vertex 2.95323 -3.27989 3.77791
      vertex 2.50365 -2.78058 5.4
    endloop
  endfacet
  facet normal 0.463407 -0.802648 0.375514
    outer loop
      vertex 2.50358 -2.78062 5.4
      vertex 1.15623 -3.55851 5.4
      vertex 1.36386 -4.19752 3.77791
    endloop
  endfacet
  facet normal 0.0968823 0.921739 0.375513
    outer loop
      vertex 1.36386 4.19752 3.77791
      vertex -0.391034 3.72114 5.4
      vertex 1.15623 3.55851 5.4
    endloop
  endfacet
  facet normal 0.0968807 0.92174 0.375512
    outer loop
      vertex -0.461339 4.38936 3.77791
      vertex -0.391034 3.72114 5.4
      vertex 1.36386 4.19752 3.77791
    endloop
  endfacet
  facet normal 0 0.924618 0.380896
    outer loop
      vertex -0.391034 3.72114 5.4
      vertex -0.461339 4.38936 3.77791
      vertex -0.391108 3.72114 5.4
    endloop
  endfacet
  facet normal -0.913544 0.406739 0
    outer loop
      vertex -4.31709 0.917624 2.9
      vertex -3.57062 2.59421 3.77791
      vertex -3.57062 2.59421 2.9
    endloop
  endfacet
  facet normal -0.913544 0.406739 0
    outer loop
      vertex -3.57062 2.59421 3.77791
      vertex -4.31709 0.917624 2.9
      vertex -4.31709 0.917624 3.77791
    endloop
  endfacet
  facet normal -0.30902 -0.951056 0
    outer loop
      vertex -2.20677 -3.82223 2.9
      vertex -0.461339 -4.38936 3.77791
      vertex -2.20677 -3.82223 3.77791
    endloop
  endfacet
  facet normal -0.30902 -0.951056 -0
    outer loop
      vertex -0.461339 -4.38936 3.77791
      vertex -2.20677 -3.82223 2.9
      vertex -0.461339 -4.38936 2.9
    endloop
  endfacet
  facet normal -0.620166 -0.688757 0.37551
    outer loop
      vertex -1.87082 -3.24036 5.4
      vertex -3.02699 -2.19933 5.4
      vertex -2.20677 -3.82223 3.77791
    endloop
  endfacet
  facet normal -0.594075 -0.71289 0.372644
    outer loop
      vertex -3.57062 -2.59421 3.77791
      vertex -3.02699 -2.19933 5.4
      vertex -3.02705 -2.19928 5.4
    endloop
  endfacet
  facet normal -0.620163 -0.688758 0.375513
    outer loop
      vertex -3.02699 -2.19933 5.4
      vertex -3.57062 -2.59421 3.77791
      vertex -2.20677 -3.82223 3.77791
    endloop
  endfacet
  facet normal 0.500003 -0.866024 0
    outer loop
      vertex 1.36386 -4.19752 2.9
      vertex 2.95323 -3.27989 3.77791
      vertex 1.36386 -4.19752 3.77791
    endloop
  endfacet
  facet normal 0.500003 -0.866024 0
    outer loop
      vertex 2.95323 -3.27989 3.77791
      vertex 1.36386 -4.19752 2.9
      vertex 2.95323 -3.27989 2.9
    endloop
  endfacet
  facet normal -0.2864 0.881458 0.375509
    outer loop
      vertex -0.391178 3.72112 5.4
      vertex -2.20677 3.82223 3.77791
      vertex -1.87082 3.24036 5.4
    endloop
  endfacet
  facet normal -0.254365 0.890277 0.377763
    outer loop
      vertex -0.461339 4.38936 3.77791
      vertex -0.391178 3.72112 5.4
      vertex -0.391108 3.72114 5.4
    endloop
  endfacet
  facet normal -0.286404 0.881454 0.375514
    outer loop
      vertex -0.391178 3.72112 5.4
      vertex -0.461339 4.38936 3.77791
      vertex -2.20677 3.82223 3.77791
    endloop
  endfacet
  facet normal -0.669132 0.743144 0
    outer loop
      vertex -2.20677 3.82223 2.9
      vertex -3.57062 2.59421 3.77791
      vertex -2.20677 3.82223 3.77791
    endloop
  endfacet
  facet normal -0.669132 0.743144 0
    outer loop
      vertex -3.57062 2.59421 3.77791
      vertex -2.20677 3.82223 2.9
      vertex -3.57062 2.59421 2.9
    endloop
  endfacet
  facet normal 0.104531 0.994522 -0
    outer loop
      vertex 1.36386 4.19752 2.9
      vertex -0.461339 4.38936 3.77791
      vertex 1.36386 4.19752 3.77791
    endloop
  endfacet
  facet normal 0.104531 0.994522 0
    outer loop
      vertex -0.461339 4.38936 3.77791
      vertex 1.36386 4.19752 2.9
      vertex -0.461339 4.38936 2.9
    endloop
  endfacet
  facet normal 0.978148 -0.207911 0
    outer loop
      vertex 4.03196 -1.79515 3.77791
      vertex 4.41353 0 2.9
      vertex 4.41353 0 3.77791
    endloop
  endfacet
  facet normal 0.978148 -0.207911 0
    outer loop
      vertex 4.41353 0 2.9
      vertex 4.03196 -1.79515 3.77791
      vertex 4.03196 -1.79515 2.9
    endloop
  endfacet
  facet normal -0.913544 -0.406739 0
    outer loop
      vertex -3.57062 -2.59421 2.9
      vertex -4.31709 -0.917624 3.77791
      vertex -4.31709 -0.917624 2.9
    endloop
  endfacet
  facet normal -0.913544 -0.406739 0
    outer loop
      vertex -4.31709 -0.917624 3.77791
      vertex -3.57062 -2.59421 2.9
      vertex -3.57062 -2.59421 3.77791
    endloop
  endfacet
  facet normal -0.846689 -0.376973 0.375511
    outer loop
      vertex -3.65988 -0.77793 5.4
      vertex -4.31709 -0.917624 3.77791
      vertex -3.02708 -2.19921 5.4
    endloop
  endfacet
  facet normal 0.0968823 -0.921739 0.375513
    outer loop
      vertex 1.15623 -3.55851 5.4
      vertex -0.391034 -3.72114 5.4
      vertex 1.36386 -4.19752 3.77791
    endloop
  endfacet
  facet normal -0.620166 0.688757 0.37551
    outer loop
      vertex -2.20677 3.82223 3.77791
      vertex -3.02699 2.19933 5.4
      vertex -1.87082 3.24036 5.4
    endloop
  endfacet
  facet normal -0.926818 0 0.375512
    outer loop
      vertex -4.31709 0.917624 3.77791
      vertex -3.65988 -0.77793 5.4
      vertex -3.65988 0.77793 5.4
    endloop
  endfacet
  facet normal -0.926818 0 0.375512
    outer loop
      vertex -3.65988 -0.77793 5.4
      vertex -4.31709 0.917624 3.77791
      vertex -4.31709 -0.917624 3.77791
    endloop
  endfacet
  facet normal -1 0 0
    outer loop
      vertex -4.31709 -0.917624 2.9
      vertex -4.31709 0.917624 3.77791
      vertex -4.31709 0.917624 2.9
    endloop
  endfacet
  facet normal -1 -0 0
    outer loop
      vertex -4.31709 0.917624 3.77791
      vertex -4.31709 -0.917624 2.9
      vertex -4.31709 -0.917624 3.77791
    endloop
  endfacet
  facet normal 0.978148 0.207911 0
    outer loop
      vertex 4.41353 0 3.77791
      vertex 4.03196 1.79515 2.9
      vertex 4.03196 1.79515 3.77791
    endloop
  endfacet
  facet normal 0.978148 0.207911 0
    outer loop
      vertex 4.03196 1.79515 2.9
      vertex 4.41353 0 3.77791
      vertex 4.41353 0 2.9
    endloop
  endfacet
  facet normal -0.852249 0.365249 0.37452
    outer loop
      vertex -3.57062 2.59421 3.77791
      vertex -3.02708 2.19921 5.4
      vertex -3.02705 2.19928 5.4
    endloop
  endfacet
  facet normal -0.846689 0.376973 0.375512
    outer loop
      vertex -3.02708 2.19921 5.4
      vertex -3.57062 2.59421 3.77791
      vertex -4.31709 0.917624 3.77791
    endloop
  endfacet
  facet normal -0.846689 0.376973 0.375511
    outer loop
      vertex -3.02708 2.19921 5.4
      vertex -4.31709 0.917624 3.77791
      vertex -3.65988 0.77793 5.4
    endloop
  endfacet
  facet normal 0 0 -1
    outer loop
      vertex -2.12222 -0.375 2.9
      vertex -0.375 0.375 2.9
      vertex -0.375 -0.375 2.9
    endloop
  endfacet
  facet normal -0 0 -1
    outer loop
      vertex -0.375 0.375 2.9
      vertex -2.12222 -0.375 2.9
      vertex -2.12222 0.375 2.9
    endloop
  endfacet
  facet normal 0 0 -1
    outer loop
      vertex 0.375 -0.375 2.9
      vertex 2.12222 0.375 2.9
      vertex 2.12222 -0.375 2.9
    endloop
  endfacet
  facet normal -0 0 -1
    outer loop
      vertex 2.12222 0.375 2.9
      vertex 0.375 -0.375 2.9
      vertex 0.375 0.375 2.9
    endloop
  endfacet
  facet normal 0 0 -1
    outer loop
      vertex 2.12222 -0.375 2.9
      vertex 4.41353 0 2.9
      vertex 4.03196 -1.79515 2.9
    endloop
  endfacet
  facet normal 0 0 -1
    outer loop
      vertex 1.61047 -1.61047 2.9
      vertex 4.03196 -1.79515 2.9
      vertex 2.95323 -3.27989 2.9
    endloop
  endfacet
  facet normal 0 0 -1
    outer loop
      vertex 2.12222 0.375 2.9
      vertex 4.41353 0 2.9
      vertex 2.12222 -0.375 2.9
    endloop
  endfacet
  facet normal 0 0 -1
    outer loop
      vertex 4.41353 0 2.9
      vertex 2.12222 0.375 2.9
      vertex 4.03196 1.79515 2.9
    endloop
  endfacet
  facet normal 0 0 -1
    outer loop
      vertex 4.03196 -1.79515 2.9
      vertex 1.86152 -1.00438 2.9
      vertex 2.12222 -0.375 2.9
    endloop
  endfacet
  facet normal 0 0 -1
    outer loop
      vertex 4.03196 -1.79515 2.9
      vertex 1.61047 -1.61047 2.9
      vertex 1.86152 -1.00438 2.9
    endloop
  endfacet
  facet normal 0 0 -1
    outer loop
      vertex 1.00438 -1.86152 2.9
      vertex 2.95323 -3.27989 2.9
      vertex 1.36386 -4.19752 2.9
    endloop
  endfacet
  facet normal 0 0 -1
    outer loop
      vertex 2.95323 -3.27989 2.9
      vertex 1.00438 -1.86152 2.9
      vertex 1.61047 -1.61047 2.9
    endloop
  endfacet
  facet normal 0 0 -1
    outer loop
      vertex 1.36386 -4.19752 2.9
      vertex 0.375 -2.12222 2.9
      vertex 1.00438 -1.86152 2.9
    endloop
  endfacet
  facet normal 0 0 -1
    outer loop
      vertex -0.375 -0.375 2.9
      vertex 0.375 -0.375 2.9
      vertex 0.375 -2.12222 2.9
    endloop
  endfacet
  facet normal 0 0 -1
    outer loop
      vertex 0.375 -0.375 2.9
      vertex -0.375 -0.375 2.9
      vertex 0.375 0.375 2.9
    endloop
  endfacet
  facet normal 0 0 -1
    outer loop
      vertex -0.375 -0.375 2.9
      vertex 0.375 -2.12222 2.9
      vertex -0.375 -2.12222 2.9
    endloop
  endfacet
  facet normal 0 0 -1
    outer loop
      vertex -0.461339 -4.38936 2.9
      vertex 0.375 -2.12222 2.9
      vertex 1.36386 -4.19752 2.9
    endloop
  endfacet
  facet normal -0 0 -1
    outer loop
      vertex 0.375 -2.12222 2.9
      vertex -0.461339 -4.38936 2.9
      vertex -0.375 -2.12222 2.9
    endloop
  endfacet
  facet normal 0 0 -1
    outer loop
      vertex -2.20677 -3.82223 2.9
      vertex -0.375 -2.12222 2.9
      vertex -0.461339 -4.38936 2.9
    endloop
  endfacet
  facet normal -0 0 -1
    outer loop
      vertex -0.375 -2.12222 2.9
      vertex -2.20677 -3.82223 2.9
      vertex -1.00438 -1.86152 2.9
    endloop
  endfacet
  facet normal -0 0 -1
    outer loop
      vertex -1.00438 -1.86152 2.9
      vertex -2.20677 -3.82223 2.9
      vertex -1.61047 -1.61047 2.9
    endloop
  endfacet
  facet normal 0 0 -1
    outer loop
      vertex -3.57062 -2.59421 2.9
      vertex -1.61047 -1.61047 2.9
      vertex -2.20677 -3.82223 2.9
    endloop
  endfacet
  facet normal 0 0 -1
    outer loop
      vertex -4.31709 -0.917624 2.9
      vertex -1.86152 -1.00438 2.9
      vertex -3.57062 -2.59421 2.9
    endloop
  endfacet
  facet normal -0 0 -1
    outer loop
      vertex -1.61047 -1.61047 2.9
      vertex -3.57062 -2.59421 2.9
      vertex -1.86152 -1.00438 2.9
    endloop
  endfacet
  facet normal 0 0 -1
    outer loop
      vertex 1.86152 1.00438 2.9
      vertex 4.03196 1.79515 2.9
      vertex 2.12222 0.375 2.9
    endloop
  endfacet
  facet normal 0 0 -1
    outer loop
      vertex 1.61047 1.61047 2.9
      vertex 4.03196 1.79515 2.9
      vertex 1.86152 1.00438 2.9
    endloop
  endfacet
  facet normal -0 0 -1
    outer loop
      vertex 4.03196 1.79515 2.9
      vertex 1.61047 1.61047 2.9
      vertex 2.95323 3.27989 2.9
    endloop
  endfacet
  facet normal 0 0 -1
    outer loop
      vertex 1.00438 1.86152 2.9
      vertex 2.95323 3.27989 2.9
      vertex 1.61047 1.61047 2.9
    endloop
  endfacet
  facet normal -0 0 -1
    outer loop
      vertex 2.95323 3.27989 2.9
      vertex 1.00438 1.86152 2.9
      vertex 1.36386 4.19752 2.9
    endloop
  endfacet
  facet normal 0 0 -1
    outer loop
      vertex 0.375 2.12222 2.9
      vertex 1.36386 4.19752 2.9
      vertex 1.00438 1.86152 2.9
    endloop
  endfacet
  facet normal 0 0 -1
    outer loop
      vertex -0.375 0.375 2.9
      vertex 0.375 0.375 2.9
      vertex -0.375 -0.375 2.9
    endloop
  endfacet
  facet normal 0 0 -1
    outer loop
      vertex 0.375 0.375 2.9
      vertex -0.375 0.375 2.9
      vertex 0.375 2.12222 2.9
    endloop
  endfacet
  facet normal 0 0 -1
    outer loop
      vertex -0.375 2.12222 2.9
      vertex 0.375 2.12222 2.9
      vertex -0.375 0.375 2.9
    endloop
  endfacet
  facet normal 0 0 -1
    outer loop
      vertex -0.461339 4.38936 2.9
      vertex 0.375 2.12222 2.9
      vertex -0.375 2.12222 2.9
    endloop
  endfacet
  facet normal 0 0 -1
    outer loop
      vertex 0.375 2.12222 2.9
      vertex -0.461339 4.38936 2.9
      vertex 1.36386 4.19752 2.9
    endloop
  endfacet
  facet normal 0 0 -1
    outer loop
      vertex -2.20677 3.82223 2.9
      vertex -0.375 2.12222 2.9
      vertex -1.00438 1.86152 2.9
    endloop
  endfacet
  facet normal 0 0 -1
    outer loop
      vertex -2.20677 3.82223 2.9
      vertex -1.00438 1.86152 2.9
      vertex -1.61047 1.61047 2.9
    endloop
  endfacet
  facet normal 0 0 -1
    outer loop
      vertex -3.57062 2.59421 2.9
      vertex -1.61047 1.61047 2.9
      vertex -1.86152 1.00438 2.9
    endloop
  endfacet
  facet normal 0 0 -1
    outer loop
      vertex -4.31709 0.917624 2.9
      vertex -1.86152 1.00438 2.9
      vertex -2.12222 0.375 2.9
    endloop
  endfacet
  facet normal 0 0 -1
    outer loop
      vertex -0.375 2.12222 2.9
      vertex -2.20677 3.82223 2.9
      vertex -0.461339 4.38936 2.9
    endloop
  endfacet
  facet normal 0 0 -1
    outer loop
      vertex -1.86152 -1.00438 2.9
      vertex -4.31709 -0.917624 2.9
      vertex -2.12222 -0.375 2.9
    endloop
  endfacet
  facet normal -0 0 -1
    outer loop
      vertex -2.12222 -0.375 2.9
      vertex -4.31709 -0.917624 2.9
      vertex -2.12222 0.375 2.9
    endloop
  endfacet
  facet normal 0 0 -1
    outer loop
      vertex -1.61047 1.61047 2.9
      vertex -3.57062 2.59421 2.9
      vertex -2.20677 3.82223 2.9
    endloop
  endfacet
  facet normal 0 0 -1
    outer loop
      vertex -4.31709 0.917624 2.9
      vertex -2.12222 0.375 2.9
      vertex -4.31709 -0.917624 2.9
    endloop
  endfacet
  facet normal -0 0 -1
    outer loop
      vertex -1.86152 1.00438 2.9
      vertex -4.31709 0.917624 2.9
      vertex -3.57062 2.59421 2.9
    endloop
  endfacet
  facet normal 0 0 1
    outer loop
      vertex 3.41817 1.52179 5.4
      vertex 3.41817 -1.52179 5.4
      vertex 3.74164 0 5.4
    endloop
  endfacet
  facet normal 0 0 1
    outer loop
      vertex 2.50369 2.78052 5.4
      vertex 3.41817 1.52179 5.4
      vertex 3.41816 1.52186 5.4
    endloop
  endfacet
  facet normal 0 0 1
    outer loop
      vertex 3.41817 1.52179 5.4
      vertex 2.50369 2.78052 5.4
      vertex 3.41817 -1.52179 5.4
    endloop
  endfacet
  facet normal 0 0 1
    outer loop
      vertex 2.50369 -2.78052 5.4
      vertex 3.41817 -1.52179 5.4
      vertex 2.50369 2.78052 5.4
    endloop
  endfacet
  facet normal 0 0 1
    outer loop
      vertex 3.41817 -1.52179 5.4
      vertex 2.50369 -2.78052 5.4
      vertex 3.41816 -1.52186 5.4
    endloop
  endfacet
  facet normal 0 0 1
    outer loop
      vertex 2.50358 2.78062 5.4
      vertex 2.50369 2.78052 5.4
      vertex 2.50365 2.78058 5.4
    endloop
  endfacet
  facet normal 0 0 1
    outer loop
      vertex 2.50369 2.78052 5.4
      vertex 2.50358 2.78062 5.4
      vertex 2.50369 -2.78052 5.4
    endloop
  endfacet
  facet normal 0 0 1
    outer loop
      vertex 2.50358 -2.78062 5.4
      vertex 2.50369 -2.78052 5.4
      vertex 2.50358 2.78062 5.4
    endloop
  endfacet
  facet normal 0 0 1
    outer loop
      vertex 2.50369 -2.78052 5.4
      vertex 2.50358 -2.78062 5.4
      vertex 2.50365 -2.78058 5.4
    endloop
  endfacet
  facet normal 0 0 1
    outer loop
      vertex 1.15623 3.55851 5.4
      vertex 2.50358 -2.78062 5.4
      vertex 2.50358 2.78062 5.4
    endloop
  endfacet
  facet normal 0 0 1
    outer loop
      vertex 1.15623 3.55851 5.4
      vertex 1.15623 -3.55851 5.4
      vertex 2.50358 -2.78062 5.4
    endloop
  endfacet
  facet normal 0 0 1
    outer loop
      vertex -0.391034 3.72114 5.4
      vertex 1.15623 -3.55851 5.4
      vertex 1.15623 3.55851 5.4
    endloop
  endfacet
  facet normal 0 0 1
    outer loop
      vertex -0.391034 3.72114 5.4
      vertex -0.391034 -3.72114 5.4
      vertex 1.15623 -3.55851 5.4
    endloop
  endfacet
  facet normal 0 0 1
    outer loop
      vertex -0.391178 3.72112 5.4
      vertex -0.391034 3.72114 5.4
      vertex -0.391108 3.72114 5.4
    endloop
  endfacet
  facet normal 0 0 1
    outer loop
      vertex -0.391034 3.72114 5.4
      vertex -0.391178 3.72112 5.4
      vertex -0.391034 -3.72114 5.4
    endloop
  endfacet
  facet normal -0 0 1
    outer loop
      vertex -0.391178 -3.72112 5.4
      vertex -0.391034 -3.72114 5.4
      vertex -0.391178 3.72112 5.4
    endloop
  endfacet
  facet normal 0 0 1
    outer loop
      vertex -0.391034 -3.72114 5.4
      vertex -0.391178 -3.72112 5.4
      vertex -0.391108 -3.72114 5.4
    endloop
  endfacet
  facet normal -0 0 1
    outer loop
      vertex -1.87082 3.24036 5.4
      vertex -0.391178 -3.72112 5.4
      vertex -0.391178 3.72112 5.4
    endloop
  endfacet
  facet normal 0 0 1
    outer loop
      vertex -1.87082 3.24036 5.4
      vertex -1.87082 -3.24036 5.4
      vertex -0.391178 -3.72112 5.4
    endloop
  endfacet
  facet normal -0 0 1
    outer loop
      vertex -3.02699 2.19933 5.4
      vertex -1.87082 -3.24036 5.4
      vertex -1.87082 3.24036 5.4
    endloop
  endfacet
  facet normal 0 0 1
    outer loop
      vertex -3.02699 2.19933 5.4
      vertex -3.02699 -2.19933 5.4
      vertex -1.87082 -3.24036 5.4
    endloop
  endfacet
  facet normal 0 0 1
    outer loop
      vertex -3.02708 2.19921 5.4
      vertex -3.02699 2.19933 5.4
      vertex -3.02705 2.19928 5.4
    endloop
  endfacet
  facet normal 0 0 1
    outer loop
      vertex -3.02699 2.19933 5.4
      vertex -3.02708 2.19921 5.4
      vertex -3.02699 -2.19933 5.4
    endloop
  endfacet
  facet normal -0 0 1
    outer loop
      vertex -3.02708 -2.19921 5.4
      vertex -3.02699 -2.19933 5.4
      vertex -3.02708 2.19921 5.4
    endloop
  endfacet
  facet normal 0 0 1
    outer loop
      vertex -3.02699 -2.19933 5.4
      vertex -3.02708 -2.19921 5.4
      vertex -3.02705 -2.19928 5.4
    endloop
  endfacet
  facet normal -0 0 1
    outer loop
      vertex -3.65988 0.77793 5.4
      vertex -3.02708 -2.19921 5.4
      vertex -3.02708 2.19921 5.4
    endloop
  endfacet
  facet normal 0 0 1
    outer loop
      vertex -3.02708 -2.19921 5.4
      vertex -3.65988 0.77793 5.4
      vertex -3.65988 -0.77793 5.4
    endloop
  endfacet
endsolid OpenSCAD_Model
