solid OpenSCAD_Model
  facet normal -0.707107 -0.707107 0
    outer loop
      vertex 30 54 0
      vertex 18 66 15
      vertex 18 66 0
    endloop
  endfacet
  facet normal -0.707107 -0.707107 0
    outer loop
      vertex 18 66 15
      vertex 30 54 0
      vertex 30 54 15
    endloop
  endfacet
  facet normal -0.707107 0.707107 0
    outer loop
      vertex 18 18 0
      vertex 30 30 15
      vertex 30 30 0
    endloop
  endfacet
  facet normal -0.707107 0.707107 0
    outer loop
      vertex 30 30 15
      vertex 18 18 0
      vertex 18 18 15
    endloop
  endfacet
  facet normal 0.707107 -0.707107 0
    outer loop
      vertex 6 54 15
      vertex 18 66 0
      vertex 18 66 15
    endloop
  endfacet
  facet normal 0.707107 -0.707107 0
    outer loop
      vertex 18 66 0
      vertex 6 54 15
      vertex 6 54 0
    endloop
  endfacet
  facet normal 1 -0 0
    outer loop
      vertex 6 30 15
      vertex 6 54 0
      vertex 6 54 15
    endloop
  endfacet
  facet normal 1 0 0
    outer loop
      vertex 6 54 0
      vertex 6 30 15
      vertex 6 30 0
    endloop
  endfacet
  facet normal 0.707107 0.707107 0
    outer loop
      vertex 18 18 15
      vertex 6 30 0
      vertex 6 30 15
    endloop
  endfacet
  facet normal 0.707107 0.707107 0
    outer loop
      vertex 6 30 0
      vertex 18 18 15
      vertex 18 18 0
    endloop
  endfacet
  facet normal 0 0 -1
    outer loop
      vertex 86 0 0
      vertex 80 30 0
      vertex 86 62 0
    endloop
  endfacet
  facet normal 0 0 -1
    outer loop
      vertex 77.4722 10.85 0
      vertex 86 0 0
      vertex 77.7 10 0
    endloop
  endfacet
  facet normal 0 0 -1
    outer loop
      vertex 86 0 0
      vertex 77.4722 9.15 0
      vertex 77.7 10 0
    endloop
  endfacet
  facet normal 0 0 -1
    outer loop
      vertex 86 0 0
      vertex 76.85 8.52776 0
      vertex 77.4722 9.15 0
    endloop
  endfacet
  facet normal 0 0 -1
    outer loop
      vertex 86 0 0
      vertex 76 8.3 0
      vertex 76.85 8.52776 0
    endloop
  endfacet
  facet normal 0 0 -1
    outer loop
      vertex 86 0 0
      vertex 75.15 8.52776 0
      vertex 76 8.3 0
    endloop
  endfacet
  facet normal 0 0 -1
    outer loop
      vertex 55 5 0
      vertex 74.3 10 0
      vertex 74.5278 9.15 0
    endloop
  endfacet
  facet normal 0 0 -1
    outer loop
      vertex 74.3 10 0
      vertex 67 17 0
      vertex 68 18 0
    endloop
  endfacet
  facet normal -0 0 -1
    outer loop
      vertex 74.3 10 0
      vertex 55 5 0
      vertex 67 17 0
    endloop
  endfacet
  facet normal -0 0 -1
    outer loop
      vertex 75.15 8.52776 0
      vertex 55 5 0
      vertex 74.5278 9.15 0
    endloop
  endfacet
  facet normal 0 0 -1
    outer loop
      vertex 86 0 0
      vertex 55 5 0
      vertex 75.15 8.52776 0
    endloop
  endfacet
  facet normal 0 0 -1
    outer loop
      vertex 86 0 0
      vertex 31 5 0
      vertex 55 5 0
    endloop
  endfacet
  facet normal 0 0 -1
    outer loop
      vertex 11.7 10 0
      vertex 19 17 0
      vertex 31 5 0
    endloop
  endfacet
  facet normal 0 0 -1
    outer loop
      vertex 11.4722 10.85 0
      vertex 19 17 0
      vertex 11.7 10 0
    endloop
  endfacet
  facet normal 0 0 -1
    outer loop
      vertex 31 5 0
      vertex 11.4722 9.15 0
      vertex 11.7 10 0
    endloop
  endfacet
  facet normal 0 0 -1
    outer loop
      vertex 31 5 0
      vertex 10.85 8.52776 0
      vertex 11.4722 9.15 0
    endloop
  endfacet
  facet normal 0 0 -1
    outer loop
      vertex 0 0 0
      vertex 10.85 8.52776 0
      vertex 31 5 0
    endloop
  endfacet
  facet normal 0 0 -1
    outer loop
      vertex 0 62 0
      vertex 6 30 0
      vertex 0 0 0
    endloop
  endfacet
  facet normal -0 0 -1
    outer loop
      vertex 8.52776 10.85 0
      vertex 0 0 0
      vertex 6 30 0
    endloop
  endfacet
  facet normal -0 0 -1
    outer loop
      vertex 8.52776 9.15 0
      vertex 0 0 0
      vertex 8.3 10 0
    endloop
  endfacet
  facet normal -0 0 -1
    outer loop
      vertex 9.15 8.52776 0
      vertex 0 0 0
      vertex 8.52776 9.15 0
    endloop
  endfacet
  facet normal -0 0 -1
    outer loop
      vertex 10 8.3 0
      vertex 0 0 0
      vertex 9.15 8.52776 0
    endloop
  endfacet
  facet normal 0 0 -1
    outer loop
      vertex 10.85 8.52776 0
      vertex 0 0 0
      vertex 10 8.3 0
    endloop
  endfacet
  facet normal 0 0 -1
    outer loop
      vertex 0 0 0
      vertex 31 5 0
      vertex 86 0 0
    endloop
  endfacet
  facet normal 0 0 -1
    outer loop
      vertex 80 54 0
      vertex 86 62 0
      vertex 80 30 0
    endloop
  endfacet
  facet normal 0 0 -1
    outer loop
      vertex 80 54 0
      vertex 76 62 0
      vertex 86 62 0
    endloop
  endfacet
  facet normal 0 0 -1
    outer loop
      vertex 76 62 0
      vertex 68 66 0
      vertex 76 72 0
    endloop
  endfacet
  facet normal 0 0 -1
    outer loop
      vertex 68 66 0
      vertex 76 62 0
      vertex 80 54 0
    endloop
  endfacet
  facet normal 0 0 -1
    outer loop
      vertex 86 0 0
      vertex 77.4722 10.85 0
      vertex 80 30 0
    endloop
  endfacet
  facet normal 0 0 -1
    outer loop
      vertex 76.85 11.4722 0
      vertex 80 30 0
      vertex 77.4722 10.85 0
    endloop
  endfacet
  facet normal 0 0 -1
    outer loop
      vertex 76 11.7 0
      vertex 80 30 0
      vertex 76.85 11.4722 0
    endloop
  endfacet
  facet normal 0 0 -1
    outer loop
      vertex 68 18 0
      vertex 76 11.7 0
      vertex 75.15 11.4722 0
    endloop
  endfacet
  facet normal 0 0 -1
    outer loop
      vertex 68 18 0
      vertex 75.15 11.4722 0
      vertex 74.5278 10.85 0
    endloop
  endfacet
  facet normal 0 0 -1
    outer loop
      vertex 76 11.7 0
      vertex 68 18 0
      vertex 80 30 0
    endloop
  endfacet
  facet normal 0 0 -1
    outer loop
      vertex 68 18 0
      vertex 74.5278 10.85 0
      vertex 74.3 10 0
    endloop
  endfacet
  facet normal 0 0 -1
    outer loop
      vertex 86 134 0
      vertex 77.4722 123.15 0
      vertex 77.7 124 0
    endloop
  endfacet
  facet normal 0 0 -1
    outer loop
      vertex 80 104 0
      vertex 76.85 122.528 0
      vertex 77.4722 123.15 0
    endloop
  endfacet
  facet normal 0 0 -1
    outer loop
      vertex 80 104 0
      vertex 76 122.3 0
      vertex 76.85 122.528 0
    endloop
  endfacet
  facet normal 0 0 -1
    outer loop
      vertex 68 116 0
      vertex 76 122.3 0
      vertex 80 104 0
    endloop
  endfacet
  facet normal -0 0 -1
    outer loop
      vertex 76 122.3 0
      vertex 68 116 0
      vertex 75.15 122.528 0
    endloop
  endfacet
  facet normal 0 0 -1
    outer loop
      vertex 67 117 0
      vertex 74.5278 123.15 0
      vertex 68 116 0
    endloop
  endfacet
  facet normal -0 0 -1
    outer loop
      vertex 75.15 122.528 0
      vertex 68 116 0
      vertex 74.5278 123.15 0
    endloop
  endfacet
  facet normal 0 0 -1
    outer loop
      vertex 80 104 0
      vertex 86 72 0
      vertex 80 80 0
    endloop
  endfacet
  facet normal 0 0 -1
    outer loop
      vertex 76 72 0
      vertex 80 80 0
      vertex 86 72 0
    endloop
  endfacet
  facet normal 0 0 -1
    outer loop
      vertex 68 68 0
      vertex 76 72 0
      vertex 68 66 0
    endloop
  endfacet
  facet normal -0 0 -1
    outer loop
      vertex 76 72 0
      vertex 68 68 0
      vertex 80 80 0
    endloop
  endfacet
  facet normal 0 0 -1
    outer loop
      vertex 68 66 0
      vertex 67 67 0
      vertex 68 68 0
    endloop
  endfacet
  facet normal 0 0 -1
    outer loop
      vertex 56 54 0
      vertex 67 67 0
      vertex 68 66 0
    endloop
  endfacet
  facet normal 0 0 -1
    outer loop
      vertex 56 54 0
      vertex 55 55 0
      vertex 67 67 0
    endloop
  endfacet
  facet normal 0 0 -1
    outer loop
      vertex 56 30 0
      vertex 53 32 0
      vertex 56 54 0
    endloop
  endfacet
  facet normal 0 0 -1
    outer loop
      vertex 53 52 0
      vertex 56 54 0
      vertex 53 32 0
    endloop
  endfacet
  facet normal 0 0 -1
    outer loop
      vertex 55 29 0
      vertex 33 32 0
      vertex 53 32 0
    endloop
  endfacet
  facet normal 0 0 -1
    outer loop
      vertex 30 30 0
      vertex 33 32 0
      vertex 31 29 0
    endloop
  endfacet
  facet normal 0 0 -1
    outer loop
      vertex 31 29 0
      vertex 33 32 0
      vertex 55 29 0
    endloop
  endfacet
  facet normal 0 0 -1
    outer loop
      vertex 86 72 0
      vertex 80 104 0
      vertex 86 134 0
    endloop
  endfacet
  facet normal 0 0 -1
    outer loop
      vertex 77.4722 123.15 0
      vertex 86 134 0
      vertex 80 104 0
    endloop
  endfacet
  facet normal 0 0 -1
    outer loop
      vertex 77.4722 124.85 0
      vertex 86 134 0
      vertex 77.7 124 0
    endloop
  endfacet
  facet normal 0 0 -1
    outer loop
      vertex 76.85 125.472 0
      vertex 86 134 0
      vertex 77.4722 124.85 0
    endloop
  endfacet
  facet normal 0 0 -1
    outer loop
      vertex 76 125.7 0
      vertex 86 134 0
      vertex 76.85 125.472 0
    endloop
  endfacet
  facet normal 0 0 -1
    outer loop
      vertex 75.15 125.472 0
      vertex 86 134 0
      vertex 76 125.7 0
    endloop
  endfacet
  facet normal -0 0 -1
    outer loop
      vertex 74.5278 123.15 0
      vertex 67 117 0
      vertex 74.3 124 0
    endloop
  endfacet
  facet normal 0 0 -1
    outer loop
      vertex 55 129 0
      vertex 74.3 124 0
      vertex 67 117 0
    endloop
  endfacet
  facet normal 0 0 -1
    outer loop
      vertex 74.3 124 0
      vertex 55 129 0
      vertex 74.5278 124.85 0
    endloop
  endfacet
  facet normal 0 0 -1
    outer loop
      vertex 55 129 0
      vertex 75.15 125.472 0
      vertex 74.5278 124.85 0
    endloop
  endfacet
  facet normal 0 0 -1
    outer loop
      vertex 55 129 0
      vertex 86 134 0
      vertex 75.15 125.472 0
    endloop
  endfacet
  facet normal 0 0 -1
    outer loop
      vertex 31 129 0
      vertex 86 134 0
      vertex 55 129 0
    endloop
  endfacet
  facet normal 0 0 -1
    outer loop
      vertex 11.4722 123.15 0
      vertex 19 117 0
      vertex 18 116 0
    endloop
  endfacet
  facet normal 0 0 -1
    outer loop
      vertex 19 117 0
      vertex 11.7 124 0
      vertex 31 129 0
    endloop
  endfacet
  facet normal 0 0 -1
    outer loop
      vertex 11.4722 124.85 0
      vertex 31 129 0
      vertex 11.7 124 0
    endloop
  endfacet
  facet normal 0 0 -1
    outer loop
      vertex 10.85 125.472 0
      vertex 31 129 0
      vertex 11.4722 124.85 0
    endloop
  endfacet
  facet normal 0 0 -1
    outer loop
      vertex 0 134 0
      vertex 10.85 125.472 0
      vertex 10 125.7 0
    endloop
  endfacet
  facet normal 0 0 -1
    outer loop
      vertex 0 134 0
      vertex 6 104 0
      vertex 0 72 0
    endloop
  endfacet
  facet normal 0 0 -1
    outer loop
      vertex 31 129 0
      vertex 0 134 0
      vertex 86 134 0
    endloop
  endfacet
  facet normal 0 0 -1
    outer loop
      vertex 10.85 125.472 0
      vertex 0 134 0
      vertex 31 129 0
    endloop
  endfacet
  facet normal 0 0 -1
    outer loop
      vertex 9.15 125.472 0
      vertex 0 134 0
      vertex 10 125.7 0
    endloop
  endfacet
  facet normal 0 0 -1
    outer loop
      vertex 8.52776 124.85 0
      vertex 0 134 0
      vertex 9.15 125.472 0
    endloop
  endfacet
  facet normal 0 0 -1
    outer loop
      vertex 8.3 124 0
      vertex 0 134 0
      vertex 8.52776 124.85 0
    endloop
  endfacet
  facet normal 0 0 -1
    outer loop
      vertex 6 104 0
      vertex 0 134 0
      vertex 8.3 124 0
    endloop
  endfacet
  facet normal 0 0 -1
    outer loop
      vertex 19 117 0
      vertex 11.4722 123.15 0
      vertex 11.7 124 0
    endloop
  endfacet
  facet normal 0 0 -1
    outer loop
      vertex 18 116 0
      vertex 10.85 122.528 0
      vertex 11.4722 123.15 0
    endloop
  endfacet
  facet normal 0 0 -1
    outer loop
      vertex 18 116 0
      vertex 10 122.3 0
      vertex 10.85 122.528 0
    endloop
  endfacet
  facet normal 0 0 -1
    outer loop
      vertex 6 104 0
      vertex 10 122.3 0
      vertex 18 116 0
    endloop
  endfacet
  facet normal -0 0 -1
    outer loop
      vertex 8.52776 123.15 0
      vertex 6 104 0
      vertex 8.3 124 0
    endloop
  endfacet
  facet normal -0 0 -1
    outer loop
      vertex 9.15 122.528 0
      vertex 6 104 0
      vertex 8.52776 123.15 0
    endloop
  endfacet
  facet normal -0 0 -1
    outer loop
      vertex 10 122.3 0
      vertex 6 104 0
      vertex 9.15 122.528 0
    endloop
  endfacet
  facet normal -0 0 -1
    outer loop
      vertex 19 17 0
      vertex 11.4722 10.85 0
      vertex 18 18 0
    endloop
  endfacet
  facet normal 0 0 -1
    outer loop
      vertex 10.85 11.4722 0
      vertex 18 18 0
      vertex 11.4722 10.85 0
    endloop
  endfacet
  facet normal 0 0 -1
    outer loop
      vertex 10 11.7 0
      vertex 18 18 0
      vertex 10.85 11.4722 0
    endloop
  endfacet
  facet normal 0 0 -1
    outer loop
      vertex 6 30 0
      vertex 10 11.7 0
      vertex 9.15 11.4722 0
    endloop
  endfacet
  facet normal 0 0 -1
    outer loop
      vertex 10 11.7 0
      vertex 6 30 0
      vertex 18 18 0
    endloop
  endfacet
  facet normal 0 0 -1
    outer loop
      vertex 8.52776 10.85 0
      vertex 6 30 0
      vertex 9.15 11.4722 0
    endloop
  endfacet
  facet normal 0 0 -1
    outer loop
      vertex 0 0 0
      vertex 8.52776 10.85 0
      vertex 8.3 10 0
    endloop
  endfacet
  facet normal 0 0 -1
    outer loop
      vertex 10 72 0
      vertex 18 68 0
      vertex 10 62 0
    endloop
  endfacet
  facet normal 0 0 -1
    outer loop
      vertex 10 72 0
      vertex 6 80 0
      vertex 18 68 0
    endloop
  endfacet
  facet normal -0 0 -1
    outer loop
      vertex 6 80 0
      vertex 0 72 0
      vertex 6 104 0
    endloop
  endfacet
  facet normal 0 0 -1
    outer loop
      vertex 0 72 0
      vertex 6 80 0
      vertex 10 72 0
    endloop
  endfacet
  facet normal 0 0 -1
    outer loop
      vertex 33 52 0
      vertex 30 54 0
      vertex 31 55 0
    endloop
  endfacet
  facet normal 0 0 -1
    outer loop
      vertex 30 54 0
      vertex 19 67 0
      vertex 31 55 0
    endloop
  endfacet
  facet normal 0 -0 -1
    outer loop
      vertex 19 67 0
      vertex 30 54 0
      vertex 18 66 0
    endloop
  endfacet
  facet normal 0 0 -1
    outer loop
      vertex 33 102 0
      vertex 30 104 0
      vertex 31 105 0
    endloop
  endfacet
  facet normal 0 0 -1
    outer loop
      vertex 30 104 0
      vertex 19 117 0
      vertex 31 105 0
    endloop
  endfacet
  facet normal 0 -0 -1
    outer loop
      vertex 19 117 0
      vertex 30 104 0
      vertex 18 116 0
    endloop
  endfacet
  facet normal -0 0 -1
    outer loop
      vertex 56 54 0
      vertex 53 52 0
      vertex 55 55 0
    endloop
  endfacet
  facet normal 0 0 -1
    outer loop
      vertex 33 52 0
      vertex 55 55 0
      vertex 53 52 0
    endloop
  endfacet
  facet normal 0 0 -1
    outer loop
      vertex 33 52 0
      vertex 31 55 0
      vertex 55 55 0
    endloop
  endfacet
  facet normal -0 0 -1
    outer loop
      vertex 33 32 0
      vertex 30 30 0
      vertex 33 52 0
    endloop
  endfacet
  facet normal 0 0 -1
    outer loop
      vertex 30 54 0
      vertex 33 52 0
      vertex 30 30 0
    endloop
  endfacet
  facet normal 0 0 -1
    outer loop
      vertex 19 17 0
      vertex 30 30 0
      vertex 31 29 0
    endloop
  endfacet
  facet normal 0 0 -1
    outer loop
      vertex 30 30 0
      vertex 19 17 0
      vertex 18 18 0
    endloop
  endfacet
  facet normal -0 0 -1
    outer loop
      vertex 56 104 0
      vertex 53 102 0
      vertex 55 105 0
    endloop
  endfacet
  facet normal 0 0 -1
    outer loop
      vertex 33 102 0
      vertex 55 105 0
      vertex 53 102 0
    endloop
  endfacet
  facet normal 0 0 -1
    outer loop
      vertex 33 102 0
      vertex 31 105 0
      vertex 55 105 0
    endloop
  endfacet
  facet normal -0 0 -1
    outer loop
      vertex 33 82 0
      vertex 30 80 0
      vertex 33 102 0
    endloop
  endfacet
  facet normal 0 0 -1
    outer loop
      vertex 30 104 0
      vertex 33 102 0
      vertex 30 80 0
    endloop
  endfacet
  facet normal 0 0 -1
    outer loop
      vertex 19 67 0
      vertex 30 80 0
      vertex 31 79 0
    endloop
  endfacet
  facet normal 0 0 -1
    outer loop
      vertex 18 68 0
      vertex 19 67 0
      vertex 18 66 0
    endloop
  endfacet
  facet normal 0 0 -1
    outer loop
      vertex 19 67 0
      vertex 18 68 0
      vertex 30 80 0
    endloop
  endfacet
  facet normal -0 0 -1
    outer loop
      vertex 18 66 0
      vertex 10 62 0
      vertex 18 68 0
    endloop
  endfacet
  facet normal 0 0 -1
    outer loop
      vertex 6 54 0
      vertex 10 62 0
      vertex 18 66 0
    endloop
  endfacet
  facet normal 0 0 -1
    outer loop
      vertex 6 54 0
      vertex 0 62 0
      vertex 10 62 0
    endloop
  endfacet
  facet normal 0 0 -1
    outer loop
      vertex 6 30 0
      vertex 0 62 0
      vertex 6 54 0
    endloop
  endfacet
  facet normal 0 0 -1
    outer loop
      vertex 56 104 0
      vertex 67 117 0
      vertex 68 116 0
    endloop
  endfacet
  facet normal 0 0 -1
    outer loop
      vertex 56 104 0
      vertex 55 105 0
      vertex 67 117 0
    endloop
  endfacet
  facet normal 0 0 -1
    outer loop
      vertex 56 80 0
      vertex 53 82 0
      vertex 56 104 0
    endloop
  endfacet
  facet normal 0 0 -1
    outer loop
      vertex 53 102 0
      vertex 56 104 0
      vertex 53 82 0
    endloop
  endfacet
  facet normal 0 0 -1
    outer loop
      vertex 55 79 0
      vertex 33 82 0
      vertex 53 82 0
    endloop
  endfacet
  facet normal 0 0 -1
    outer loop
      vertex 30 80 0
      vertex 33 82 0
      vertex 31 79 0
    endloop
  endfacet
  facet normal 0 0 -1
    outer loop
      vertex 31 79 0
      vertex 33 82 0
      vertex 55 79 0
    endloop
  endfacet
  facet normal 0 0 -1
    outer loop
      vertex 67 17 0
      vertex 56 30 0
      vertex 68 18 0
    endloop
  endfacet
  facet normal 0 0 -1
    outer loop
      vertex 53 32 0
      vertex 56 30 0
      vertex 55 29 0
    endloop
  endfacet
  facet normal 0 0 -1
    outer loop
      vertex 55 29 0
      vertex 56 30 0
      vertex 67 17 0
    endloop
  endfacet
  facet normal 0 0 -1
    outer loop
      vertex 67 67 0
      vertex 56 80 0
      vertex 68 68 0
    endloop
  endfacet
  facet normal 0 0 -1
    outer loop
      vertex 53 82 0
      vertex 56 80 0
      vertex 55 79 0
    endloop
  endfacet
  facet normal 0 0 -1
    outer loop
      vertex 55 79 0
      vertex 56 80 0
      vertex 67 67 0
    endloop
  endfacet
  facet normal -1 0 0
    outer loop
      vertex 30 30 0
      vertex 30 54 15
      vertex 30 54 0
    endloop
  endfacet
  facet normal -1 -0 0
    outer loop
      vertex 30 54 15
      vertex 30 30 0
      vertex 30 30 15
    endloop
  endfacet
  facet normal 0 0 1
    outer loop
      vertex 19 17 15
      vertex 11.4722 10.85 15
      vertex 11.7 10 15
    endloop
  endfacet
  facet normal 0 0 1
    outer loop
      vertex 18 18 15
      vertex 10.85 11.4722 15
      vertex 11.4722 10.85 15
    endloop
  endfacet
  facet normal 0 0 1
    outer loop
      vertex 18 18 15
      vertex 10 11.7 15
      vertex 10.85 11.4722 15
    endloop
  endfacet
  facet normal 0 0 1
    outer loop
      vertex 6 30 15
      vertex 10 11.7 15
      vertex 18 18 15
    endloop
  endfacet
  facet normal 0 0 1
    outer loop
      vertex 0 0 15
      vertex 8.52776 10.85 15
      vertex 6 30 15
    endloop
  endfacet
  facet normal 0 0 1
    outer loop
      vertex 9.15 11.4722 15
      vertex 6 30 15
      vertex 8.52776 10.85 15
    endloop
  endfacet
  facet normal 0 0 1
    outer loop
      vertex 10 11.7 15
      vertex 6 30 15
      vertex 9.15 11.4722 15
    endloop
  endfacet
  facet normal 0 0 1
    outer loop
      vertex 19 117 15
      vertex 11.4722 123.15 15
      vertex 18 116 15
    endloop
  endfacet
  facet normal -0 0 1
    outer loop
      vertex 10.85 122.528 15
      vertex 18 116 15
      vertex 11.4722 123.15 15
    endloop
  endfacet
  facet normal -0 0 1
    outer loop
      vertex 10 122.3 15
      vertex 18 116 15
      vertex 10.85 122.528 15
    endloop
  endfacet
  facet normal 0 0 1
    outer loop
      vertex 6 104 15
      vertex 10 122.3 15
      vertex 9.15 122.528 15
    endloop
  endfacet
  facet normal 0 0 1
    outer loop
      vertex 10 122.3 15
      vertex 6 104 15
      vertex 18 116 15
    endloop
  endfacet
  facet normal 0 0 1
    outer loop
      vertex 8.52776 123.15 15
      vertex 6 104 15
      vertex 9.15 122.528 15
    endloop
  endfacet
  facet normal 0 0 1
    outer loop
      vertex 0 134 15
      vertex 8.52776 123.15 15
      vertex 8.3 124 15
    endloop
  endfacet
  facet normal 0 0 1
    outer loop
      vertex 33 82 15
      vertex 30 80 15
      vertex 31 79 15
    endloop
  endfacet
  facet normal 0 0 1
    outer loop
      vertex 30 80 15
      vertex 19 67 15
      vertex 31 79 15
    endloop
  endfacet
  facet normal 0 -0 1
    outer loop
      vertex 19 67 15
      vertex 30 80 15
      vertex 18 68 15
    endloop
  endfacet
  facet normal 0 0 1
    outer loop
      vertex 33 32 15
      vertex 30 30 15
      vertex 31 29 15
    endloop
  endfacet
  facet normal 0 0 1
    outer loop
      vertex 30 30 15
      vertex 19 17 15
      vertex 31 29 15
    endloop
  endfacet
  facet normal 0 -0 1
    outer loop
      vertex 19 17 15
      vertex 30 30 15
      vertex 18 18 15
    endloop
  endfacet
  facet normal 0 0 1
    outer loop
      vertex 56 80 15
      vertex 53 82 15
      vertex 55 79 15
    endloop
  endfacet
  facet normal -0 0 1
    outer loop
      vertex 33 82 15
      vertex 55 79 15
      vertex 53 82 15
    endloop
  endfacet
  facet normal 0 0 1
    outer loop
      vertex 33 82 15
      vertex 31 79 15
      vertex 55 79 15
    endloop
  endfacet
  facet normal 0 0 1
    outer loop
      vertex 33 102 15
      vertex 30 104 15
      vertex 33 82 15
    endloop
  endfacet
  facet normal 0 0 1
    outer loop
      vertex 30 80 15
      vertex 33 82 15
      vertex 30 104 15
    endloop
  endfacet
  facet normal 0 0 1
    outer loop
      vertex 19 117 15
      vertex 30 104 15
      vertex 31 105 15
    endloop
  endfacet
  facet normal 0 0 1
    outer loop
      vertex 30 104 15
      vertex 19 117 15
      vertex 18 116 15
    endloop
  endfacet
  facet normal 0 0 1
    outer loop
      vertex 56 30 15
      vertex 53 32 15
      vertex 55 29 15
    endloop
  endfacet
  facet normal -0 0 1
    outer loop
      vertex 33 32 15
      vertex 55 29 15
      vertex 53 32 15
    endloop
  endfacet
  facet normal 0 0 1
    outer loop
      vertex 33 32 15
      vertex 31 29 15
      vertex 55 29 15
    endloop
  endfacet
  facet normal 0 0 1
    outer loop
      vertex 33 52 15
      vertex 30 54 15
      vertex 33 32 15
    endloop
  endfacet
  facet normal 0 0 1
    outer loop
      vertex 30 30 15
      vertex 33 32 15
      vertex 30 54 15
    endloop
  endfacet
  facet normal 0 0 1
    outer loop
      vertex 19 67 15
      vertex 30 54 15
      vertex 31 55 15
    endloop
  endfacet
  facet normal 0 0 1
    outer loop
      vertex 18 66 15
      vertex 19 67 15
      vertex 18 68 15
    endloop
  endfacet
  facet normal 0 0 1
    outer loop
      vertex 19 67 15
      vertex 18 66 15
      vertex 30 54 15
    endloop
  endfacet
  facet normal 0 0 1
    outer loop
      vertex 6 80 15
      vertex 18 66 15
      vertex 18 68 15
    endloop
  endfacet
  facet normal 0 0 1
    outer loop
      vertex 18 66 15
      vertex 6 80 15
      vertex 6 54 15
    endloop
  endfacet
  facet normal 0 0 1
    outer loop
      vertex 56 30 15
      vertex 67 17 15
      vertex 68 18 15
    endloop
  endfacet
  facet normal 0 0 1
    outer loop
      vertex 56 30 15
      vertex 55 29 15
      vertex 67 17 15
    endloop
  endfacet
  facet normal 0 0 1
    outer loop
      vertex 56 54 15
      vertex 53 52 15
      vertex 56 30 15
    endloop
  endfacet
  facet normal -0 0 1
    outer loop
      vertex 53 32 15
      vertex 56 30 15
      vertex 53 52 15
    endloop
  endfacet
  facet normal 0 0 1
    outer loop
      vertex 55 55 15
      vertex 33 52 15
      vertex 53 52 15
    endloop
  endfacet
  facet normal -0 0 1
    outer loop
      vertex 30 54 15
      vertex 33 52 15
      vertex 31 55 15
    endloop
  endfacet
  facet normal -0 0 1
    outer loop
      vertex 31 55 15
      vertex 33 52 15
      vertex 55 55 15
    endloop
  endfacet
  facet normal 0 0 1
    outer loop
      vertex 67 117 15
      vertex 56 104 15
      vertex 68 116 15
    endloop
  endfacet
  facet normal 0 0 1
    outer loop
      vertex 53 102 15
      vertex 56 104 15
      vertex 55 105 15
    endloop
  endfacet
  facet normal -0 0 1
    outer loop
      vertex 55 105 15
      vertex 56 104 15
      vertex 67 117 15
    endloop
  endfacet
  facet normal 0 0 1
    outer loop
      vertex 67 67 15
      vertex 56 54 15
      vertex 68 66 15
    endloop
  endfacet
  facet normal 0 0 1
    outer loop
      vertex 53 52 15
      vertex 56 54 15
      vertex 55 55 15
    endloop
  endfacet
  facet normal -0 0 1
    outer loop
      vertex 55 55 15
      vertex 56 54 15
      vertex 67 67 15
    endloop
  endfacet
  facet normal 0 0 1
    outer loop
      vertex 86 0 15
      vertex 77.4722 10.85 15
      vertex 77.7 10 15
    endloop
  endfacet
  facet normal 0 0 1
    outer loop
      vertex 80 30 15
      vertex 76.85 11.4722 15
      vertex 77.4722 10.85 15
    endloop
  endfacet
  facet normal 0 0 1
    outer loop
      vertex 80 30 15
      vertex 76 11.7 15
      vertex 76.85 11.4722 15
    endloop
  endfacet
  facet normal -0 0 1
    outer loop
      vertex 68 18 15
      vertex 76 11.7 15
      vertex 80 30 15
    endloop
  endfacet
  facet normal 0 0 1
    outer loop
      vertex 76 11.7 15
      vertex 68 18 15
      vertex 75.15 11.4722 15
    endloop
  endfacet
  facet normal -0 0 1
    outer loop
      vertex 67 17 15
      vertex 74.5278 10.85 15
      vertex 68 18 15
    endloop
  endfacet
  facet normal 0 0 1
    outer loop
      vertex 75.15 11.4722 15
      vertex 68 18 15
      vertex 74.5278 10.85 15
    endloop
  endfacet
  facet normal -0 0 1
    outer loop
      vertex 68 68 15
      vertex 80 54 15
      vertex 80 80 15
    endloop
  endfacet
  facet normal 0 0 1
    outer loop
      vertex 68 68 15
      vertex 68 66 15
      vertex 80 54 15
    endloop
  endfacet
  facet normal 0 0 1
    outer loop
      vertex 68 68 15
      vertex 67 67 15
      vertex 68 66 15
    endloop
  endfacet
  facet normal 0 0 1
    outer loop
      vertex 56 80 15
      vertex 67 67 15
      vertex 68 68 15
    endloop
  endfacet
  facet normal 0 0 1
    outer loop
      vertex 56 80 15
      vertex 55 79 15
      vertex 67 67 15
    endloop
  endfacet
  facet normal 0 0 1
    outer loop
      vertex 56 104 15
      vertex 53 102 15
      vertex 56 80 15
    endloop
  endfacet
  facet normal -0 0 1
    outer loop
      vertex 53 82 15
      vertex 56 80 15
      vertex 53 102 15
    endloop
  endfacet
  facet normal 0 0 1
    outer loop
      vertex 55 105 15
      vertex 33 102 15
      vertex 53 102 15
    endloop
  endfacet
  facet normal -0 0 1
    outer loop
      vertex 30 104 15
      vertex 33 102 15
      vertex 31 105 15
    endloop
  endfacet
  facet normal -0 0 1
    outer loop
      vertex 31 105 15
      vertex 33 102 15
      vertex 55 105 15
    endloop
  endfacet
  facet normal 0 0 1
    outer loop
      vertex 80 80 15
      vertex 86 134 15
      vertex 80 104 15
    endloop
  endfacet
  facet normal 0 0 1
    outer loop
      vertex 77.4722 123.15 15
      vertex 86 134 15
      vertex 77.7 124 15
    endloop
  endfacet
  facet normal 0 0 1
    outer loop
      vertex 86 134 15
      vertex 77.4722 124.85 15
      vertex 77.7 124 15
    endloop
  endfacet
  facet normal 0 0 1
    outer loop
      vertex 86 134 15
      vertex 76.85 125.472 15
      vertex 77.4722 124.85 15
    endloop
  endfacet
  facet normal 0 0 1
    outer loop
      vertex 86 134 15
      vertex 76 125.7 15
      vertex 76.85 125.472 15
    endloop
  endfacet
  facet normal 0 0 1
    outer loop
      vertex 86 134 15
      vertex 75.15 125.472 15
      vertex 76 125.7 15
    endloop
  endfacet
  facet normal 0 0 1
    outer loop
      vertex 55 129 15
      vertex 74.3 124 15
      vertex 74.5278 124.85 15
    endloop
  endfacet
  facet normal 0 0 1
    outer loop
      vertex 74.3 124 15
      vertex 67 117 15
      vertex 68 116 15
    endloop
  endfacet
  facet normal 0 0 1
    outer loop
      vertex 74.3 124 15
      vertex 55 129 15
      vertex 67 117 15
    endloop
  endfacet
  facet normal 0 0 1
    outer loop
      vertex 75.15 125.472 15
      vertex 55 129 15
      vertex 74.5278 124.85 15
    endloop
  endfacet
  facet normal 0 0 1
    outer loop
      vertex 86 134 15
      vertex 55 129 15
      vertex 75.15 125.472 15
    endloop
  endfacet
  facet normal 0 0 1
    outer loop
      vertex 86 134 15
      vertex 31 129 15
      vertex 55 129 15
    endloop
  endfacet
  facet normal -0 0 1
    outer loop
      vertex 11.7 124 15
      vertex 19 117 15
      vertex 31 129 15
    endloop
  endfacet
  facet normal -0 0 1
    outer loop
      vertex 11.4722 123.15 15
      vertex 19 117 15
      vertex 11.7 124 15
    endloop
  endfacet
  facet normal 0 0 1
    outer loop
      vertex 31 129 15
      vertex 11.4722 124.85 15
      vertex 11.7 124 15
    endloop
  endfacet
  facet normal 0 0 1
    outer loop
      vertex 31 129 15
      vertex 10.85 125.472 15
      vertex 11.4722 124.85 15
    endloop
  endfacet
  facet normal 0 0 1
    outer loop
      vertex 0 134 15
      vertex 10.85 125.472 15
      vertex 31 129 15
    endloop
  endfacet
  facet normal 0 0 1
    outer loop
      vertex 0 134 15
      vertex 6 80 15
      vertex 6 104 15
    endloop
  endfacet
  facet normal 0 0 1
    outer loop
      vertex 6 80 15
      vertex 0 134 15
      vertex 6 54 15
    endloop
  endfacet
  facet normal 0 0 1
    outer loop
      vertex 0 0 15
      vertex 6 54 15
      vertex 0 134 15
    endloop
  endfacet
  facet normal 0 0 1
    outer loop
      vertex 8.52776 123.15 15
      vertex 0 134 15
      vertex 6 104 15
    endloop
  endfacet
  facet normal 0 0 1
    outer loop
      vertex 8.52776 124.85 15
      vertex 0 134 15
      vertex 8.3 124 15
    endloop
  endfacet
  facet normal 0 0 1
    outer loop
      vertex 9.15 125.472 15
      vertex 0 134 15
      vertex 8.52776 124.85 15
    endloop
  endfacet
  facet normal 0 0 1
    outer loop
      vertex 10 125.7 15
      vertex 0 134 15
      vertex 9.15 125.472 15
    endloop
  endfacet
  facet normal 0 0 1
    outer loop
      vertex 10.85 125.472 15
      vertex 0 134 15
      vertex 10 125.7 15
    endloop
  endfacet
  facet normal -0 0 1
    outer loop
      vertex 0 134 15
      vertex 31 129 15
      vertex 86 134 15
    endloop
  endfacet
  facet normal 0 0 1
    outer loop
      vertex 86 134 15
      vertex 80 80 15
      vertex 86 0 15
    endloop
  endfacet
  facet normal -0 0 1
    outer loop
      vertex 80 54 15
      vertex 86 0 15
      vertex 80 80 15
    endloop
  endfacet
  facet normal -0 0 1
    outer loop
      vertex 80 30 15
      vertex 86 0 15
      vertex 80 54 15
    endloop
  endfacet
  facet normal -0 0 1
    outer loop
      vertex 77.4722 10.85 15
      vertex 86 0 15
      vertex 80 30 15
    endloop
  endfacet
  facet normal -0 0 1
    outer loop
      vertex 77.4722 9.15 15
      vertex 86 0 15
      vertex 77.7 10 15
    endloop
  endfacet
  facet normal -0 0 1
    outer loop
      vertex 76.85 8.52776 15
      vertex 86 0 15
      vertex 77.4722 9.15 15
    endloop
  endfacet
  facet normal -0 0 1
    outer loop
      vertex 76 8.3 15
      vertex 86 0 15
      vertex 76.85 8.52776 15
    endloop
  endfacet
  facet normal 0 0 1
    outer loop
      vertex 75.15 8.52776 15
      vertex 86 0 15
      vertex 76 8.3 15
    endloop
  endfacet
  facet normal 0 0 1
    outer loop
      vertex 74.5278 10.85 15
      vertex 67 17 15
      vertex 74.3 10 15
    endloop
  endfacet
  facet normal 0 0 1
    outer loop
      vertex 55 5 15
      vertex 74.3 10 15
      vertex 67 17 15
    endloop
  endfacet
  facet normal 0 0 1
    outer loop
      vertex 74.3 10 15
      vertex 55 5 15
      vertex 74.5278 9.15 15
    endloop
  endfacet
  facet normal 0 0 1
    outer loop
      vertex 55 5 15
      vertex 75.15 8.52776 15
      vertex 74.5278 9.15 15
    endloop
  endfacet
  facet normal -0 0 1
    outer loop
      vertex 55 5 15
      vertex 86 0 15
      vertex 75.15 8.52776 15
    endloop
  endfacet
  facet normal -0 0 1
    outer loop
      vertex 31 5 15
      vertex 86 0 15
      vertex 55 5 15
    endloop
  endfacet
  facet normal 0 0 1
    outer loop
      vertex 11.4722 10.85 15
      vertex 19 17 15
      vertex 18 18 15
    endloop
  endfacet
  facet normal 0 0 1
    outer loop
      vertex 19 17 15
      vertex 11.7 10 15
      vertex 31 5 15
    endloop
  endfacet
  facet normal -0 0 1
    outer loop
      vertex 11.4722 9.15 15
      vertex 31 5 15
      vertex 11.7 10 15
    endloop
  endfacet
  facet normal -0 0 1
    outer loop
      vertex 10.85 8.52776 15
      vertex 31 5 15
      vertex 11.4722 9.15 15
    endloop
  endfacet
  facet normal 0 0 1
    outer loop
      vertex 0 0 15
      vertex 10.85 8.52776 15
      vertex 10 8.3 15
    endloop
  endfacet
  facet normal 0 0 1
    outer loop
      vertex 31 5 15
      vertex 0 0 15
      vertex 86 0 15
    endloop
  endfacet
  facet normal 0 0 1
    outer loop
      vertex 10.85 8.52776 15
      vertex 0 0 15
      vertex 31 5 15
    endloop
  endfacet
  facet normal 0 0 1
    outer loop
      vertex 9.15 8.52776 15
      vertex 0 0 15
      vertex 10 8.3 15
    endloop
  endfacet
  facet normal 0 0 1
    outer loop
      vertex 8.52776 9.15 15
      vertex 0 0 15
      vertex 9.15 8.52776 15
    endloop
  endfacet
  facet normal 0 0 1
    outer loop
      vertex 8.3 10 15
      vertex 0 0 15
      vertex 8.52776 9.15 15
    endloop
  endfacet
  facet normal 0 0 1
    outer loop
      vertex 8.52776 10.85 15
      vertex 0 0 15
      vertex 8.3 10 15
    endloop
  endfacet
  facet normal 0 0 1
    outer loop
      vertex 6 54 15
      vertex 0 0 15
      vertex 6 30 15
    endloop
  endfacet
  facet normal 0 0 1
    outer loop
      vertex 86 134 15
      vertex 77.4722 123.15 15
      vertex 80 104 15
    endloop
  endfacet
  facet normal -0 0 1
    outer loop
      vertex 76.85 122.528 15
      vertex 80 104 15
      vertex 77.4722 123.15 15
    endloop
  endfacet
  facet normal -0 0 1
    outer loop
      vertex 76 122.3 15
      vertex 80 104 15
      vertex 76.85 122.528 15
    endloop
  endfacet
  facet normal 0 0 1
    outer loop
      vertex 68 116 15
      vertex 76 122.3 15
      vertex 75.15 122.528 15
    endloop
  endfacet
  facet normal 0 0 1
    outer loop
      vertex 68 116 15
      vertex 75.15 122.528 15
      vertex 74.5278 123.15 15
    endloop
  endfacet
  facet normal 0 0 1
    outer loop
      vertex 76 122.3 15
      vertex 68 116 15
      vertex 80 104 15
    endloop
  endfacet
  facet normal 0 0 1
    outer loop
      vertex 68 116 15
      vertex 74.5278 123.15 15
      vertex 74.3 124 15
    endloop
  endfacet
  facet normal -0.707107 -0.707107 0
    outer loop
      vertex 30 104 0
      vertex 18 116 15
      vertex 18 116 0
    endloop
  endfacet
  facet normal -0.707107 -0.707107 0
    outer loop
      vertex 18 116 15
      vertex 30 104 0
      vertex 30 104 15
    endloop
  endfacet
  facet normal 0.707107 -0.707107 0
    outer loop
      vertex 6 104 15
      vertex 18 116 0
      vertex 18 116 15
    endloop
  endfacet
  facet normal 0.707107 -0.707107 0
    outer loop
      vertex 18 116 0
      vertex 6 104 15
      vertex 6 104 0
    endloop
  endfacet
  facet normal 1 -0 0
    outer loop
      vertex 6 80 15
      vertex 6 104 0
      vertex 6 104 15
    endloop
  endfacet
  facet normal 1 0 0
    outer loop
      vertex 6 104 0
      vertex 6 80 15
      vertex 6 80 0
    endloop
  endfacet
  facet normal 0.707107 0.707107 0
    outer loop
      vertex 18 68 15
      vertex 6 80 0
      vertex 6 80 15
    endloop
  endfacet
  facet normal 0.707107 0.707107 0
    outer loop
      vertex 6 80 0
      vertex 18 68 15
      vertex 18 68 0
    endloop
  endfacet
  facet normal -0.707107 0.707107 0
    outer loop
      vertex 18 68 0
      vertex 30 80 15
      vertex 30 80 0
    endloop
  endfacet
  facet normal -0.707107 0.707107 0
    outer loop
      vertex 30 80 15
      vertex 18 68 0
      vertex 18 68 15
    endloop
  endfacet
  facet normal -1 0 0
    outer loop
      vertex 30 80 0
      vertex 30 104 15
      vertex 30 104 0
    endloop
  endfacet
  facet normal -1 -0 0
    outer loop
      vertex 30 104 15
      vertex 30 80 0
      vertex 30 80 15
    endloop
  endfacet
  facet normal -0.707107 -0.707107 0
    outer loop
      vertex 80 54 0
      vertex 68 66 15
      vertex 68 66 0
    endloop
  endfacet
  facet normal -0.707107 -0.707107 0
    outer loop
      vertex 68 66 15
      vertex 80 54 0
      vertex 80 54 15
    endloop
  endfacet
  facet normal 0.707107 -0.707107 0
    outer loop
      vertex 56 54 15
      vertex 68 66 0
      vertex 68 66 15
    endloop
  endfacet
  facet normal 0.707107 -0.707107 0
    outer loop
      vertex 68 66 0
      vertex 56 54 15
      vertex 56 54 0
    endloop
  endfacet
  facet normal 1 -0 0
    outer loop
      vertex 56 30 15
      vertex 56 54 0
      vertex 56 54 15
    endloop
  endfacet
  facet normal 1 0 0
    outer loop
      vertex 56 54 0
      vertex 56 30 15
      vertex 56 30 0
    endloop
  endfacet
  facet normal 0.707107 0.707107 0
    outer loop
      vertex 68 18 15
      vertex 56 30 0
      vertex 56 30 15
    endloop
  endfacet
  facet normal 0.707107 0.707107 0
    outer loop
      vertex 56 30 0
      vertex 68 18 15
      vertex 68 18 0
    endloop
  endfacet
  facet normal -0.707107 0.707107 0
    outer loop
      vertex 68 18 0
      vertex 80 30 15
      vertex 80 30 0
    endloop
  endfacet
  facet normal -0.707107 0.707107 0
    outer loop
      vertex 80 30 15
      vertex 68 18 0
      vertex 68 18 15
    endloop
  endfacet
  facet normal -1 0 0
    outer loop
      vertex 80 30 0
      vertex 80 54 15
      vertex 80 54 0
    endloop
  endfacet
  facet normal -1 -0 0
    outer loop
      vertex 80 54 15
      vertex 80 30 0
      vertex 80 30 15
    endloop
  endfacet
  facet normal -0.707107 -0.707107 0
    outer loop
      vertex 80 104 0
      vertex 68 116 15
      vertex 68 116 0
    endloop
  endfacet
  facet normal -0.707107 -0.707107 0
    outer loop
      vertex 68 116 15
      vertex 80 104 0
      vertex 80 104 15
    endloop
  endfacet
  facet normal -0.707107 0.707107 0
    outer loop
      vertex 68 68 0
      vertex 80 80 15
      vertex 80 80 0
    endloop
  endfacet
  facet normal -0.707107 0.707107 0
    outer loop
      vertex 80 80 15
      vertex 68 68 0
      vertex 68 68 15
    endloop
  endfacet
  facet normal 0.707107 -0.707107 0
    outer loop
      vertex 56 104 15
      vertex 68 116 0
      vertex 68 116 15
    endloop
  endfacet
  facet normal 0.707107 -0.707107 0
    outer loop
      vertex 68 116 0
      vertex 56 104 15
      vertex 56 104 0
    endloop
  endfacet
  facet normal 1 -0 0
    outer loop
      vertex 56 80 15
      vertex 56 104 0
      vertex 56 104 15
    endloop
  endfacet
  facet normal 1 0 0
    outer loop
      vertex 56 104 0
      vertex 56 80 15
      vertex 56 80 0
    endloop
  endfacet
  facet normal 0.707107 0.707107 0
    outer loop
      vertex 68 68 15
      vertex 56 80 0
      vertex 56 80 15
    endloop
  endfacet
  facet normal 0.707107 0.707107 0
    outer loop
      vertex 56 80 0
      vertex 68 68 15
      vertex 68 68 0
    endloop
  endfacet
  facet normal -1 0 0
    outer loop
      vertex 80 80 0
      vertex 80 104 15
      vertex 80 104 0
    endloop
  endfacet
  facet normal -1 -0 0
    outer loop
      vertex 80 104 15
      vertex 80 80 0
      vertex 80 80 15
    endloop
  endfacet
  facet normal 0.707107 -0.707107 0
    outer loop
      vertex 19 17 15
      vertex 31 29 0
      vertex 31 29 15
    endloop
  endfacet
  facet normal 0.707107 -0.707107 0
    outer loop
      vertex 31 29 0
      vertex 19 17 15
      vertex 19 17 0
    endloop
  endfacet
  facet normal 0 -1 0
    outer loop
      vertex 31 29 0
      vertex 55 29 15
      vertex 31 29 15
    endloop
  endfacet
  facet normal 0 -1 -0
    outer loop
      vertex 55 29 15
      vertex 31 29 0
      vertex 55 29 0
    endloop
  endfacet
  facet normal 0.707107 0.707107 0
    outer loop
      vertex 31 5 15
      vertex 19 17 0
      vertex 19 17 15
    endloop
  endfacet
  facet normal 0.707107 0.707107 0
    outer loop
      vertex 19 17 0
      vertex 31 5 15
      vertex 31 5 0
    endloop
  endfacet
  facet normal 0 1 -0
    outer loop
      vertex 55 5 0
      vertex 31 5 15
      vertex 55 5 15
    endloop
  endfacet
  facet normal 0 1 0
    outer loop
      vertex 31 5 15
      vertex 55 5 0
      vertex 31 5 0
    endloop
  endfacet
  facet normal -0.707107 0.707107 0
    outer loop
      vertex 55 5 0
      vertex 67 17 15
      vertex 67 17 0
    endloop
  endfacet
  facet normal -0.707107 0.707107 0
    outer loop
      vertex 67 17 15
      vertex 55 5 0
      vertex 55 5 15
    endloop
  endfacet
  facet normal -0.707107 -0.707107 0
    outer loop
      vertex 67 17 0
      vertex 55 29 15
      vertex 55 29 0
    endloop
  endfacet
  facet normal -0.707107 -0.707107 0
    outer loop
      vertex 55 29 15
      vertex 67 17 0
      vertex 67 17 15
    endloop
  endfacet
  facet normal 0.707107 -0.707107 0
    outer loop
      vertex 19 67 15
      vertex 31 79 0
      vertex 31 79 15
    endloop
  endfacet
  facet normal 0.707107 -0.707107 0
    outer loop
      vertex 31 79 0
      vertex 19 67 15
      vertex 19 67 0
    endloop
  endfacet
  facet normal 0.707107 0.707107 0
    outer loop
      vertex 31 55 15
      vertex 19 67 0
      vertex 19 67 15
    endloop
  endfacet
  facet normal 0.707107 0.707107 0
    outer loop
      vertex 19 67 0
      vertex 31 55 15
      vertex 31 55 0
    endloop
  endfacet
  facet normal -0.707107 0.707107 0
    outer loop
      vertex 55 55 0
      vertex 67 67 15
      vertex 67 67 0
    endloop
  endfacet
  facet normal -0.707107 0.707107 0
    outer loop
      vertex 67 67 15
      vertex 55 55 0
      vertex 55 55 15
    endloop
  endfacet
  facet normal -0.707107 -0.707107 0
    outer loop
      vertex 67 67 0
      vertex 55 79 15
      vertex 55 79 0
    endloop
  endfacet
  facet normal -0.707107 -0.707107 0
    outer loop
      vertex 55 79 15
      vertex 67 67 0
      vertex 67 67 15
    endloop
  endfacet
  facet normal 0 -1 0
    outer loop
      vertex 31 79 0
      vertex 55 79 15
      vertex 31 79 15
    endloop
  endfacet
  facet normal 0 -1 -0
    outer loop
      vertex 55 79 15
      vertex 31 79 0
      vertex 55 79 0
    endloop
  endfacet
  facet normal 0 1 -0
    outer loop
      vertex 55 55 0
      vertex 31 55 15
      vertex 55 55 15
    endloop
  endfacet
  facet normal 0 1 0
    outer loop
      vertex 31 55 15
      vertex 55 55 0
      vertex 31 55 0
    endloop
  endfacet
  facet normal 0.707107 -0.707107 0
    outer loop
      vertex 19 117 15
      vertex 31 129 0
      vertex 31 129 15
    endloop
  endfacet
  facet normal 0.707107 -0.707107 0
    outer loop
      vertex 31 129 0
      vertex 19 117 15
      vertex 19 117 0
    endloop
  endfacet
  facet normal 0.707107 0.707107 0
    outer loop
      vertex 31 105 15
      vertex 19 117 0
      vertex 19 117 15
    endloop
  endfacet
  facet normal 0.707107 0.707107 0
    outer loop
      vertex 19 117 0
      vertex 31 105 15
      vertex 31 105 0
    endloop
  endfacet
  facet normal 0 1 -0
    outer loop
      vertex 55 105 0
      vertex 31 105 15
      vertex 55 105 15
    endloop
  endfacet
  facet normal 0 1 0
    outer loop
      vertex 31 105 15
      vertex 55 105 0
      vertex 31 105 0
    endloop
  endfacet
  facet normal -0.707107 0.707107 0
    outer loop
      vertex 55 105 0
      vertex 67 117 15
      vertex 67 117 0
    endloop
  endfacet
  facet normal -0.707107 0.707107 0
    outer loop
      vertex 67 117 15
      vertex 55 105 0
      vertex 55 105 15
    endloop
  endfacet
  facet normal -0.707107 -0.707107 0
    outer loop
      vertex 67 117 0
      vertex 55 129 15
      vertex 55 129 0
    endloop
  endfacet
  facet normal -0.707107 -0.707107 0
    outer loop
      vertex 55 129 15
      vertex 67 117 0
      vertex 67 117 15
    endloop
  endfacet
  facet normal 0 -1 0
    outer loop
      vertex 31 129 0
      vertex 55 129 15
      vertex 31 129 15
    endloop
  endfacet
  facet normal 0 -1 -0
    outer loop
      vertex 55 129 15
      vertex 31 129 0
      vertex 55 129 0
    endloop
  endfacet
  facet normal 1 0 0
    outer loop
      vertex 86 134 15
      vertex 86 72 5
      vertex 86 134 0
    endloop
  endfacet
  facet normal 1 0 0
    outer loop
      vertex 86 134 15
      vertex 86 62 5
      vertex 86 72 5
    endloop
  endfacet
  facet normal 1 -0 0
    outer loop
      vertex 86 0 15
      vertex 86 62 5
      vertex 86 134 15
    endloop
  endfacet
  facet normal 1 0 0
    outer loop
      vertex 86 0 0
      vertex 86 62 5
      vertex 86 0 15
    endloop
  endfacet
  facet normal 1 0 0
    outer loop
      vertex 86 62 5
      vertex 86 0 0
      vertex 86 62 0
    endloop
  endfacet
  facet normal 1 0 0
    outer loop
      vertex 86 134 0
      vertex 86 72 5
      vertex 86 72 0
    endloop
  endfacet
  facet normal -1 0 0
    outer loop
      vertex 0 62 0
      vertex 0 0 0
      vertex 0 62 5
    endloop
  endfacet
  facet normal -1 0 0
    outer loop
      vertex 0 72 5
      vertex 0 134 0
      vertex 0 72 0
    endloop
  endfacet
  facet normal -1 0 0
    outer loop
      vertex 0 134 0
      vertex 0 72 5
      vertex 0 134 15
    endloop
  endfacet
  facet normal -1 0 0
    outer loop
      vertex 0 62 5
      vertex 0 134 15
      vertex 0 72 5
    endloop
  endfacet
  facet normal -1 0 0
    outer loop
      vertex 0 0 15
      vertex 0 62 5
      vertex 0 0 0
    endloop
  endfacet
  facet normal -1 0 0
    outer loop
      vertex 0 62 5
      vertex 0 0 15
      vertex 0 134 15
    endloop
  endfacet
  facet normal 0 1 -0
    outer loop
      vertex 66.2322 134 9.26777
      vertex 18 134 10
      vertex 68 134 10
    endloop
  endfacet
  facet normal 0 1 0
    outer loop
      vertex 66.2322 134 9.26777
      vertex 19.7678 134 9.26777
      vertex 18 134 10
    endloop
  endfacet
  facet normal 0 1 -0
    outer loop
      vertex 65.5 134 7.5
      vertex 19.7678 134 9.26777
      vertex 66.2322 134 9.26777
    endloop
  endfacet
  facet normal 0 1 0
    outer loop
      vertex 65.5 134 7.5
      vertex 20.5 134 7.5
      vertex 19.7678 134 9.26777
    endloop
  endfacet
  facet normal 0 1 0
    outer loop
      vertex 66.2322 134 5.73223
      vertex 20.5 134 7.5
      vertex 65.5 134 7.5
    endloop
  endfacet
  facet normal 0 1 0
    outer loop
      vertex 66.2322 134 5.73223
      vertex 19.7678 134 5.73223
      vertex 20.5 134 7.5
    endloop
  endfacet
  facet normal 0 1 0
    outer loop
      vertex 68 134 5
      vertex 19.7678 134 5.73223
      vertex 66.2322 134 5.73223
    endloop
  endfacet
  facet normal 0 1 0
    outer loop
      vertex 19.7678 134 5.73223
      vertex 68 134 5
      vertex 18 134 5
    endloop
  endfacet
  facet normal 0 1 0
    outer loop
      vertex 86 134 15
      vertex 68 134 10
      vertex 0 134 15
    endloop
  endfacet
  facet normal 0 1 0
    outer loop
      vertex 86 134 15
      vertex 69.7678 134 9.26777
      vertex 68 134 10
    endloop
  endfacet
  facet normal 0 1 0
    outer loop
      vertex 86 134 15
      vertex 70.5 134 7.5
      vertex 69.7678 134 9.26777
    endloop
  endfacet
  facet normal 0 1 -0
    outer loop
      vertex 86 134 0
      vertex 70.5 134 7.5
      vertex 86 134 15
    endloop
  endfacet
  facet normal 0 1 0
    outer loop
      vertex 68 134 5
      vertex 86 134 0
      vertex 18 134 5
    endloop
  endfacet
  facet normal 0 1 0
    outer loop
      vertex 69.7678 134 5.73223
      vertex 86 134 0
      vertex 68 134 5
    endloop
  endfacet
  facet normal 0 1 0
    outer loop
      vertex 70.5 134 7.5
      vertex 86 134 0
      vertex 69.7678 134 5.73223
    endloop
  endfacet
  facet normal 0 1 -0
    outer loop
      vertex 18 134 10
      vertex 0 134 15
      vertex 68 134 10
    endloop
  endfacet
  facet normal 0 1 -0
    outer loop
      vertex 16.2322 134 9.26777
      vertex 0 134 15
      vertex 18 134 10
    endloop
  endfacet
  facet normal 0 1 -0
    outer loop
      vertex 15.5 134 7.5
      vertex 0 134 15
      vertex 16.2322 134 9.26777
    endloop
  endfacet
  facet normal 0 1 0
    outer loop
      vertex 0 134 0
      vertex 15.5 134 7.5
      vertex 16.2322 134 5.73223
    endloop
  endfacet
  facet normal 0 1 0
    outer loop
      vertex 15.5 134 7.5
      vertex 0 134 0
      vertex 0 134 15
    endloop
  endfacet
  facet normal 0 1 0
    outer loop
      vertex 18 134 5
      vertex 0 134 0
      vertex 16.2322 134 5.73223
    endloop
  endfacet
  facet normal 0 1 0
    outer loop
      vertex 0 134 0
      vertex 18 134 5
      vertex 86 134 0
    endloop
  endfacet
  facet normal 0 -1 0
    outer loop
      vertex 19.7678 0 9.26777
      vertex 68 0 10
      vertex 18 0 10
    endloop
  endfacet
  facet normal 0 -1 0
    outer loop
      vertex 19.7678 0 9.26777
      vertex 66.2322 0 9.26777
      vertex 68 0 10
    endloop
  endfacet
  facet normal 0 -1 0
    outer loop
      vertex 20.5 0 7.5
      vertex 66.2322 0 9.26777
      vertex 19.7678 0 9.26777
    endloop
  endfacet
  facet normal 0 -1 0
    outer loop
      vertex 20.5 0 7.5
      vertex 65.5 0 7.5
      vertex 66.2322 0 9.26777
    endloop
  endfacet
  facet normal 0 -1 0
    outer loop
      vertex 19.7678 0 5.73223
      vertex 65.5 0 7.5
      vertex 20.5 0 7.5
    endloop
  endfacet
  facet normal 0 -1 0
    outer loop
      vertex 19.7678 0 5.73223
      vertex 66.2322 0 5.73223
      vertex 65.5 0 7.5
    endloop
  endfacet
  facet normal 0 -1 0
    outer loop
      vertex 18 0 5
      vertex 66.2322 0 5.73223
      vertex 19.7678 0 5.73223
    endloop
  endfacet
  facet normal 0 -1 -0
    outer loop
      vertex 66.2322 0 5.73223
      vertex 18 0 5
      vertex 68 0 5
    endloop
  endfacet
  facet normal 0 -1 0
    outer loop
      vertex 0 0 15
      vertex 18 0 10
      vertex 86 0 15
    endloop
  endfacet
  facet normal 0 -1 0
    outer loop
      vertex 0 0 15
      vertex 16.2322 0 9.26777
      vertex 18 0 10
    endloop
  endfacet
  facet normal 0 -1 0
    outer loop
      vertex 0 0 15
      vertex 15.5 0 7.5
      vertex 16.2322 0 9.26777
    endloop
  endfacet
  facet normal 0 -1 0
    outer loop
      vertex 0 0 0
      vertex 15.5 0 7.5
      vertex 0 0 15
    endloop
  endfacet
  facet normal 0 -1 -0
    outer loop
      vertex 18 0 5
      vertex 0 0 0
      vertex 68 0 5
    endloop
  endfacet
  facet normal 0 -1 -0
    outer loop
      vertex 16.2322 0 5.73223
      vertex 0 0 0
      vertex 18 0 5
    endloop
  endfacet
  facet normal 0 -1 -0
    outer loop
      vertex 15.5 0 7.5
      vertex 0 0 0
      vertex 16.2322 0 5.73223
    endloop
  endfacet
  facet normal 0 -1 0
    outer loop
      vertex 68 0 10
      vertex 86 0 15
      vertex 18 0 10
    endloop
  endfacet
  facet normal 0 -1 0
    outer loop
      vertex 69.7678 0 9.26777
      vertex 86 0 15
      vertex 68 0 10
    endloop
  endfacet
  facet normal 0 -1 0
    outer loop
      vertex 70.5 0 7.5
      vertex 86 0 15
      vertex 69.7678 0 9.26777
    endloop
  endfacet
  facet normal 0 -1 0
    outer loop
      vertex 86 0 0
      vertex 70.5 0 7.5
      vertex 69.7678 0 5.73223
    endloop
  endfacet
  facet normal 0 -1 0
    outer loop
      vertex 70.5 0 7.5
      vertex 86 0 0
      vertex 86 0 15
    endloop
  endfacet
  facet normal 0 -1 0
    outer loop
      vertex 68 0 5
      vertex 86 0 0
      vertex 69.7678 0 5.73223
    endloop
  endfacet
  facet normal 0 -1 0
    outer loop
      vertex 86 0 0
      vertex 68 0 5
      vertex 0 0 0
    endloop
  endfacet
  facet normal -1 0 0
    outer loop
      vertex 53 32 0
      vertex 53 52 15
      vertex 53 52 0
    endloop
  endfacet
  facet normal -1 -0 0
    outer loop
      vertex 53 52 15
      vertex 53 32 0
      vertex 53 32 15
    endloop
  endfacet
  facet normal 1 -0 0
    outer loop
      vertex 33 32 15
      vertex 33 52 0
      vertex 33 52 15
    endloop
  endfacet
  facet normal 1 0 0
    outer loop
      vertex 33 52 0
      vertex 33 32 15
      vertex 33 32 0
    endloop
  endfacet
  facet normal 0 -1 0
    outer loop
      vertex 33 52 0
      vertex 53 52 15
      vertex 33 52 15
    endloop
  endfacet
  facet normal 0 -1 -0
    outer loop
      vertex 53 52 15
      vertex 33 52 0
      vertex 53 52 0
    endloop
  endfacet
  facet normal 0 1 -0
    outer loop
      vertex 53 32 0
      vertex 33 32 15
      vertex 53 32 15
    endloop
  endfacet
  facet normal 0 1 0
    outer loop
      vertex 33 32 15
      vertex 53 32 0
      vertex 33 32 0
    endloop
  endfacet
  facet normal -1 0 0
    outer loop
      vertex 53 82 0
      vertex 53 102 15
      vertex 53 102 0
    endloop
  endfacet
  facet normal -1 -0 0
    outer loop
      vertex 53 102 15
      vertex 53 82 0
      vertex 53 82 15
    endloop
  endfacet
  facet normal 1 -0 0
    outer loop
      vertex 33 82 15
      vertex 33 102 0
      vertex 33 102 15
    endloop
  endfacet
  facet normal 1 0 0
    outer loop
      vertex 33 102 0
      vertex 33 82 15
      vertex 33 82 0
    endloop
  endfacet
  facet normal 0 -1 0
    outer loop
      vertex 33 102 0
      vertex 53 102 15
      vertex 33 102 15
    endloop
  endfacet
  facet normal 0 -1 -0
    outer loop
      vertex 53 102 15
      vertex 33 102 0
      vertex 53 102 0
    endloop
  endfacet
  facet normal 0 1 -0
    outer loop
      vertex 53 82 0
      vertex 33 82 15
      vertex 53 82 15
    endloop
  endfacet
  facet normal 0 1 0
    outer loop
      vertex 33 82 15
      vertex 53 82 0
      vertex 33 82 0
    endloop
  endfacet
  facet normal -0.707107 -0.707107 0
    outer loop
      vertex 11.4722 10.85 0
      vertex 10.85 11.4722 15
      vertex 10.85 11.4722 0
    endloop
  endfacet
  facet normal -0.707107 -0.707107 0
    outer loop
      vertex 10.85 11.4722 15
      vertex 11.4722 10.85 0
      vertex 11.4722 10.85 15
    endloop
  endfacet
  facet normal -0.965914 -0.258865 0
    outer loop
      vertex 11.7 10 0
      vertex 11.4722 10.85 15
      vertex 11.4722 10.85 0
    endloop
  endfacet
  facet normal -0.965914 -0.258865 0
    outer loop
      vertex 11.4722 10.85 15
      vertex 11.7 10 0
      vertex 11.7 10 15
    endloop
  endfacet
  facet normal -0.258865 -0.965914 0
    outer loop
      vertex 10 11.7 0
      vertex 10.85 11.4722 15
      vertex 10 11.7 15
    endloop
  endfacet
  facet normal -0.258865 -0.965914 -0
    outer loop
      vertex 10.85 11.4722 15
      vertex 10 11.7 0
      vertex 10.85 11.4722 0
    endloop
  endfacet
  facet normal 0.707084 -0.70713 0
    outer loop
      vertex 8.52776 10.85 15
      vertex 9.15 11.4722 0
      vertex 9.15 11.4722 15
    endloop
  endfacet
  facet normal 0.707084 -0.70713 0
    outer loop
      vertex 9.15 11.4722 0
      vertex 8.52776 10.85 15
      vertex 8.52776 10.85 0
    endloop
  endfacet
  facet normal -0.258822 0.965925 0
    outer loop
      vertex 10.85 8.52776 0
      vertex 10 8.3 15
      vertex 10.85 8.52776 15
    endloop
  endfacet
  facet normal -0.258822 0.965925 0
    outer loop
      vertex 10 8.3 15
      vertex 10.85 8.52776 0
      vertex 10 8.3 0
    endloop
  endfacet
  facet normal -0.70713 0.707084 0
    outer loop
      vertex 10.85 8.52776 0
      vertex 11.4722 9.15 15
      vertex 11.4722 9.15 0
    endloop
  endfacet
  facet normal -0.70713 0.707084 0
    outer loop
      vertex 11.4722 9.15 15
      vertex 10.85 8.52776 0
      vertex 10.85 8.52776 15
    endloop
  endfacet
  facet normal 0.707107 0.707107 0
    outer loop
      vertex 9.15 8.52776 15
      vertex 8.52776 9.15 0
      vertex 8.52776 9.15 15
    endloop
  endfacet
  facet normal 0.707107 0.707107 0
    outer loop
      vertex 8.52776 9.15 0
      vertex 9.15 8.52776 15
      vertex 9.15 8.52776 0
    endloop
  endfacet
  facet normal 0.258865 -0.965914 0
    outer loop
      vertex 9.15 11.4722 0
      vertex 10 11.7 15
      vertex 9.15 11.4722 15
    endloop
  endfacet
  facet normal 0.258865 -0.965914 0
    outer loop
      vertex 10 11.7 15
      vertex 9.15 11.4722 0
      vertex 10 11.7 0
    endloop
  endfacet
  facet normal 0.258822 0.965925 -0
    outer loop
      vertex 10 8.3 0
      vertex 9.15 8.52776 15
      vertex 10 8.3 15
    endloop
  endfacet
  facet normal 0.258822 0.965925 0
    outer loop
      vertex 9.15 8.52776 15
      vertex 10 8.3 0
      vertex 9.15 8.52776 0
    endloop
  endfacet
  facet normal -0.965914 0.258865 0
    outer loop
      vertex 11.4722 9.15 0
      vertex 11.7 10 15
      vertex 11.7 10 0
    endloop
  endfacet
  facet normal -0.965914 0.258865 0
    outer loop
      vertex 11.7 10 15
      vertex 11.4722 9.15 0
      vertex 11.4722 9.15 15
    endloop
  endfacet
  facet normal 0.965925 0.258822 0
    outer loop
      vertex 8.52776 9.15 15
      vertex 8.3 10 0
      vertex 8.3 10 15
    endloop
  endfacet
  facet normal 0.965925 0.258822 0
    outer loop
      vertex 8.3 10 0
      vertex 8.52776 9.15 15
      vertex 8.52776 9.15 0
    endloop
  endfacet
  facet normal 0.965925 -0.258822 0
    outer loop
      vertex 8.3 10 15
      vertex 8.52776 10.85 0
      vertex 8.52776 10.85 15
    endloop
  endfacet
  facet normal 0.965925 -0.258822 0
    outer loop
      vertex 8.52776 10.85 0
      vertex 8.3 10 15
      vertex 8.3 10 0
    endloop
  endfacet
  facet normal -0.707107 -0.707107 0
    outer loop
      vertex 76.85 11.4722 0
      vertex 77.4722 10.85 15
      vertex 76.85 11.4722 15
    endloop
  endfacet
  facet normal -0.707107 -0.707107 -0
    outer loop
      vertex 77.4722 10.85 15
      vertex 76.85 11.4722 0
      vertex 77.4722 10.85 0
    endloop
  endfacet
  facet normal -0.965914 -0.258865 0
    outer loop
      vertex 77.7 10 0
      vertex 77.4722 10.85 15
      vertex 77.4722 10.85 0
    endloop
  endfacet
  facet normal -0.965914 -0.258865 0
    outer loop
      vertex 77.4722 10.85 15
      vertex 77.7 10 0
      vertex 77.7 10 15
    endloop
  endfacet
  facet normal -0.258865 -0.965914 0
    outer loop
      vertex 76 11.7 0
      vertex 76.85 11.4722 15
      vertex 76 11.7 15
    endloop
  endfacet
  facet normal -0.258865 -0.965914 -0
    outer loop
      vertex 76.85 11.4722 15
      vertex 76 11.7 0
      vertex 76.85 11.4722 0
    endloop
  endfacet
  facet normal 0.707107 -0.707107 0
    outer loop
      vertex 74.5278 10.85 0
      vertex 75.15 11.4722 15
      vertex 74.5278 10.85 15
    endloop
  endfacet
  facet normal 0.707107 -0.707107 0
    outer loop
      vertex 75.15 11.4722 15
      vertex 74.5278 10.85 0
      vertex 75.15 11.4722 0
    endloop
  endfacet
  facet normal -0.258822 0.965925 0
    outer loop
      vertex 76.85 8.52776 0
      vertex 76 8.3 15
      vertex 76.85 8.52776 15
    endloop
  endfacet
  facet normal -0.258822 0.965925 0
    outer loop
      vertex 76 8.3 15
      vertex 76.85 8.52776 0
      vertex 76 8.3 0
    endloop
  endfacet
  facet normal -0.70713 0.707084 0
    outer loop
      vertex 77.4722 9.15 0
      vertex 76.85 8.52776 15
      vertex 77.4722 9.15 15
    endloop
  endfacet
  facet normal -0.70713 0.707084 0
    outer loop
      vertex 76.85 8.52776 15
      vertex 77.4722 9.15 0
      vertex 76.85 8.52776 0
    endloop
  endfacet
  facet normal 0.70713 0.707084 -0
    outer loop
      vertex 75.15 8.52776 0
      vertex 74.5278 9.15 15
      vertex 75.15 8.52776 15
    endloop
  endfacet
  facet normal 0.70713 0.707084 0
    outer loop
      vertex 74.5278 9.15 15
      vertex 75.15 8.52776 0
      vertex 74.5278 9.15 0
    endloop
  endfacet
  facet normal 0.258865 -0.965914 0
    outer loop
      vertex 75.15 11.4722 0
      vertex 76 11.7 15
      vertex 75.15 11.4722 15
    endloop
  endfacet
  facet normal 0.258865 -0.965914 0
    outer loop
      vertex 76 11.7 15
      vertex 75.15 11.4722 0
      vertex 76 11.7 0
    endloop
  endfacet
  facet normal 0.258822 0.965925 -0
    outer loop
      vertex 76 8.3 0
      vertex 75.15 8.52776 15
      vertex 76 8.3 15
    endloop
  endfacet
  facet normal 0.258822 0.965925 0
    outer loop
      vertex 75.15 8.52776 15
      vertex 76 8.3 0
      vertex 75.15 8.52776 0
    endloop
  endfacet
  facet normal -0.965914 0.258865 0
    outer loop
      vertex 77.4722 9.15 0
      vertex 77.7 10 15
      vertex 77.7 10 0
    endloop
  endfacet
  facet normal -0.965914 0.258865 0
    outer loop
      vertex 77.7 10 15
      vertex 77.4722 9.15 0
      vertex 77.4722 9.15 15
    endloop
  endfacet
  facet normal 0.965914 0.258865 0
    outer loop
      vertex 74.5278 9.15 15
      vertex 74.3 10 0
      vertex 74.3 10 15
    endloop
  endfacet
  facet normal 0.965914 0.258865 0
    outer loop
      vertex 74.3 10 0
      vertex 74.5278 9.15 15
      vertex 74.5278 9.15 0
    endloop
  endfacet
  facet normal 0.965914 -0.258865 0
    outer loop
      vertex 74.3 10 15
      vertex 74.5278 10.85 0
      vertex 74.5278 10.85 15
    endloop
  endfacet
  facet normal 0.965914 -0.258865 0
    outer loop
      vertex 74.5278 10.85 0
      vertex 74.3 10 15
      vertex 74.3 10 0
    endloop
  endfacet
  facet normal -0.706993 -0.70722 0
    outer loop
      vertex 11.4722 124.85 0
      vertex 10.85 125.472 15
      vertex 10.85 125.472 0
    endloop
  endfacet
  facet normal -0.706993 -0.70722 0
    outer loop
      vertex 10.85 125.472 15
      vertex 11.4722 124.85 0
      vertex 11.4722 124.85 15
    endloop
  endfacet
  facet normal -0.965914 -0.258865 0
    outer loop
      vertex 11.7 124 0
      vertex 11.4722 124.85 15
      vertex 11.4722 124.85 0
    endloop
  endfacet
  facet normal -0.965914 -0.258865 0
    outer loop
      vertex 11.4722 124.85 15
      vertex 11.7 124 0
      vertex 11.7 124 15
    endloop
  endfacet
  facet normal -0.259077 -0.965857 0
    outer loop
      vertex 10 125.7 0
      vertex 10.85 125.472 15
      vertex 10 125.7 15
    endloop
  endfacet
  facet normal -0.259077 -0.965857 -0
    outer loop
      vertex 10.85 125.472 15
      vertex 10 125.7 0
      vertex 10.85 125.472 0
    endloop
  endfacet
  facet normal 0.70697 -0.707243 0
    outer loop
      vertex 8.52776 124.85 15
      vertex 9.15 125.472 0
      vertex 9.15 125.472 15
    endloop
  endfacet
  facet normal 0.70697 -0.707243 0
    outer loop
      vertex 9.15 125.472 0
      vertex 8.52776 124.85 15
      vertex 8.52776 124.85 0
    endloop
  endfacet
  facet normal -0.259077 0.965857 0
    outer loop
      vertex 10.85 122.528 0
      vertex 10 122.3 15
      vertex 10.85 122.528 15
    endloop
  endfacet
  facet normal -0.259077 0.965857 0
    outer loop
      vertex 10 122.3 15
      vertex 10.85 122.528 0
      vertex 10 122.3 0
    endloop
  endfacet
  facet normal -0.706993 0.70722 0
    outer loop
      vertex 10.85 122.528 0
      vertex 11.4722 123.15 15
      vertex 11.4722 123.15 0
    endloop
  endfacet
  facet normal -0.706993 0.70722 0
    outer loop
      vertex 11.4722 123.15 15
      vertex 10.85 122.528 0
      vertex 10.85 122.528 15
    endloop
  endfacet
  facet normal 0.70697 0.707243 0
    outer loop
      vertex 9.15 122.528 15
      vertex 8.52776 123.15 0
      vertex 8.52776 123.15 15
    endloop
  endfacet
  facet normal 0.70697 0.707243 0
    outer loop
      vertex 8.52776 123.15 0
      vertex 9.15 122.528 15
      vertex 9.15 122.528 0
    endloop
  endfacet
  facet normal 0.259077 -0.965857 0
    outer loop
      vertex 9.15 125.472 0
      vertex 10 125.7 15
      vertex 9.15 125.472 15
    endloop
  endfacet
  facet normal 0.259077 -0.965857 0
    outer loop
      vertex 10 125.7 15
      vertex 9.15 125.472 0
      vertex 10 125.7 0
    endloop
  endfacet
  facet normal 0.259077 0.965857 -0
    outer loop
      vertex 10 122.3 0
      vertex 9.15 122.528 15
      vertex 10 122.3 15
    endloop
  endfacet
  facet normal 0.259077 0.965857 0
    outer loop
      vertex 9.15 122.528 15
      vertex 10 122.3 0
      vertex 9.15 122.528 0
    endloop
  endfacet
  facet normal -0.965914 0.258865 0
    outer loop
      vertex 11.4722 123.15 0
      vertex 11.7 124 15
      vertex 11.7 124 0
    endloop
  endfacet
  facet normal -0.965914 0.258865 0
    outer loop
      vertex 11.7 124 15
      vertex 11.4722 123.15 0
      vertex 11.4722 123.15 15
    endloop
  endfacet
  facet normal 0.965925 0.258822 0
    outer loop
      vertex 8.52776 123.15 15
      vertex 8.3 124 0
      vertex 8.3 124 15
    endloop
  endfacet
  facet normal 0.965925 0.258822 0
    outer loop
      vertex 8.3 124 0
      vertex 8.52776 123.15 15
      vertex 8.52776 123.15 0
    endloop
  endfacet
  facet normal 0.965925 -0.258822 0
    outer loop
      vertex 8.3 124 15
      vertex 8.52776 124.85 0
      vertex 8.52776 124.85 15
    endloop
  endfacet
  facet normal 0.965925 -0.258822 0
    outer loop
      vertex 8.52776 124.85 0
      vertex 8.3 124 15
      vertex 8.3 124 0
    endloop
  endfacet
  facet normal -0.706993 -0.70722 0
    outer loop
      vertex 77.4722 124.85 0
      vertex 76.85 125.472 15
      vertex 76.85 125.472 0
    endloop
  endfacet
  facet normal -0.706993 -0.70722 0
    outer loop
      vertex 76.85 125.472 15
      vertex 77.4722 124.85 0
      vertex 77.4722 124.85 15
    endloop
  endfacet
  facet normal -0.965914 -0.258865 0
    outer loop
      vertex 77.7 124 0
      vertex 77.4722 124.85 15
      vertex 77.4722 124.85 0
    endloop
  endfacet
  facet normal -0.965914 -0.258865 0
    outer loop
      vertex 77.4722 124.85 15
      vertex 77.7 124 0
      vertex 77.7 124 15
    endloop
  endfacet
  facet normal -0.259077 -0.965857 0
    outer loop
      vertex 76 125.7 0
      vertex 76.85 125.472 15
      vertex 76 125.7 15
    endloop
  endfacet
  facet normal -0.259077 -0.965857 -0
    outer loop
      vertex 76.85 125.472 15
      vertex 76 125.7 0
      vertex 76.85 125.472 0
    endloop
  endfacet
  facet normal 0.259077 -0.965857 0
    outer loop
      vertex 75.15 125.472 0
      vertex 76 125.7 15
      vertex 75.15 125.472 15
    endloop
  endfacet
  facet normal 0.259077 -0.965857 0
    outer loop
      vertex 76 125.7 15
      vertex 75.15 125.472 0
      vertex 76 125.7 0
    endloop
  endfacet
  facet normal 0.706993 -0.70722 0
    outer loop
      vertex 74.5278 124.85 15
      vertex 75.15 125.472 0
      vertex 75.15 125.472 15
    endloop
  endfacet
  facet normal 0.706993 -0.70722 0
    outer loop
      vertex 75.15 125.472 0
      vertex 74.5278 124.85 15
      vertex 74.5278 124.85 0
    endloop
  endfacet
  facet normal -0.259077 0.965857 0
    outer loop
      vertex 76.85 122.528 0
      vertex 76 122.3 15
      vertex 76.85 122.528 15
    endloop
  endfacet
  facet normal -0.259077 0.965857 0
    outer loop
      vertex 76 122.3 15
      vertex 76.85 122.528 0
      vertex 76 122.3 0
    endloop
  endfacet
  facet normal -0.706993 0.70722 0
    outer loop
      vertex 76.85 122.528 0
      vertex 77.4722 123.15 15
      vertex 77.4722 123.15 0
    endloop
  endfacet
  facet normal -0.706993 0.70722 0
    outer loop
      vertex 77.4722 123.15 15
      vertex 76.85 122.528 0
      vertex 76.85 122.528 15
    endloop
  endfacet
  facet normal 0.706993 0.70722 0
    outer loop
      vertex 75.15 122.528 15
      vertex 74.5278 123.15 0
      vertex 74.5278 123.15 15
    endloop
  endfacet
  facet normal 0.706993 0.70722 0
    outer loop
      vertex 74.5278 123.15 0
      vertex 75.15 122.528 15
      vertex 75.15 122.528 0
    endloop
  endfacet
  facet normal 0.259077 0.965857 -0
    outer loop
      vertex 76 122.3 0
      vertex 75.15 122.528 15
      vertex 76 122.3 15
    endloop
  endfacet
  facet normal 0.259077 0.965857 0
    outer loop
      vertex 75.15 122.528 15
      vertex 76 122.3 0
      vertex 75.15 122.528 0
    endloop
  endfacet
  facet normal -0.965914 0.258865 0
    outer loop
      vertex 77.4722 123.15 0
      vertex 77.7 124 15
      vertex 77.7 124 0
    endloop
  endfacet
  facet normal -0.965914 0.258865 0
    outer loop
      vertex 77.7 124 15
      vertex 77.4722 123.15 0
      vertex 77.4722 123.15 15
    endloop
  endfacet
  facet normal 0.965914 0.258865 0
    outer loop
      vertex 74.5278 123.15 15
      vertex 74.3 124 0
      vertex 74.3 124 15
    endloop
  endfacet
  facet normal 0.965914 0.258865 0
    outer loop
      vertex 74.3 124 0
      vertex 74.5278 123.15 15
      vertex 74.5278 123.15 0
    endloop
  endfacet
  facet normal 0.965914 -0.258865 0
    outer loop
      vertex 74.3 124 15
      vertex 74.5278 124.85 0
      vertex 74.5278 124.85 15
    endloop
  endfacet
  facet normal 0.965914 -0.258865 0
    outer loop
      vertex 74.5278 124.85 0
      vertex 74.3 124 15
      vertex 74.3 124 0
    endloop
  endfacet
  facet normal -1 0 0
    outer loop
      vertex 10 62 0
      vertex 10 72 5
      vertex 10 72 0
    endloop
  endfacet
  facet normal -1 -0 0
    outer loop
      vertex 10 72 5
      vertex 10 62 0
      vertex 10 62 5
    endloop
  endfacet
  facet normal 0 0 -1
    outer loop
      vertex 0 62 5
      vertex 10 72 5
      vertex 10 62 5
    endloop
  endfacet
  facet normal -0 0 -1
    outer loop
      vertex 10 72 5
      vertex 0 62 5
      vertex 0 72 5
    endloop
  endfacet
  facet normal 0 -1 0
    outer loop
      vertex 0 72 0
      vertex 10 72 5
      vertex 0 72 5
    endloop
  endfacet
  facet normal 0 -1 -0
    outer loop
      vertex 10 72 5
      vertex 0 72 0
      vertex 10 72 0
    endloop
  endfacet
  facet normal 0 1 -0
    outer loop
      vertex 10 62 0
      vertex 0 62 5
      vertex 10 62 5
    endloop
  endfacet
  facet normal 0 1 0
    outer loop
      vertex 0 62 5
      vertex 10 62 0
      vertex 0 62 0
    endloop
  endfacet
  facet normal 0 0 -1
    outer loop
      vertex 76 62 5
      vertex 86 72 5
      vertex 86 62 5
    endloop
  endfacet
  facet normal -0 0 -1
    outer loop
      vertex 86 72 5
      vertex 76 62 5
      vertex 76 72 5
    endloop
  endfacet
  facet normal 1 -0 0
    outer loop
      vertex 76 62 5
      vertex 76 72 0
      vertex 76 72 5
    endloop
  endfacet
  facet normal 1 0 0
    outer loop
      vertex 76 72 0
      vertex 76 62 5
      vertex 76 62 0
    endloop
  endfacet
  facet normal 0 -1 0
    outer loop
      vertex 76 72 0
      vertex 86 72 5
      vertex 76 72 5
    endloop
  endfacet
  facet normal 0 -1 -0
    outer loop
      vertex 86 72 5
      vertex 76 72 0
      vertex 86 72 0
    endloop
  endfacet
  facet normal 0 1 -0
    outer loop
      vertex 86 62 0
      vertex 76 62 5
      vertex 86 62 5
    endloop
  endfacet
  facet normal 0 1 0
    outer loop
      vertex 76 62 5
      vertex 86 62 0
      vertex 76 62 0
    endloop
  endfacet
  facet normal -0.382676 0 -0.923883
    outer loop
      vertex 18 0 10
      vertex 19.7678 8 9.26777
      vertex 19.7678 0 9.26777
    endloop
  endfacet
  facet normal -0.382676 0 -0.923883
    outer loop
      vertex 19.7678 8 9.26777
      vertex 18 0 10
      vertex 18 8 10
    endloop
  endfacet
  facet normal -0.923886 0 -0.382668
    outer loop
      vertex 20.5 0 7.5
      vertex 19.7678 8 9.26777
      vertex 20.5 8 7.5
    endloop
  endfacet
  facet normal -0.923886 -0 -0.382668
    outer loop
      vertex 19.7678 8 9.26777
      vertex 20.5 0 7.5
      vertex 19.7678 0 9.26777
    endloop
  endfacet
  facet normal 0.382676 0 -0.923883
    outer loop
      vertex 16.2322 0 9.26777
      vertex 18 8 10
      vertex 18 0 10
    endloop
  endfacet
  facet normal 0.382676 0 -0.923883
    outer loop
      vertex 18 8 10
      vertex 16.2322 0 9.26777
      vertex 16.2322 8 9.26777
    endloop
  endfacet
  facet normal 0.923886 0 -0.382668
    outer loop
      vertex 16.2322 0 9.26777
      vertex 15.5 8 7.5
      vertex 16.2322 8 9.26777
    endloop
  endfacet
  facet normal 0.923886 0 -0.382668
    outer loop
      vertex 15.5 8 7.5
      vertex 16.2322 0 9.26777
      vertex 15.5 0 7.5
    endloop
  endfacet
  facet normal -0.382676 0 0.923883
    outer loop
      vertex 18 8 5
      vertex 19.7678 0 5.73223
      vertex 19.7678 8 5.73223
    endloop
  endfacet
  facet normal -0.382676 0 0.923883
    outer loop
      vertex 19.7678 0 5.73223
      vertex 18 8 5
      vertex 18 0 5
    endloop
  endfacet
  facet normal 0.923886 -0 0.382668
    outer loop
      vertex 15.5 0 7.5
      vertex 16.2322 8 5.73223
      vertex 15.5 8 7.5
    endloop
  endfacet
  facet normal 0.923886 0 0.382668
    outer loop
      vertex 16.2322 8 5.73223
      vertex 15.5 0 7.5
      vertex 16.2322 0 5.73223
    endloop
  endfacet
  facet normal -0.923886 0 0.382668
    outer loop
      vertex 19.7678 0 5.73223
      vertex 20.5 8 7.5
      vertex 19.7678 8 5.73223
    endloop
  endfacet
  facet normal -0.923886 0 0.382668
    outer loop
      vertex 20.5 8 7.5
      vertex 19.7678 0 5.73223
      vertex 20.5 0 7.5
    endloop
  endfacet
  facet normal 0.382676 0 0.923883
    outer loop
      vertex 16.2322 8 5.73223
      vertex 18 0 5
      vertex 18 8 5
    endloop
  endfacet
  facet normal 0.382676 0 0.923883
    outer loop
      vertex 18 0 5
      vertex 16.2322 8 5.73223
      vertex 16.2322 0 5.73223
    endloop
  endfacet
  facet normal 0 -1 0
    outer loop
      vertex 16.2322 8 9.26777
      vertex 19.7678 8 9.26777
      vertex 18 8 10
    endloop
  endfacet
  facet normal 0 -1 0
    outer loop
      vertex 15.5 8 7.5
      vertex 19.7678 8 9.26777
      vertex 16.2322 8 9.26777
    endloop
  endfacet
  facet normal 0 -1 0
    outer loop
      vertex 15.5 8 7.5
      vertex 20.5 8 7.5
      vertex 19.7678 8 9.26777
    endloop
  endfacet
  facet normal 0 -1 0
    outer loop
      vertex 16.2322 8 5.73223
      vertex 20.5 8 7.5
      vertex 15.5 8 7.5
    endloop
  endfacet
  facet normal 0 -1 0
    outer loop
      vertex 16.2322 8 5.73223
      vertex 19.7678 8 5.73223
      vertex 20.5 8 7.5
    endloop
  endfacet
  facet normal -0 -1 0
    outer loop
      vertex 19.7678 8 5.73223
      vertex 16.2322 8 5.73223
      vertex 18 8 5
    endloop
  endfacet
  facet normal -0.382676 0 -0.923883
    outer loop
      vertex 68 0 10
      vertex 69.7678 8 9.26777
      vertex 69.7678 0 9.26777
    endloop
  endfacet
  facet normal -0.382676 0 -0.923883
    outer loop
      vertex 69.7678 8 9.26777
      vertex 68 0 10
      vertex 68 8 10
    endloop
  endfacet
  facet normal -0.923886 0 -0.382668
    outer loop
      vertex 70.5 0 7.5
      vertex 69.7678 8 9.26777
      vertex 70.5 8 7.5
    endloop
  endfacet
  facet normal -0.923886 -0 -0.382668
    outer loop
      vertex 69.7678 8 9.26777
      vertex 70.5 0 7.5
      vertex 69.7678 0 9.26777
    endloop
  endfacet
  facet normal 0.382676 0 -0.923883
    outer loop
      vertex 66.2322 0 9.26777
      vertex 68 8 10
      vertex 68 0 10
    endloop
  endfacet
  facet normal 0.382676 0 -0.923883
    outer loop
      vertex 68 8 10
      vertex 66.2322 0 9.26777
      vertex 66.2322 8 9.26777
    endloop
  endfacet
  facet normal 0.923886 0 -0.382668
    outer loop
      vertex 66.2322 0 9.26777
      vertex 65.5 8 7.5
      vertex 66.2322 8 9.26777
    endloop
  endfacet
  facet normal 0.923886 0 -0.382668
    outer loop
      vertex 65.5 8 7.5
      vertex 66.2322 0 9.26777
      vertex 65.5 0 7.5
    endloop
  endfacet
  facet normal -0.382676 0 0.923883
    outer loop
      vertex 68 8 5
      vertex 69.7678 0 5.73223
      vertex 69.7678 8 5.73223
    endloop
  endfacet
  facet normal -0.382676 0 0.923883
    outer loop
      vertex 69.7678 0 5.73223
      vertex 68 8 5
      vertex 68 0 5
    endloop
  endfacet
  facet normal -0.923886 0 0.382668
    outer loop
      vertex 69.7678 0 5.73223
      vertex 70.5 8 7.5
      vertex 69.7678 8 5.73223
    endloop
  endfacet
  facet normal -0.923886 0 0.382668
    outer loop
      vertex 70.5 8 7.5
      vertex 69.7678 0 5.73223
      vertex 70.5 0 7.5
    endloop
  endfacet
  facet normal 0.923886 -0 0.382668
    outer loop
      vertex 65.5 0 7.5
      vertex 66.2322 8 5.73223
      vertex 65.5 8 7.5
    endloop
  endfacet
  facet normal 0.923886 0 0.382668
    outer loop
      vertex 66.2322 8 5.73223
      vertex 65.5 0 7.5
      vertex 66.2322 0 5.73223
    endloop
  endfacet
  facet normal 0.382676 0 0.923883
    outer loop
      vertex 66.2322 8 5.73223
      vertex 68 0 5
      vertex 68 8 5
    endloop
  endfacet
  facet normal 0.382676 0 0.923883
    outer loop
      vertex 68 0 5
      vertex 66.2322 8 5.73223
      vertex 66.2322 0 5.73223
    endloop
  endfacet
  facet normal 0 -1 0
    outer loop
      vertex 66.2322 8 9.26777
      vertex 69.7678 8 9.26777
      vertex 68 8 10
    endloop
  endfacet
  facet normal 0 -1 0
    outer loop
      vertex 65.5 8 7.5
      vertex 69.7678 8 9.26777
      vertex 66.2322 8 9.26777
    endloop
  endfacet
  facet normal 0 -1 0
    outer loop
      vertex 65.5 8 7.5
      vertex 70.5 8 7.5
      vertex 69.7678 8 9.26777
    endloop
  endfacet
  facet normal 0 -1 0
    outer loop
      vertex 66.2322 8 5.73223
      vertex 70.5 8 7.5
      vertex 65.5 8 7.5
    endloop
  endfacet
  facet normal 0 -1 0
    outer loop
      vertex 66.2322 8 5.73223
      vertex 69.7678 8 5.73223
      vertex 70.5 8 7.5
    endloop
  endfacet
  facet normal -0 -1 0
    outer loop
      vertex 69.7678 8 5.73223
      vertex 66.2322 8 5.73223
      vertex 68 8 5
    endloop
  endfacet
  facet normal -0.923886 0 -0.382668
    outer loop
      vertex 20.5 126 7.5
      vertex 19.7678 134 9.26777
      vertex 20.5 134 7.5
    endloop
  endfacet
  facet normal -0.923886 -0 -0.382668
    outer loop
      vertex 19.7678 134 9.26777
      vertex 20.5 126 7.5
      vertex 19.7678 126 9.26777
    endloop
  endfacet
  facet normal 0.382676 0 -0.923883
    outer loop
      vertex 16.2322 126 9.26777
      vertex 18 134 10
      vertex 18 126 10
    endloop
  endfacet
  facet normal 0.382676 0 -0.923883
    outer loop
      vertex 18 134 10
      vertex 16.2322 126 9.26777
      vertex 16.2322 134 9.26777
    endloop
  endfacet
  facet normal 0.923886 0 -0.382668
    outer loop
      vertex 16.2322 126 9.26777
      vertex 15.5 134 7.5
      vertex 16.2322 134 9.26777
    endloop
  endfacet
  facet normal 0.923886 0 -0.382668
    outer loop
      vertex 15.5 134 7.5
      vertex 16.2322 126 9.26777
      vertex 15.5 126 7.5
    endloop
  endfacet
  facet normal -0.382676 0 0.923883
    outer loop
      vertex 18 134 5
      vertex 19.7678 126 5.73223
      vertex 19.7678 134 5.73223
    endloop
  endfacet
  facet normal -0.382676 0 0.923883
    outer loop
      vertex 19.7678 126 5.73223
      vertex 18 134 5
      vertex 18 126 5
    endloop
  endfacet
  facet normal 0.923886 -0 0.382668
    outer loop
      vertex 15.5 126 7.5
      vertex 16.2322 134 5.73223
      vertex 15.5 134 7.5
    endloop
  endfacet
  facet normal 0.923886 0 0.382668
    outer loop
      vertex 16.2322 134 5.73223
      vertex 15.5 126 7.5
      vertex 16.2322 126 5.73223
    endloop
  endfacet
  facet normal -0.923886 0 0.382668
    outer loop
      vertex 19.7678 126 5.73223
      vertex 20.5 134 7.5
      vertex 19.7678 134 5.73223
    endloop
  endfacet
  facet normal -0.923886 0 0.382668
    outer loop
      vertex 20.5 134 7.5
      vertex 19.7678 126 5.73223
      vertex 20.5 126 7.5
    endloop
  endfacet
  facet normal 0.382676 0 0.923883
    outer loop
      vertex 16.2322 134 5.73223
      vertex 18 126 5
      vertex 18 134 5
    endloop
  endfacet
  facet normal 0.382676 0 0.923883
    outer loop
      vertex 18 126 5
      vertex 16.2322 134 5.73223
      vertex 16.2322 126 5.73223
    endloop
  endfacet
  facet normal 0 1 0
    outer loop
      vertex 19.7678 126 9.26777
      vertex 16.2322 126 9.26777
      vertex 18 126 10
    endloop
  endfacet
  facet normal 0 1 0
    outer loop
      vertex 20.5 126 7.5
      vertex 16.2322 126 9.26777
      vertex 19.7678 126 9.26777
    endloop
  endfacet
  facet normal 0 1 0
    outer loop
      vertex 20.5 126 7.5
      vertex 15.5 126 7.5
      vertex 16.2322 126 9.26777
    endloop
  endfacet
  facet normal 0 1 -0
    outer loop
      vertex 19.7678 126 5.73223
      vertex 15.5 126 7.5
      vertex 20.5 126 7.5
    endloop
  endfacet
  facet normal 0 1 0
    outer loop
      vertex 19.7678 126 5.73223
      vertex 16.2322 126 5.73223
      vertex 15.5 126 7.5
    endloop
  endfacet
  facet normal -0 1 0
    outer loop
      vertex 16.2322 126 5.73223
      vertex 19.7678 126 5.73223
      vertex 18 126 5
    endloop
  endfacet
  facet normal -0.382676 0 -0.923883
    outer loop
      vertex 18 126 10
      vertex 19.7678 134 9.26777
      vertex 19.7678 126 9.26777
    endloop
  endfacet
  facet normal -0.382676 0 -0.923883
    outer loop
      vertex 19.7678 134 9.26777
      vertex 18 126 10
      vertex 18 134 10
    endloop
  endfacet
  facet normal -0.923886 0 -0.382668
    outer loop
      vertex 70.5 126 7.5
      vertex 69.7678 134 9.26777
      vertex 70.5 134 7.5
    endloop
  endfacet
  facet normal -0.923886 -0 -0.382668
    outer loop
      vertex 69.7678 134 9.26777
      vertex 70.5 126 7.5
      vertex 69.7678 126 9.26777
    endloop
  endfacet
  facet normal 0.382676 0 -0.923883
    outer loop
      vertex 66.2322 126 9.26777
      vertex 68 134 10
      vertex 68 126 10
    endloop
  endfacet
  facet normal 0.382676 0 -0.923883
    outer loop
      vertex 68 134 10
      vertex 66.2322 126 9.26777
      vertex 66.2322 134 9.26777
    endloop
  endfacet
  facet normal 0.923886 0 -0.382668
    outer loop
      vertex 66.2322 126 9.26777
      vertex 65.5 134 7.5
      vertex 66.2322 134 9.26777
    endloop
  endfacet
  facet normal 0.923886 0 -0.382668
    outer loop
      vertex 65.5 134 7.5
      vertex 66.2322 126 9.26777
      vertex 65.5 126 7.5
    endloop
  endfacet
  facet normal -0.382676 0 0.923883
    outer loop
      vertex 68 134 5
      vertex 69.7678 126 5.73223
      vertex 69.7678 134 5.73223
    endloop
  endfacet
  facet normal -0.382676 0 0.923883
    outer loop
      vertex 69.7678 126 5.73223
      vertex 68 134 5
      vertex 68 126 5
    endloop
  endfacet
  facet normal 0.923886 -0 0.382668
    outer loop
      vertex 65.5 126 7.5
      vertex 66.2322 134 5.73223
      vertex 65.5 134 7.5
    endloop
  endfacet
  facet normal 0.923886 0 0.382668
    outer loop
      vertex 66.2322 134 5.73223
      vertex 65.5 126 7.5
      vertex 66.2322 126 5.73223
    endloop
  endfacet
  facet normal -0.923886 0 0.382668
    outer loop
      vertex 69.7678 126 5.73223
      vertex 70.5 134 7.5
      vertex 69.7678 134 5.73223
    endloop
  endfacet
  facet normal -0.923886 0 0.382668
    outer loop
      vertex 70.5 134 7.5
      vertex 69.7678 126 5.73223
      vertex 70.5 126 7.5
    endloop
  endfacet
  facet normal 0.382676 0 0.923883
    outer loop
      vertex 66.2322 134 5.73223
      vertex 68 126 5
      vertex 68 134 5
    endloop
  endfacet
  facet normal 0.382676 0 0.923883
    outer loop
      vertex 68 126 5
      vertex 66.2322 134 5.73223
      vertex 66.2322 126 5.73223
    endloop
  endfacet
  facet normal -0.382676 0 -0.923883
    outer loop
      vertex 68 126 10
      vertex 69.7678 134 9.26777
      vertex 69.7678 126 9.26777
    endloop
  endfacet
  facet normal -0.382676 0 -0.923883
    outer loop
      vertex 69.7678 134 9.26777
      vertex 68 126 10
      vertex 68 134 10
    endloop
  endfacet
  facet normal 0 1 0
    outer loop
      vertex 69.7678 126 9.26777
      vertex 66.2322 126 9.26777
      vertex 68 126 10
    endloop
  endfacet
  facet normal 0 1 0
    outer loop
      vertex 70.5 126 7.5
      vertex 66.2322 126 9.26777
      vertex 69.7678 126 9.26777
    endloop
  endfacet
  facet normal 0 1 0
    outer loop
      vertex 70.5 126 7.5
      vertex 65.5 126 7.5
      vertex 66.2322 126 9.26777
    endloop
  endfacet
  facet normal 0 1 -0
    outer loop
      vertex 69.7678 126 5.73223
      vertex 65.5 126 7.5
      vertex 70.5 126 7.5
    endloop
  endfacet
  facet normal 0 1 0
    outer loop
      vertex 69.7678 126 5.73223
      vertex 66.2322 126 5.73223
      vertex 65.5 126 7.5
    endloop
  endfacet
  facet normal -0 1 0
    outer loop
      vertex 66.2322 126 5.73223
      vertex 69.7678 126 5.73223
      vertex 68 126 5
    endloop
  endfacet
endsolid OpenSCAD_Model
