solid OpenSCAD_Model
  facet normal 1 0 0
    outer loop
      vertex 86 134 43
      vertex 86 68.9499 18.445
      vertex 86 134 0
    endloop
  endfacet
  facet normal 1 0 0
    outer loop
      vertex 86 134 43
      vertex 86 67.8678 19.8019
      vertex 86 68.9499 18.445
    endloop
  endfacet
  facet normal 1 0 0
    outer loop
      vertex 86 134 43
      vertex 86 66.1322 19.8019
      vertex 86 67.8678 19.8019
    endloop
  endfacet
  facet normal 1 0 0
    outer loop
      vertex 86 66.1322 19.8019
      vertex 86 0 43
      vertex 86 65.0501 18.445
    endloop
  endfacet
  facet normal 1 -0 0
    outer loop
      vertex 86 0 43
      vertex 86 66.1322 19.8019
      vertex 86 134 43
    endloop
  endfacet
  facet normal 1 -0 0
    outer loop
      vertex 86 68.5637 16.753
      vertex 86 134 0
      vertex 86 68.9499 18.445
    endloop
  endfacet
  facet normal 1 -0 0
    outer loop
      vertex 86 67 16
      vertex 86 134 0
      vertex 86 68.5637 16.753
    endloop
  endfacet
  facet normal 1 0 0
    outer loop
      vertex 86 0 0
      vertex 86 65.0501 18.445
      vertex 86 0 43
    endloop
  endfacet
  facet normal 1 0 0
    outer loop
      vertex 86 65.0501 18.445
      vertex 86 0 0
      vertex 86 65.4363 16.753
    endloop
  endfacet
  facet normal 1 0 0
    outer loop
      vertex 86 67 16
      vertex 86 0 0
      vertex 86 134 0
    endloop
  endfacet
  facet normal 1 0 0
    outer loop
      vertex 86 65.4363 16.753
      vertex 86 0 0
      vertex 86 67 16
    endloop
  endfacet
  facet normal 0 0 1
    outer loop
      vertex 86 134 43
      vertex 83 131 43
      vertex 86 0 43
    endloop
  endfacet
  facet normal 0 0 1
    outer loop
      vertex 86 134 43
      vertex 3 131 43
      vertex 83 131 43
    endloop
  endfacet
  facet normal 0 0 1
    outer loop
      vertex 3 131 43
      vertex 0 134 43
      vertex 3 3 43
    endloop
  endfacet
  facet normal -0 0 1
    outer loop
      vertex 0 134 43
      vertex 3 131 43
      vertex 86 134 43
    endloop
  endfacet
  facet normal -0 0 1
    outer loop
      vertex 83 3 43
      vertex 86 0 43
      vertex 83 131 43
    endloop
  endfacet
  facet normal -0 0 1
    outer loop
      vertex 3 3 43
      vertex 86 0 43
      vertex 83 3 43
    endloop
  endfacet
  facet normal 0 0 1
    outer loop
      vertex 3 3 43
      vertex 0 0 43
      vertex 86 0 43
    endloop
  endfacet
  facet normal 0 0 1
    outer loop
      vertex 0 0 43
      vertex 3 3 43
      vertex 0 134 43
    endloop
  endfacet
  facet normal -1 0 0
    outer loop
      vertex 0 15 0
      vertex 0 0 0
      vertex 0 15 9.2
    endloop
  endfacet
  facet normal -1 0 0
    outer loop
      vertex 0 24.3 9.2
      vertex 0 134 0
      vertex 0 24.3 0
    endloop
  endfacet
  facet normal -1 0 0
    outer loop
      vertex 0 134 0
      vertex 0 24.3 9.2
      vertex 0 134 43
    endloop
  endfacet
  facet normal -1 0 0
    outer loop
      vertex 0 0 43
      vertex 0 24.3 9.2
      vertex 0 15 9.2
    endloop
  endfacet
  facet normal -1 0 0
    outer loop
      vertex 0 24.3 9.2
      vertex 0 0 43
      vertex 0 134 43
    endloop
  endfacet
  facet normal -1 0 0
    outer loop
      vertex 0 0 43
      vertex 0 15 9.2
      vertex 0 0 0
    endloop
  endfacet
  facet normal 0 1 -0
    outer loop
      vertex 86 134 0
      vertex 0 134 43
      vertex 86 134 43
    endloop
  endfacet
  facet normal 0 1 0
    outer loop
      vertex 0 134 43
      vertex 86 134 0
      vertex 0 134 0
    endloop
  endfacet
  facet normal 0 -1 0
    outer loop
      vertex 0 0 0
      vertex 86 0 43
      vertex 0 0 43
    endloop
  endfacet
  facet normal 0 -1 -0
    outer loop
      vertex 86 0 43
      vertex 0 0 0
      vertex 86 0 0
    endloop
  endfacet
  facet normal -1 0 0
    outer loop
      vertex 83 131 10
      vertex 83 68.9499 18.445
      vertex 83 131 43
    endloop
  endfacet
  facet normal -1 0 0
    outer loop
      vertex 83 131 10
      vertex 83 68.5637 16.753
      vertex 83 68.9499 18.445
    endloop
  endfacet
  facet normal -1 0 0
    outer loop
      vertex 83 131 10
      vertex 83 67 16
      vertex 83 68.5637 16.753
    endloop
  endfacet
  facet normal -1 -0 0
    outer loop
      vertex 83 65.4363 16.753
      vertex 83 3 10
      vertex 83 65.0501 18.445
    endloop
  endfacet
  facet normal -1 -0 0
    outer loop
      vertex 83 67 16
      vertex 83 3 10
      vertex 83 65.4363 16.753
    endloop
  endfacet
  facet normal -1 0 0
    outer loop
      vertex 83 3 10
      vertex 83 67 16
      vertex 83 131 10
    endloop
  endfacet
  facet normal -1 0 0
    outer loop
      vertex 83 67.8678 19.8019
      vertex 83 131 43
      vertex 83 68.9499 18.445
    endloop
  endfacet
  facet normal -1 0 0
    outer loop
      vertex 83 66.1322 19.8019
      vertex 83 131 43
      vertex 83 67.8678 19.8019
    endloop
  endfacet
  facet normal -1 0 0
    outer loop
      vertex 83 3 43
      vertex 83 65.0501 18.445
      vertex 83 3 10
    endloop
  endfacet
  facet normal -1 0 0
    outer loop
      vertex 83 65.0501 18.445
      vertex 83 3 43
      vertex 83 66.1322 19.8019
    endloop
  endfacet
  facet normal -1 0 0
    outer loop
      vertex 83 66.1322 19.8019
      vertex 83 3 43
      vertex 83 131 43
    endloop
  endfacet
  facet normal 0 0 1
    outer loop
      vertex 12.7322 94.2322 10
      vertex 26.8606 69.9305 10
      vertex 14.5 93.5 10
    endloop
  endfacet
  facet normal 0 0 1
    outer loop
      vertex 26.5 66.5 10
      vertex 16.2678 39.7678 10
      vertex 17 38 10
    endloop
  endfacet
  facet normal 0 0 1
    outer loop
      vertex 26.8606 69.9305 10
      vertex 12.7322 94.2322 10
      vertex 26.5 66.5 10
    endloop
  endfacet
  facet normal 0 0 1
    outer loop
      vertex 26.5 66.5 10
      vertex 14.5 40.5 10
      vertex 16.2678 39.7678 10
    endloop
  endfacet
  facet normal 0 0 1
    outer loop
      vertex 12.7322 39.7678 10
      vertex 26.5 66.5 10
      vertex 12.7322 94.2322 10
    endloop
  endfacet
  facet normal 0 0 1
    outer loop
      vertex 26.5 66.5 10
      vertex 12.7322 39.7678 10
      vertex 14.5 40.5 10
    endloop
  endfacet
  facet normal 0 0 1
    outer loop
      vertex 12 96 10
      vertex 12.7322 39.7678 10
      vertex 12.7322 94.2322 10
    endloop
  endfacet
  facet normal 0 0 1
    outer loop
      vertex 12.7322 39.7678 10
      vertex 12 96 10
      vertex 12 38 10
    endloop
  endfacet
  facet normal -0 0 1
    outer loop
      vertex 74.2678 94.2322 10
      vertex 75 38 10
      vertex 75 96 10
    endloop
  endfacet
  facet normal 0 0 1
    outer loop
      vertex 74.2678 94.2322 10
      vertex 74.2678 39.7678 10
      vertex 75 38 10
    endloop
  endfacet
  facet normal 0 0 1
    outer loop
      vertex 59.1394 69.9305 10
      vertex 74.2678 94.2322 10
      vertex 72.5 93.5 10
    endloop
  endfacet
  facet normal 0 0 1
    outer loop
      vertex 74.2678 94.2322 10
      vertex 59.5 66.5 10
      vertex 74.2678 39.7678 10
    endloop
  endfacet
  facet normal 0 0 1
    outer loop
      vertex 56.3488 76.1985 10
      vertex 72.5 93.5 10
      vertex 70.7322 94.2322 10
    endloop
  endfacet
  facet normal -0 0 1
    outer loop
      vertex 59.1394 63.0695 10
      vertex 74.2678 39.7678 10
      vertex 59.5 66.5 10
    endloop
  endfacet
  facet normal 0 0 1
    outer loop
      vertex 51.25 80.7894 10
      vertex 70.7322 94.2322 10
      vertex 70 96 10
    endloop
  endfacet
  facet normal 0 0 1
    outer loop
      vertex 74.2678 39.7678 10
      vertex 59.1394 63.0695 10
      vertex 72.5 40.5 10
    endloop
  endfacet
  facet normal 0 0 1
    outer loop
      vertex 83 131 10
      vertex 75 96 10
      vertex 83 3 10
    endloop
  endfacet
  facet normal 0 0 1
    outer loop
      vertex 83 131 10
      vertex 74.2678 97.7678 10
      vertex 75 96 10
    endloop
  endfacet
  facet normal 0 0 1
    outer loop
      vertex 83 131 10
      vertex 72.5 98.5 10
      vertex 74.2678 97.7678 10
    endloop
  endfacet
  facet normal 0 0 1
    outer loop
      vertex 83 131 10
      vertex 70.7322 97.7678 10
      vertex 72.5 98.5 10
    endloop
  endfacet
  facet normal 0 0 1
    outer loop
      vertex 16.2678 97.7678 10
      vertex 70.7322 97.7678 10
      vertex 83 131 10
    endloop
  endfacet
  facet normal -0 0 1
    outer loop
      vertex 58.0735 59.7888 10
      vertex 72.5 40.5 10
      vertex 59.1394 63.0695 10
    endloop
  endfacet
  facet normal 0 0 1
    outer loop
      vertex 74.2678 94.2322 10
      vertex 59.1394 69.9305 10
      vertex 59.5 66.5 10
    endloop
  endfacet
  facet normal 0 -0 1
    outer loop
      vertex 44.7247 82.9096 10
      vertex 70.7322 97.7678 10
      vertex 16.2678 97.7678 10
    endloop
  endfacet
  facet normal 0 0 1
    outer loop
      vertex 72.5 93.5 10
      vertex 58.0735 73.2112 10
      vertex 59.1394 69.9305 10
    endloop
  endfacet
  facet normal 0 0 1
    outer loop
      vertex 72.5 93.5 10
      vertex 56.3488 76.1985 10
      vertex 58.0735 73.2112 10
    endloop
  endfacet
  facet normal 0 0 1
    outer loop
      vertex 70.7322 94.2322 10
      vertex 54.0407 78.7619 10
      vertex 56.3488 76.1985 10
    endloop
  endfacet
  facet normal 0 0 1
    outer loop
      vertex 70.7322 94.2322 10
      vertex 51.25 80.7894 10
      vertex 54.0407 78.7619 10
    endloop
  endfacet
  facet normal 0 0 1
    outer loop
      vertex 70 96 10
      vertex 48.0988 82.1924 10
      vertex 51.25 80.7894 10
    endloop
  endfacet
  facet normal 0 0 1
    outer loop
      vertex 70 96 10
      vertex 44.7247 82.9096 10
      vertex 48.0988 82.1924 10
    endloop
  endfacet
  facet normal 0 0 1
    outer loop
      vertex 70.7322 97.7678 10
      vertex 44.7247 82.9096 10
      vertex 70 96 10
    endloop
  endfacet
  facet normal 0 0 1
    outer loop
      vertex 44.7247 82.9096 10
      vertex 16.2678 97.7678 10
      vertex 41.2753 82.9096 10
    endloop
  endfacet
  facet normal -0 -0 1
    outer loop
      vertex 17 96 10
      vertex 41.2753 82.9096 10
      vertex 16.2678 97.7678 10
    endloop
  endfacet
  facet normal 0 0 1
    outer loop
      vertex 41.2753 82.9096 10
      vertex 17 96 10
      vertex 37.9012 82.1924 10
    endloop
  endfacet
  facet normal 0 0 1
    outer loop
      vertex 29.6512 76.1985 10
      vertex 14.5 93.5 10
      vertex 27.9265 73.2112 10
    endloop
  endfacet
  facet normal -0 0 1
    outer loop
      vertex 14.5 93.5 10
      vertex 29.6512 76.1985 10
      vertex 16.2678 94.2322 10
    endloop
  endfacet
  facet normal 0 0 1
    outer loop
      vertex 31.9593 78.7619 10
      vertex 16.2678 94.2322 10
      vertex 29.6512 76.1985 10
    endloop
  endfacet
  facet normal 0 0 1
    outer loop
      vertex 34.75 80.7894 10
      vertex 16.2678 94.2322 10
      vertex 31.9593 78.7619 10
    endloop
  endfacet
  facet normal -0 0 1
    outer loop
      vertex 16.2678 94.2322 10
      vertex 34.75 80.7894 10
      vertex 17 96 10
    endloop
  endfacet
  facet normal 0 0 1
    outer loop
      vertex 37.9012 82.1924 10
      vertex 17 96 10
      vertex 34.75 80.7894 10
    endloop
  endfacet
  facet normal -0 0 1
    outer loop
      vertex 3 131 10
      vertex 16.2678 97.7678 10
      vertex 83 131 10
    endloop
  endfacet
  facet normal 0 0 1
    outer loop
      vertex 16.2678 97.7678 10
      vertex 3 131 10
      vertex 14.5 98.5 10
    endloop
  endfacet
  facet normal 0 0 1
    outer loop
      vertex 12 96 10
      vertex 3 131 10
      vertex 12 38 10
    endloop
  endfacet
  facet normal 0 0 1
    outer loop
      vertex 12.7322 97.7678 10
      vertex 3 131 10
      vertex 12 96 10
    endloop
  endfacet
  facet normal 0 0 1
    outer loop
      vertex 14.5 98.5 10
      vertex 3 131 10
      vertex 12.7322 97.7678 10
    endloop
  endfacet
  facet normal -0 0 1
    outer loop
      vertex 75 38 10
      vertex 83 3 10
      vertex 75 96 10
    endloop
  endfacet
  facet normal -0 0 1
    outer loop
      vertex 74.2678 36.2322 10
      vertex 83 3 10
      vertex 75 38 10
    endloop
  endfacet
  facet normal -0 0 1
    outer loop
      vertex 72.5 35.5 10
      vertex 83 3 10
      vertex 74.2678 36.2322 10
    endloop
  endfacet
  facet normal 0 0 1
    outer loop
      vertex 70.7322 36.2322 10
      vertex 83 3 10
      vertex 72.5 35.5 10
    endloop
  endfacet
  facet normal 0 0 1
    outer loop
      vertex 44.7247 50.0904 10
      vertex 70.7322 36.2322 10
      vertex 70 38 10
    endloop
  endfacet
  facet normal -0 0 1
    outer loop
      vertex 56.3488 56.8015 10
      vertex 72.5 40.5 10
      vertex 58.0735 59.7888 10
    endloop
  endfacet
  facet normal 0 0 1
    outer loop
      vertex 72.5 40.5 10
      vertex 56.3488 56.8015 10
      vertex 70.7322 39.7678 10
    endloop
  endfacet
  facet normal -0 0 1
    outer loop
      vertex 54.0407 54.2381 10
      vertex 70.7322 39.7678 10
      vertex 56.3488 56.8015 10
    endloop
  endfacet
  facet normal -0 0 1
    outer loop
      vertex 51.25 52.2106 10
      vertex 70.7322 39.7678 10
      vertex 54.0407 54.2381 10
    endloop
  endfacet
  facet normal 0 0 1
    outer loop
      vertex 70.7322 39.7678 10
      vertex 51.25 52.2106 10
      vertex 70 38 10
    endloop
  endfacet
  facet normal -0 0 1
    outer loop
      vertex 48.0988 50.8076 10
      vertex 70 38 10
      vertex 51.25 52.2106 10
    endloop
  endfacet
  facet normal -0 0 1
    outer loop
      vertex 44.7247 50.0904 10
      vertex 70 38 10
      vertex 48.0988 50.8076 10
    endloop
  endfacet
  facet normal 0 0 1
    outer loop
      vertex 70.7322 36.2322 10
      vertex 44.7247 50.0904 10
      vertex 16.2678 36.2322 10
    endloop
  endfacet
  facet normal 0 0 1
    outer loop
      vertex 16.2678 36.2322 10
      vertex 44.7247 50.0904 10
      vertex 41.2753 50.0904 10
    endloop
  endfacet
  facet normal 0 0 1
    outer loop
      vertex 17 38 10
      vertex 41.2753 50.0904 10
      vertex 37.9012 50.8076 10
    endloop
  endfacet
  facet normal 0 0 1
    outer loop
      vertex 17 38 10
      vertex 37.9012 50.8076 10
      vertex 34.75 52.2106 10
    endloop
  endfacet
  facet normal 0 0 1
    outer loop
      vertex 17 38 10
      vertex 34.75 52.2106 10
      vertex 31.9593 54.2381 10
    endloop
  endfacet
  facet normal 0 0 1
    outer loop
      vertex 27.9265 73.2112 10
      vertex 14.5 93.5 10
      vertex 26.8606 69.9305 10
    endloop
  endfacet
  facet normal 0 0 1
    outer loop
      vertex 26.5 66.5 10
      vertex 17 38 10
      vertex 26.8606 63.0695 10
    endloop
  endfacet
  facet normal 0 0 1
    outer loop
      vertex 17 38 10
      vertex 27.9265 59.7888 10
      vertex 26.8606 63.0695 10
    endloop
  endfacet
  facet normal 0 0 1
    outer loop
      vertex 17 38 10
      vertex 29.6512 56.8015 10
      vertex 27.9265 59.7888 10
    endloop
  endfacet
  facet normal 0 0 1
    outer loop
      vertex 17 38 10
      vertex 31.9593 54.2381 10
      vertex 29.6512 56.8015 10
    endloop
  endfacet
  facet normal 0 0 1
    outer loop
      vertex 41.2753 50.0904 10
      vertex 17 38 10
      vertex 16.2678 36.2322 10
    endloop
  endfacet
  facet normal 0 0 1
    outer loop
      vertex 70.7322 36.2322 10
      vertex 16.2678 36.2322 10
      vertex 83 3 10
    endloop
  endfacet
  facet normal 0 0 1
    outer loop
      vertex 3 3 10
      vertex 16.2678 36.2322 10
      vertex 14.5 35.5 10
    endloop
  endfacet
  facet normal 0 0 1
    outer loop
      vertex 3 3 10
      vertex 14.5 35.5 10
      vertex 12.7322 36.2322 10
    endloop
  endfacet
  facet normal 0 0 1
    outer loop
      vertex 16.2678 36.2322 10
      vertex 3 3 10
      vertex 83 3 10
    endloop
  endfacet
  facet normal 0 0 1
    outer loop
      vertex 12 38 10
      vertex 3 3 10
      vertex 12.7322 36.2322 10
    endloop
  endfacet
  facet normal 0 0 1
    outer loop
      vertex 3 3 10
      vertex 12 38 10
      vertex 3 131 10
    endloop
  endfacet
  facet normal 1 -0 0
    outer loop
      vertex 3 3 43
      vertex 3 131 10
      vertex 3 131 43
    endloop
  endfacet
  facet normal 1 0 0
    outer loop
      vertex 3 131 10
      vertex 3 3 43
      vertex 3 3 10
    endloop
  endfacet
  facet normal 0 -1 0
    outer loop
      vertex 3 131 10
      vertex 83 131 43
      vertex 3 131 43
    endloop
  endfacet
  facet normal 0 -1 -0
    outer loop
      vertex 83 131 43
      vertex 3 131 10
      vertex 83 131 10
    endloop
  endfacet
  facet normal 0 1 -0
    outer loop
      vertex 83 3 10
      vertex 3 3 43
      vertex 83 3 43
    endloop
  endfacet
  facet normal 0 1 0
    outer loop
      vertex 3 3 43
      vertex 83 3 10
      vertex 3 3 10
    endloop
  endfacet
  facet normal -0.382663 0.923888 0
    outer loop
      vertex 16.2678 36.2322 5
      vertex 14.5 35.5 10
      vertex 16.2678 36.2322 10
    endloop
  endfacet
  facet normal -0.382663 0.923888 0
    outer loop
      vertex 14.5 35.5 10
      vertex 16.2678 36.2322 5
      vertex 14.5 35.5 5
    endloop
  endfacet
  facet normal -0.382663 -0.923888 0
    outer loop
      vertex 14.5 40.5 5
      vertex 16.2678 39.7678 10
      vertex 14.5 40.5 10
    endloop
  endfacet
  facet normal -0.382663 -0.923888 -0
    outer loop
      vertex 16.2678 39.7678 10
      vertex 14.5 40.5 5
      vertex 16.2678 39.7678 5
    endloop
  endfacet
  facet normal -0.923888 -0.382663 0
    outer loop
      vertex 17 38 5
      vertex 16.2678 39.7678 10
      vertex 16.2678 39.7678 5
    endloop
  endfacet
  facet normal -0.923888 -0.382663 0
    outer loop
      vertex 16.2678 39.7678 10
      vertex 17 38 5
      vertex 17 38 10
    endloop
  endfacet
  facet normal 0.382663 -0.923888 0
    outer loop
      vertex 12.7322 39.7678 5
      vertex 14.5 40.5 10
      vertex 12.7322 39.7678 10
    endloop
  endfacet
  facet normal 0.382663 -0.923888 0
    outer loop
      vertex 14.5 40.5 10
      vertex 12.7322 39.7678 5
      vertex 14.5 40.5 5
    endloop
  endfacet
  facet normal 0 0 1
    outer loop
      vertex 16.2678 39.7678 5
      vertex 16.2678 36.2322 5
      vertex 17 38 5
    endloop
  endfacet
  facet normal 0 0 1
    outer loop
      vertex 14.5 40.5 5
      vertex 16.2678 36.2322 5
      vertex 16.2678 39.7678 5
    endloop
  endfacet
  facet normal 0 0 1
    outer loop
      vertex 14.5 40.5 5
      vertex 14.5 35.5 5
      vertex 16.2678 36.2322 5
    endloop
  endfacet
  facet normal -0 0 1
    outer loop
      vertex 12.7322 39.7678 5
      vertex 14.5 35.5 5
      vertex 14.5 40.5 5
    endloop
  endfacet
  facet normal 0 0 1
    outer loop
      vertex 12.7322 39.7678 5
      vertex 12.7322 36.2322 5
      vertex 14.5 35.5 5
    endloop
  endfacet
  facet normal 0 -0 1
    outer loop
      vertex 12.7322 36.2322 5
      vertex 12.7322 39.7678 5
      vertex 12 38 5
    endloop
  endfacet
  facet normal -0.923888 0.382663 0
    outer loop
      vertex 16.2678 36.2322 5
      vertex 17 38 10
      vertex 17 38 5
    endloop
  endfacet
  facet normal -0.923888 0.382663 0
    outer loop
      vertex 17 38 10
      vertex 16.2678 36.2322 5
      vertex 16.2678 36.2322 10
    endloop
  endfacet
  facet normal 0.923888 0.382663 0
    outer loop
      vertex 12.7322 36.2322 10
      vertex 12 38 5
      vertex 12 38 10
    endloop
  endfacet
  facet normal 0.923888 0.382663 0
    outer loop
      vertex 12 38 5
      vertex 12.7322 36.2322 10
      vertex 12.7322 36.2322 5
    endloop
  endfacet
  facet normal 0.923888 -0.382663 0
    outer loop
      vertex 12 38 10
      vertex 12.7322 39.7678 5
      vertex 12.7322 39.7678 10
    endloop
  endfacet
  facet normal 0.923888 -0.382663 0
    outer loop
      vertex 12.7322 39.7678 5
      vertex 12 38 10
      vertex 12 38 5
    endloop
  endfacet
  facet normal 0.382663 0.923888 -0
    outer loop
      vertex 14.5 35.5 5
      vertex 12.7322 36.2322 10
      vertex 14.5 35.5 10
    endloop
  endfacet
  facet normal 0.382663 0.923888 0
    outer loop
      vertex 12.7322 36.2322 10
      vertex 14.5 35.5 5
      vertex 12.7322 36.2322 5
    endloop
  endfacet
  facet normal 0.382663 0.923888 -0
    outer loop
      vertex 72.5 35.5 5
      vertex 70.7322 36.2322 10
      vertex 72.5 35.5 10
    endloop
  endfacet
  facet normal 0.382663 0.923888 0
    outer loop
      vertex 70.7322 36.2322 10
      vertex 72.5 35.5 5
      vertex 70.7322 36.2322 5
    endloop
  endfacet
  facet normal -0.382663 -0.923888 0
    outer loop
      vertex 72.5 40.5 5
      vertex 74.2678 39.7678 10
      vertex 72.5 40.5 10
    endloop
  endfacet
  facet normal -0.382663 -0.923888 -0
    outer loop
      vertex 74.2678 39.7678 10
      vertex 72.5 40.5 5
      vertex 74.2678 39.7678 5
    endloop
  endfacet
  facet normal -0.923888 -0.382663 0
    outer loop
      vertex 75 38 5
      vertex 74.2678 39.7678 10
      vertex 74.2678 39.7678 5
    endloop
  endfacet
  facet normal -0.923888 -0.382663 0
    outer loop
      vertex 74.2678 39.7678 10
      vertex 75 38 5
      vertex 75 38 10
    endloop
  endfacet
  facet normal 0.382663 -0.923888 0
    outer loop
      vertex 70.7322 39.7678 5
      vertex 72.5 40.5 10
      vertex 70.7322 39.7678 10
    endloop
  endfacet
  facet normal 0.382663 -0.923888 0
    outer loop
      vertex 72.5 40.5 10
      vertex 70.7322 39.7678 5
      vertex 72.5 40.5 5
    endloop
  endfacet
  facet normal -0.382663 0.923888 0
    outer loop
      vertex 74.2678 36.2322 5
      vertex 72.5 35.5 10
      vertex 74.2678 36.2322 10
    endloop
  endfacet
  facet normal -0.382663 0.923888 0
    outer loop
      vertex 72.5 35.5 10
      vertex 74.2678 36.2322 5
      vertex 72.5 35.5 5
    endloop
  endfacet
  facet normal -0.923888 0.382663 0
    outer loop
      vertex 74.2678 36.2322 5
      vertex 75 38 10
      vertex 75 38 5
    endloop
  endfacet
  facet normal -0.923888 0.382663 0
    outer loop
      vertex 75 38 10
      vertex 74.2678 36.2322 5
      vertex 74.2678 36.2322 10
    endloop
  endfacet
  facet normal 0.923888 0.382663 0
    outer loop
      vertex 70.7322 36.2322 10
      vertex 70 38 5
      vertex 70 38 10
    endloop
  endfacet
  facet normal 0.923888 0.382663 0
    outer loop
      vertex 70 38 5
      vertex 70.7322 36.2322 10
      vertex 70.7322 36.2322 5
    endloop
  endfacet
  facet normal 0.923888 -0.382663 0
    outer loop
      vertex 70 38 10
      vertex 70.7322 39.7678 5
      vertex 70.7322 39.7678 10
    endloop
  endfacet
  facet normal 0.923888 -0.382663 0
    outer loop
      vertex 70.7322 39.7678 5
      vertex 70 38 10
      vertex 70 38 5
    endloop
  endfacet
  facet normal 0 0 1
    outer loop
      vertex 74.2678 39.7678 5
      vertex 74.2678 36.2322 5
      vertex 75 38 5
    endloop
  endfacet
  facet normal 0 0 1
    outer loop
      vertex 72.5 40.5 5
      vertex 74.2678 36.2322 5
      vertex 74.2678 39.7678 5
    endloop
  endfacet
  facet normal 0 0 1
    outer loop
      vertex 72.5 40.5 5
      vertex 72.5 35.5 5
      vertex 74.2678 36.2322 5
    endloop
  endfacet
  facet normal -0 0 1
    outer loop
      vertex 70.7322 39.7678 5
      vertex 72.5 35.5 5
      vertex 72.5 40.5 5
    endloop
  endfacet
  facet normal 0 0 1
    outer loop
      vertex 70.7322 39.7678 5
      vertex 70.7322 36.2322 5
      vertex 72.5 35.5 5
    endloop
  endfacet
  facet normal 0 -0 1
    outer loop
      vertex 70.7322 36.2322 5
      vertex 70.7322 39.7678 5
      vertex 70 38 5
    endloop
  endfacet
  facet normal 0.382663 0.923888 -0
    outer loop
      vertex 14.5 93.5 5
      vertex 12.7322 94.2322 10
      vertex 14.5 93.5 10
    endloop
  endfacet
  facet normal 0.382663 0.923888 0
    outer loop
      vertex 12.7322 94.2322 10
      vertex 14.5 93.5 5
      vertex 12.7322 94.2322 5
    endloop
  endfacet
  facet normal -0.382663 -0.923888 0
    outer loop
      vertex 14.5 98.5 5
      vertex 16.2678 97.7678 10
      vertex 14.5 98.5 10
    endloop
  endfacet
  facet normal -0.382663 -0.923888 -0
    outer loop
      vertex 16.2678 97.7678 10
      vertex 14.5 98.5 5
      vertex 16.2678 97.7678 5
    endloop
  endfacet
  facet normal -0.923888 -0.382663 0
    outer loop
      vertex 17 96 5
      vertex 16.2678 97.7678 10
      vertex 16.2678 97.7678 5
    endloop
  endfacet
  facet normal -0.923888 -0.382663 0
    outer loop
      vertex 16.2678 97.7678 10
      vertex 17 96 5
      vertex 17 96 10
    endloop
  endfacet
  facet normal 0.382663 -0.923888 0
    outer loop
      vertex 12.7322 97.7678 5
      vertex 14.5 98.5 10
      vertex 12.7322 97.7678 10
    endloop
  endfacet
  facet normal 0.382663 -0.923888 0
    outer loop
      vertex 14.5 98.5 10
      vertex 12.7322 97.7678 5
      vertex 14.5 98.5 5
    endloop
  endfacet
  facet normal -0.382663 0.923888 0
    outer loop
      vertex 16.2678 94.2322 5
      vertex 14.5 93.5 10
      vertex 16.2678 94.2322 10
    endloop
  endfacet
  facet normal -0.382663 0.923888 0
    outer loop
      vertex 14.5 93.5 10
      vertex 16.2678 94.2322 5
      vertex 14.5 93.5 5
    endloop
  endfacet
  facet normal -0.923888 0.382663 0
    outer loop
      vertex 16.2678 94.2322 5
      vertex 17 96 10
      vertex 17 96 5
    endloop
  endfacet
  facet normal -0.923888 0.382663 0
    outer loop
      vertex 17 96 10
      vertex 16.2678 94.2322 5
      vertex 16.2678 94.2322 10
    endloop
  endfacet
  facet normal 0.923888 0.382663 0
    outer loop
      vertex 12.7322 94.2322 10
      vertex 12 96 5
      vertex 12 96 10
    endloop
  endfacet
  facet normal 0.923888 0.382663 0
    outer loop
      vertex 12 96 5
      vertex 12.7322 94.2322 10
      vertex 12.7322 94.2322 5
    endloop
  endfacet
  facet normal 0.923888 -0.382663 0
    outer loop
      vertex 12 96 10
      vertex 12.7322 97.7678 5
      vertex 12.7322 97.7678 10
    endloop
  endfacet
  facet normal 0.923888 -0.382663 0
    outer loop
      vertex 12.7322 97.7678 5
      vertex 12 96 10
      vertex 12 96 5
    endloop
  endfacet
  facet normal 0 0 1
    outer loop
      vertex 16.2678 97.7678 5
      vertex 16.2678 94.2322 5
      vertex 17 96 5
    endloop
  endfacet
  facet normal 0 0 1
    outer loop
      vertex 14.5 98.5 5
      vertex 16.2678 94.2322 5
      vertex 16.2678 97.7678 5
    endloop
  endfacet
  facet normal 0 0 1
    outer loop
      vertex 14.5 98.5 5
      vertex 14.5 93.5 5
      vertex 16.2678 94.2322 5
    endloop
  endfacet
  facet normal -0 0 1
    outer loop
      vertex 12.7322 97.7678 5
      vertex 14.5 93.5 5
      vertex 14.5 98.5 5
    endloop
  endfacet
  facet normal 0 0 1
    outer loop
      vertex 12.7322 97.7678 5
      vertex 12.7322 94.2322 5
      vertex 14.5 93.5 5
    endloop
  endfacet
  facet normal 0 -0 1
    outer loop
      vertex 12.7322 94.2322 5
      vertex 12.7322 97.7678 5
      vertex 12 96 5
    endloop
  endfacet
  facet normal 0.382663 0.923888 -0
    outer loop
      vertex 72.5 93.5 5
      vertex 70.7322 94.2322 10
      vertex 72.5 93.5 10
    endloop
  endfacet
  facet normal 0.382663 0.923888 0
    outer loop
      vertex 70.7322 94.2322 10
      vertex 72.5 93.5 5
      vertex 70.7322 94.2322 5
    endloop
  endfacet
  facet normal -0.382663 -0.923888 0
    outer loop
      vertex 72.5 98.5 5
      vertex 74.2678 97.7678 10
      vertex 72.5 98.5 10
    endloop
  endfacet
  facet normal -0.382663 -0.923888 -0
    outer loop
      vertex 74.2678 97.7678 10
      vertex 72.5 98.5 5
      vertex 74.2678 97.7678 5
    endloop
  endfacet
  facet normal -0.923888 -0.382663 0
    outer loop
      vertex 75 96 5
      vertex 74.2678 97.7678 10
      vertex 74.2678 97.7678 5
    endloop
  endfacet
  facet normal -0.923888 -0.382663 0
    outer loop
      vertex 74.2678 97.7678 10
      vertex 75 96 5
      vertex 75 96 10
    endloop
  endfacet
  facet normal 0.382663 -0.923888 0
    outer loop
      vertex 70.7322 97.7678 5
      vertex 72.5 98.5 10
      vertex 70.7322 97.7678 10
    endloop
  endfacet
  facet normal 0.382663 -0.923888 0
    outer loop
      vertex 72.5 98.5 10
      vertex 70.7322 97.7678 5
      vertex 72.5 98.5 5
    endloop
  endfacet
  facet normal -0.382663 0.923888 0
    outer loop
      vertex 74.2678 94.2322 5
      vertex 72.5 93.5 10
      vertex 74.2678 94.2322 10
    endloop
  endfacet
  facet normal -0.382663 0.923888 0
    outer loop
      vertex 72.5 93.5 10
      vertex 74.2678 94.2322 5
      vertex 72.5 93.5 5
    endloop
  endfacet
  facet normal -0.923888 0.382663 0
    outer loop
      vertex 74.2678 94.2322 5
      vertex 75 96 10
      vertex 75 96 5
    endloop
  endfacet
  facet normal -0.923888 0.382663 0
    outer loop
      vertex 75 96 10
      vertex 74.2678 94.2322 5
      vertex 74.2678 94.2322 10
    endloop
  endfacet
  facet normal 0.923888 0.382663 0
    outer loop
      vertex 70.7322 94.2322 10
      vertex 70 96 5
      vertex 70 96 10
    endloop
  endfacet
  facet normal 0.923888 0.382663 0
    outer loop
      vertex 70 96 5
      vertex 70.7322 94.2322 10
      vertex 70.7322 94.2322 5
    endloop
  endfacet
  facet normal 0.923888 -0.382663 0
    outer loop
      vertex 70 96 10
      vertex 70.7322 97.7678 5
      vertex 70.7322 97.7678 10
    endloop
  endfacet
  facet normal 0.923888 -0.382663 0
    outer loop
      vertex 70.7322 97.7678 5
      vertex 70 96 10
      vertex 70 96 5
    endloop
  endfacet
  facet normal 0 0 1
    outer loop
      vertex 74.2678 97.7678 5
      vertex 74.2678 94.2322 5
      vertex 75 96 5
    endloop
  endfacet
  facet normal 0 0 1
    outer loop
      vertex 72.5 98.5 5
      vertex 74.2678 94.2322 5
      vertex 74.2678 97.7678 5
    endloop
  endfacet
  facet normal 0 0 1
    outer loop
      vertex 72.5 98.5 5
      vertex 72.5 93.5 5
      vertex 74.2678 94.2322 5
    endloop
  endfacet
  facet normal -0 0 1
    outer loop
      vertex 70.7322 97.7678 5
      vertex 72.5 93.5 5
      vertex 72.5 98.5 5
    endloop
  endfacet
  facet normal 0 0 1
    outer loop
      vertex 70.7322 97.7678 5
      vertex 70.7322 94.2322 5
      vertex 72.5 93.5 5
    endloop
  endfacet
  facet normal 0 -0 1
    outer loop
      vertex 70.7322 94.2322 5
      vertex 70.7322 97.7678 5
      vertex 70 96 5
    endloop
  endfacet
  facet normal -1 0 0
    outer loop
      vertex 15 15 0
      vertex 15 24.3 9.2
      vertex 15 24.3 0
    endloop
  endfacet
  facet normal -1 -0 0
    outer loop
      vertex 15 24.3 9.2
      vertex 15 15 0
      vertex 15 15 9.2
    endloop
  endfacet
  facet normal 0 0 -1
    outer loop
      vertex 0 15 9.2
      vertex 15 24.3 9.2
      vertex 15 15 9.2
    endloop
  endfacet
  facet normal -0 0 -1
    outer loop
      vertex 15 24.3 9.2
      vertex 0 15 9.2
      vertex 0 24.3 9.2
    endloop
  endfacet
  facet normal 0 -1 0
    outer loop
      vertex 0 24.3 0
      vertex 15 24.3 9.2
      vertex 0 24.3 9.2
    endloop
  endfacet
  facet normal 0 -1 -0
    outer loop
      vertex 15 24.3 9.2
      vertex 0 24.3 0
      vertex 15 24.3 0
    endloop
  endfacet
  facet normal 0 1 -0
    outer loop
      vertex 15 15 0
      vertex 0 15 9.2
      vertex 15 15 9.2
    endloop
  endfacet
  facet normal 0 1 0
    outer loop
      vertex 0 15 9.2
      vertex 15 15 0
      vertex 0 15 0
    endloop
  endfacet
  facet normal 0 0 -1
    outer loop
      vertex 86 0 0
      vertex 59.5 66.5 0
      vertex 86 134 0
    endloop
  endfacet
  facet normal 0 0 -1
    outer loop
      vertex 86 0 0
      vertex 59.1394 63.0695 0
      vertex 59.5 66.5 0
    endloop
  endfacet
  facet normal 0 0 -1
    outer loop
      vertex 86 0 0
      vertex 58.0735 59.7888 0
      vertex 59.1394 63.0695 0
    endloop
  endfacet
  facet normal 0 0 -1
    outer loop
      vertex 86 0 0
      vertex 56.3488 56.8015 0
      vertex 58.0735 59.7888 0
    endloop
  endfacet
  facet normal 0 0 -1
    outer loop
      vertex 86 0 0
      vertex 54.0407 54.2381 0
      vertex 56.3488 56.8015 0
    endloop
  endfacet
  facet normal 0 0 -1
    outer loop
      vertex 86 0 0
      vertex 51.25 52.2106 0
      vertex 54.0407 54.2381 0
    endloop
  endfacet
  facet normal 0 0 -1
    outer loop
      vertex 86 0 0
      vertex 48.0988 50.8076 0
      vertex 51.25 52.2106 0
    endloop
  endfacet
  facet normal 0 0 -1
    outer loop
      vertex 86 0 0
      vertex 44.7247 50.0904 0
      vertex 48.0988 50.8076 0
    endloop
  endfacet
  facet normal 0 0 -1
    outer loop
      vertex 15 15 0
      vertex 44.7247 50.0904 0
      vertex 86 0 0
    endloop
  endfacet
  facet normal 0 0 -1
    outer loop
      vertex 15 24.3 0
      vertex 44.7247 50.0904 0
      vertex 15 15 0
    endloop
  endfacet
  facet normal -0 0 -1
    outer loop
      vertex 44.7247 50.0904 0
      vertex 15 24.3 0
      vertex 41.2753 50.0904 0
    endloop
  endfacet
  facet normal -0 0 -1
    outer loop
      vertex 41.2753 50.0904 0
      vertex 15 24.3 0
      vertex 37.9012 50.8076 0
    endloop
  endfacet
  facet normal 0 0 -1
    outer loop
      vertex 0 24.3 0
      vertex 27.9265 59.7888 0
      vertex 15 24.3 0
    endloop
  endfacet
  facet normal -0 0 -1
    outer loop
      vertex 29.6512 56.8015 0
      vertex 15 24.3 0
      vertex 27.9265 59.7888 0
    endloop
  endfacet
  facet normal -0 0 -1
    outer loop
      vertex 31.9593 54.2381 0
      vertex 15 24.3 0
      vertex 29.6512 56.8015 0
    endloop
  endfacet
  facet normal -0 0 -1
    outer loop
      vertex 34.75 52.2106 0
      vertex 15 24.3 0
      vertex 31.9593 54.2381 0
    endloop
  endfacet
  facet normal -0 0 -1
    outer loop
      vertex 37.9012 50.8076 0
      vertex 15 24.3 0
      vertex 34.75 52.2106 0
    endloop
  endfacet
  facet normal 0 0 -1
    outer loop
      vertex 0 0 0
      vertex 15 15 0
      vertex 86 0 0
    endloop
  endfacet
  facet normal -0 0 -1
    outer loop
      vertex 15 15 0
      vertex 0 0 0
      vertex 0 15 0
    endloop
  endfacet
  facet normal 0 0 -1
    outer loop
      vertex 59.1394 69.9305 0
      vertex 86 134 0
      vertex 59.5 66.5 0
    endloop
  endfacet
  facet normal 0 0 -1
    outer loop
      vertex 58.0735 73.2112 0
      vertex 86 134 0
      vertex 59.1394 69.9305 0
    endloop
  endfacet
  facet normal 0 0 -1
    outer loop
      vertex 56.3488 76.1985 0
      vertex 86 134 0
      vertex 58.0735 73.2112 0
    endloop
  endfacet
  facet normal 0 0 -1
    outer loop
      vertex 54.0407 78.7619 0
      vertex 86 134 0
      vertex 56.3488 76.1985 0
    endloop
  endfacet
  facet normal 0 0 -1
    outer loop
      vertex 51.25 80.7894 0
      vertex 86 134 0
      vertex 54.0407 78.7619 0
    endloop
  endfacet
  facet normal 0 0 -1
    outer loop
      vertex 48.0988 82.1924 0
      vertex 86 134 0
      vertex 51.25 80.7894 0
    endloop
  endfacet
  facet normal 0 0 -1
    outer loop
      vertex 44.7247 82.9096 0
      vertex 86 134 0
      vertex 48.0988 82.1924 0
    endloop
  endfacet
  facet normal 0 0 -1
    outer loop
      vertex 41.2753 82.9096 0
      vertex 86 134 0
      vertex 44.7247 82.9096 0
    endloop
  endfacet
  facet normal 0 0 -1
    outer loop
      vertex 0 134 0
      vertex 41.2753 82.9096 0
      vertex 37.9012 82.1924 0
    endloop
  endfacet
  facet normal 0 0 -1
    outer loop
      vertex 0 134 0
      vertex 37.9012 82.1924 0
      vertex 34.75 80.7894 0
    endloop
  endfacet
  facet normal 0 0 -1
    outer loop
      vertex 0 134 0
      vertex 34.75 80.7894 0
      vertex 31.9593 78.7619 0
    endloop
  endfacet
  facet normal -0 0 -1
    outer loop
      vertex 27.9265 59.7888 0
      vertex 0 24.3 0
      vertex 26.8606 63.0695 0
    endloop
  endfacet
  facet normal -0 0 -1
    outer loop
      vertex 26.8606 63.0695 0
      vertex 0 24.3 0
      vertex 26.5 66.5 0
    endloop
  endfacet
  facet normal -0 0 -1
    outer loop
      vertex 26.5 66.5 0
      vertex 0 24.3 0
      vertex 26.8606 69.9305 0
    endloop
  endfacet
  facet normal 0 0 -1
    outer loop
      vertex 0 134 0
      vertex 26.8606 69.9305 0
      vertex 0 24.3 0
    endloop
  endfacet
  facet normal 0 0 -1
    outer loop
      vertex 41.2753 82.9096 0
      vertex 0 134 0
      vertex 86 134 0
    endloop
  endfacet
  facet normal 0 0 -1
    outer loop
      vertex 29.6512 76.1985 0
      vertex 0 134 0
      vertex 31.9593 78.7619 0
    endloop
  endfacet
  facet normal 0 0 -1
    outer loop
      vertex 27.9265 73.2112 0
      vertex 0 134 0
      vertex 29.6512 76.1985 0
    endloop
  endfacet
  facet normal 0 0 -1
    outer loop
      vertex 26.8606 69.9305 0
      vertex 0 134 0
      vertex 27.9265 73.2112 0
    endloop
  endfacet
  facet normal -0.951062 -0.309 0
    outer loop
      vertex 59.1394 69.9305 0
      vertex 58.0735 73.2112 10
      vertex 58.0735 73.2112 0
    endloop
  endfacet
  facet normal -0.951062 -0.309 0
    outer loop
      vertex 58.0735 73.2112 10
      vertex 59.1394 69.9305 0
      vertex 59.1394 69.9305 10
    endloop
  endfacet
  facet normal -0.994521 -0.10454 0
    outer loop
      vertex 59.5 66.5 0
      vertex 59.1394 69.9305 10
      vertex 59.1394 69.9305 0
    endloop
  endfacet
  facet normal -0.994521 -0.10454 0
    outer loop
      vertex 59.1394 69.9305 10
      vertex 59.5 66.5 0
      vertex 59.5 66.5 10
    endloop
  endfacet
  facet normal -0.866028 -0.499996 0
    outer loop
      vertex 58.0735 73.2112 0
      vertex 56.3488 76.1985 10
      vertex 56.3488 76.1985 0
    endloop
  endfacet
  facet normal -0.866028 -0.499996 0
    outer loop
      vertex 56.3488 76.1985 10
      vertex 58.0735 73.2112 0
      vertex 58.0735 73.2112 10
    endloop
  endfacet
  facet normal 0.587773 0.809026 -0
    outer loop
      vertex 34.75 52.2106 0
      vertex 31.9593 54.2381 10
      vertex 34.75 52.2106 10
    endloop
  endfacet
  facet normal 0.587773 0.809026 0
    outer loop
      vertex 31.9593 54.2381 10
      vertex 34.75 52.2106 0
      vertex 31.9593 54.2381 0
    endloop
  endfacet
  facet normal 0 1 -0
    outer loop
      vertex 44.7247 50.0904 0
      vertex 41.2753 50.0904 10
      vertex 44.7247 50.0904 10
    endloop
  endfacet
  facet normal 0 1 0
    outer loop
      vertex 41.2753 50.0904 10
      vertex 44.7247 50.0904 0
      vertex 41.2753 50.0904 0
    endloop
  endfacet
  facet normal -0.994521 0.10454 0
    outer loop
      vertex 59.1394 63.0695 0
      vertex 59.5 66.5 10
      vertex 59.5 66.5 0
    endloop
  endfacet
  facet normal -0.994521 0.10454 0
    outer loop
      vertex 59.5 66.5 10
      vertex 59.1394 63.0695 0
      vertex 59.1394 63.0695 10
    endloop
  endfacet
  facet normal 0.994521 -0.10454 0
    outer loop
      vertex 26.5 66.5 10
      vertex 26.8606 69.9305 0
      vertex 26.8606 69.9305 10
    endloop
  endfacet
  facet normal 0.994521 -0.10454 0
    outer loop
      vertex 26.8606 69.9305 0
      vertex 26.5 66.5 10
      vertex 26.5 66.5 0
    endloop
  endfacet
  facet normal -0.866028 0.499996 0
    outer loop
      vertex 56.3488 56.8015 0
      vertex 58.0735 59.7888 10
      vertex 58.0735 59.7888 0
    endloop
  endfacet
  facet normal -0.866028 0.499996 0
    outer loop
      vertex 58.0735 59.7888 10
      vertex 56.3488 56.8015 0
      vertex 56.3488 56.8015 10
    endloop
  endfacet
  facet normal 0.743144 0.669131 0
    outer loop
      vertex 31.9593 54.2381 10
      vertex 29.6512 56.8015 0
      vertex 29.6512 56.8015 10
    endloop
  endfacet
  facet normal 0.743144 0.669131 0
    outer loop
      vertex 29.6512 56.8015 0
      vertex 31.9593 54.2381 10
      vertex 31.9593 54.2381 0
    endloop
  endfacet
  facet normal -0.587773 -0.809026 0
    outer loop
      vertex 51.25 80.7894 0
      vertex 54.0407 78.7619 10
      vertex 51.25 80.7894 10
    endloop
  endfacet
  facet normal -0.587773 -0.809026 -0
    outer loop
      vertex 54.0407 78.7619 10
      vertex 51.25 80.7894 0
      vertex 54.0407 78.7619 0
    endloop
  endfacet
  facet normal 0.951062 -0.309 0
    outer loop
      vertex 26.8606 69.9305 10
      vertex 27.9265 73.2112 0
      vertex 27.9265 73.2112 10
    endloop
  endfacet
  facet normal 0.951062 -0.309 0
    outer loop
      vertex 27.9265 73.2112 0
      vertex 26.8606 69.9305 10
      vertex 26.8606 69.9305 0
    endloop
  endfacet
  facet normal -0.951062 0.309 0
    outer loop
      vertex 58.0735 59.7888 0
      vertex 59.1394 63.0695 10
      vertex 59.1394 63.0695 0
    endloop
  endfacet
  facet normal -0.951062 0.309 0
    outer loop
      vertex 59.1394 63.0695 10
      vertex 58.0735 59.7888 0
      vertex 58.0735 59.7888 10
    endloop
  endfacet
  facet normal -0.207915 -0.978147 0
    outer loop
      vertex 44.7247 82.9096 0
      vertex 48.0988 82.1924 10
      vertex 44.7247 82.9096 10
    endloop
  endfacet
  facet normal -0.207915 -0.978147 -0
    outer loop
      vertex 48.0988 82.1924 10
      vertex 44.7247 82.9096 0
      vertex 48.0988 82.1924 0
    endloop
  endfacet
  facet normal 0.207915 0.978147 -0
    outer loop
      vertex 41.2753 50.0904 0
      vertex 37.9012 50.8076 10
      vertex 41.2753 50.0904 10
    endloop
  endfacet
  facet normal 0.207915 0.978147 0
    outer loop
      vertex 37.9012 50.8076 10
      vertex 41.2753 50.0904 0
      vertex 37.9012 50.8076 0
    endloop
  endfacet
  facet normal 0.406736 -0.913546 0
    outer loop
      vertex 34.75 80.7894 0
      vertex 37.9012 82.1924 10
      vertex 34.75 80.7894 10
    endloop
  endfacet
  facet normal 0.406736 -0.913546 0
    outer loop
      vertex 37.9012 82.1924 10
      vertex 34.75 80.7894 0
      vertex 37.9012 82.1924 0
    endloop
  endfacet
  facet normal -0.743144 0.669131 0
    outer loop
      vertex 54.0407 54.2381 0
      vertex 56.3488 56.8015 10
      vertex 56.3488 56.8015 0
    endloop
  endfacet
  facet normal -0.743144 0.669131 0
    outer loop
      vertex 56.3488 56.8015 10
      vertex 54.0407 54.2381 0
      vertex 54.0407 54.2381 10
    endloop
  endfacet
  facet normal 0.406736 0.913546 -0
    outer loop
      vertex 37.9012 50.8076 0
      vertex 34.75 52.2106 10
      vertex 37.9012 50.8076 10
    endloop
  endfacet
  facet normal 0.406736 0.913546 0
    outer loop
      vertex 34.75 52.2106 10
      vertex 37.9012 50.8076 0
      vertex 34.75 52.2106 0
    endloop
  endfacet
  facet normal 0.587773 -0.809026 0
    outer loop
      vertex 31.9593 78.7619 0
      vertex 34.75 80.7894 10
      vertex 31.9593 78.7619 10
    endloop
  endfacet
  facet normal 0.587773 -0.809026 0
    outer loop
      vertex 34.75 80.7894 10
      vertex 31.9593 78.7619 0
      vertex 34.75 80.7894 0
    endloop
  endfacet
  facet normal 0.994521 0.10454 0
    outer loop
      vertex 26.8606 63.0695 10
      vertex 26.5 66.5 0
      vertex 26.5 66.5 10
    endloop
  endfacet
  facet normal 0.994521 0.10454 0
    outer loop
      vertex 26.5 66.5 0
      vertex 26.8606 63.0695 10
      vertex 26.8606 63.0695 0
    endloop
  endfacet
  facet normal -0.587773 0.809026 0
    outer loop
      vertex 54.0407 54.2381 0
      vertex 51.25 52.2106 10
      vertex 54.0407 54.2381 10
    endloop
  endfacet
  facet normal -0.587773 0.809026 0
    outer loop
      vertex 51.25 52.2106 10
      vertex 54.0407 54.2381 0
      vertex 51.25 52.2106 0
    endloop
  endfacet
  facet normal 0.743144 -0.669131 0
    outer loop
      vertex 29.6512 76.1985 10
      vertex 31.9593 78.7619 0
      vertex 31.9593 78.7619 10
    endloop
  endfacet
  facet normal 0.743144 -0.669131 0
    outer loop
      vertex 31.9593 78.7619 0
      vertex 29.6512 76.1985 10
      vertex 29.6512 76.1985 0
    endloop
  endfacet
  facet normal -0.743144 -0.669131 0
    outer loop
      vertex 56.3488 76.1985 0
      vertex 54.0407 78.7619 10
      vertex 54.0407 78.7619 0
    endloop
  endfacet
  facet normal -0.743144 -0.669131 0
    outer loop
      vertex 54.0407 78.7619 10
      vertex 56.3488 76.1985 0
      vertex 56.3488 76.1985 10
    endloop
  endfacet
  facet normal 0.951062 0.309 0
    outer loop
      vertex 27.9265 59.7888 10
      vertex 26.8606 63.0695 0
      vertex 26.8606 63.0695 10
    endloop
  endfacet
  facet normal 0.951062 0.309 0
    outer loop
      vertex 26.8606 63.0695 0
      vertex 27.9265 59.7888 10
      vertex 27.9265 59.7888 0
    endloop
  endfacet
  facet normal -0.406736 -0.913546 0
    outer loop
      vertex 48.0988 82.1924 0
      vertex 51.25 80.7894 10
      vertex 48.0988 82.1924 10
    endloop
  endfacet
  facet normal -0.406736 -0.913546 -0
    outer loop
      vertex 51.25 80.7894 10
      vertex 48.0988 82.1924 0
      vertex 51.25 80.7894 0
    endloop
  endfacet
  facet normal 0.866028 -0.499996 0
    outer loop
      vertex 27.9265 73.2112 10
      vertex 29.6512 76.1985 0
      vertex 29.6512 76.1985 10
    endloop
  endfacet
  facet normal 0.866028 -0.499996 0
    outer loop
      vertex 29.6512 76.1985 0
      vertex 27.9265 73.2112 10
      vertex 27.9265 73.2112 0
    endloop
  endfacet
  facet normal 0 -1 0
    outer loop
      vertex 41.2753 82.9096 0
      vertex 44.7247 82.9096 10
      vertex 41.2753 82.9096 10
    endloop
  endfacet
  facet normal 0 -1 -0
    outer loop
      vertex 44.7247 82.9096 10
      vertex 41.2753 82.9096 0
      vertex 44.7247 82.9096 0
    endloop
  endfacet
  facet normal 0.866028 0.499996 0
    outer loop
      vertex 29.6512 56.8015 10
      vertex 27.9265 59.7888 0
      vertex 27.9265 59.7888 10
    endloop
  endfacet
  facet normal 0.866028 0.499996 0
    outer loop
      vertex 27.9265 59.7888 0
      vertex 29.6512 56.8015 10
      vertex 29.6512 56.8015 0
    endloop
  endfacet
  facet normal -0.207915 0.978147 0
    outer loop
      vertex 48.0988 50.8076 0
      vertex 44.7247 50.0904 10
      vertex 48.0988 50.8076 10
    endloop
  endfacet
  facet normal -0.207915 0.978147 0
    outer loop
      vertex 44.7247 50.0904 10
      vertex 48.0988 50.8076 0
      vertex 44.7247 50.0904 0
    endloop
  endfacet
  facet normal -0.406736 0.913546 0
    outer loop
      vertex 51.25 52.2106 0
      vertex 48.0988 50.8076 10
      vertex 51.25 52.2106 10
    endloop
  endfacet
  facet normal -0.406736 0.913546 0
    outer loop
      vertex 48.0988 50.8076 10
      vertex 51.25 52.2106 0
      vertex 48.0988 50.8076 0
    endloop
  endfacet
  facet normal 0.207915 -0.978147 0
    outer loop
      vertex 37.9012 82.1924 0
      vertex 41.2753 82.9096 10
      vertex 37.9012 82.1924 10
    endloop
  endfacet
  facet normal 0.207915 -0.978147 0
    outer loop
      vertex 41.2753 82.9096 10
      vertex 37.9012 82.1924 0
      vertex 41.2753 82.9096 0
    endloop
  endfacet
  facet normal -0 0.433866 0.900977
    outer loop
      vertex 83 67 16
      vertex 86 65.4363 16.753
      vertex 86 67 16
    endloop
  endfacet
  facet normal 0 0.433866 0.900977
    outer loop
      vertex 86 65.4363 16.753
      vertex 83 67 16
      vertex 83 65.4363 16.753
    endloop
  endfacet
  facet normal 0 -0.781829 -0.623493
    outer loop
      vertex 83 68.9499 18.445
      vertex 86 67.8678 19.8019
      vertex 83 67.8678 19.8019
    endloop
  endfacet
  facet normal 0 -0.781829 -0.623493
    outer loop
      vertex 86 67.8678 19.8019
      vertex 83 68.9499 18.445
      vertex 86 68.9499 18.445
    endloop
  endfacet
  facet normal 0 -0.433866 0.900977
    outer loop
      vertex 83 68.5637 16.753
      vertex 86 67 16
      vertex 86 68.5637 16.753
    endloop
  endfacet
  facet normal 0 -0.433866 0.900977
    outer loop
      vertex 86 67 16
      vertex 83 68.5637 16.753
      vertex 83 67 16
    endloop
  endfacet
  facet normal 0 -0.974926 0.222528
    outer loop
      vertex 83 68.5637 16.753
      vertex 86 68.9499 18.445
      vertex 83 68.9499 18.445
    endloop
  endfacet
  facet normal 0 -0.974926 0.222528
    outer loop
      vertex 86 68.9499 18.445
      vertex 83 68.5637 16.753
      vertex 86 68.5637 16.753
    endloop
  endfacet
  facet normal 0 0.781829 -0.623493
    outer loop
      vertex 86 65.0501 18.445
      vertex 83 66.1322 19.8019
      vertex 86 66.1322 19.8019
    endloop
  endfacet
  facet normal 0 0.781829 -0.623493
    outer loop
      vertex 83 66.1322 19.8019
      vertex 86 65.0501 18.445
      vertex 83 65.0501 18.445
    endloop
  endfacet
  facet normal 0 0.974926 0.222528
    outer loop
      vertex 86 65.4363 16.753
      vertex 83 65.0501 18.445
      vertex 86 65.0501 18.445
    endloop
  endfacet
  facet normal 0 0.974926 0.222528
    outer loop
      vertex 83 65.0501 18.445
      vertex 86 65.4363 16.753
      vertex 83 65.4363 16.753
    endloop
  endfacet
  facet normal 0 0 -1
    outer loop
      vertex 83 66.1322 19.8019
      vertex 86 67.8678 19.8019
      vertex 86 66.1322 19.8019
    endloop
  endfacet
  facet normal -0 0 -1
    outer loop
      vertex 86 67.8678 19.8019
      vertex 83 66.1322 19.8019
      vertex 83 67.8678 19.8019
    endloop
  endfacet
endsolid OpenSCAD_Model
