solid OpenSCAD_Model
  facet normal -1 0 0
    outer loop
      vertex 82 130 5
      vertex 82 68.9499 30.445
      vertex 82 130 56.3
    endloop
  endfacet
  facet normal -1 0 0
    outer loop
      vertex 82 130 5
      vertex 82 68.5637 28.753
      vertex 82 68.9499 30.445
    endloop
  endfacet
  facet normal -1 0 0
    outer loop
      vertex 82 130 5
      vertex 82 67 28
      vertex 82 68.5637 28.753
    endloop
  endfacet
  facet normal -1 -0 0
    outer loop
      vertex 82 65.4363 28.753
      vertex 82 4 5
      vertex 82 65.0501 30.445
    endloop
  endfacet
  facet normal -1 -0 0
    outer loop
      vertex 82 67 28
      vertex 82 4 5
      vertex 82 65.4363 28.753
    endloop
  endfacet
  facet normal -1 0 0
    outer loop
      vertex 82 4 5
      vertex 82 67 28
      vertex 82 130 5
    endloop
  endfacet
  facet normal -1 0 0
    outer loop
      vertex 82 67.8678 31.8019
      vertex 82 130 56.3
      vertex 82 68.9499 30.445
    endloop
  endfacet
  facet normal -1 0 0
    outer loop
      vertex 82 66.1322 31.8019
      vertex 82 130 56.3
      vertex 82 67.8678 31.8019
    endloop
  endfacet
  facet normal -1 0 0
    outer loop
      vertex 82 4 56.3
      vertex 82 65.0501 30.445
      vertex 82 4 5
    endloop
  endfacet
  facet normal -1 0 0
    outer loop
      vertex 82 66.1322 31.8019
      vertex 82 4 56.3
      vertex 82 130 56.3
    endloop
  endfacet
  facet normal -1 0 0
    outer loop
      vertex 82 65.0501 30.445
      vertex 82 4 56.3
      vertex 82 66.1322 31.8019
    endloop
  endfacet
  facet normal 0 0 1
    outer loop
      vertex 86 134 56.3
      vertex 82 130 56.3
      vertex 86 0 56.3
    endloop
  endfacet
  facet normal 0 0 1
    outer loop
      vertex 86 134 56.3
      vertex 4 130 56.3
      vertex 82 130 56.3
    endloop
  endfacet
  facet normal 0 0 1
    outer loop
      vertex 4 130 56.3
      vertex 0 134 56.3
      vertex 4 4 56.3
    endloop
  endfacet
  facet normal -0 0 1
    outer loop
      vertex 0 134 56.3
      vertex 4 130 56.3
      vertex 86 134 56.3
    endloop
  endfacet
  facet normal -0 0 1
    outer loop
      vertex 82 4 56.3
      vertex 86 0 56.3
      vertex 82 130 56.3
    endloop
  endfacet
  facet normal -0 0 1
    outer loop
      vertex 4 4 56.3
      vertex 86 0 56.3
      vertex 82 4 56.3
    endloop
  endfacet
  facet normal 0 0 1
    outer loop
      vertex 4 4 56.3
      vertex 0 0 56.3
      vertex 86 0 56.3
    endloop
  endfacet
  facet normal 0 0 1
    outer loop
      vertex 0 0 56.3
      vertex 4 4 56.3
      vertex 0 134 56.3
    endloop
  endfacet
  facet normal 0 0 1
    outer loop
      vertex 82 130 5
      vertex 77.5 101 5
      vertex 82 4 5
    endloop
  endfacet
  facet normal 0 0 1
    outer loop
      vertex 82 130 5
      vertex 9.5 101 5
      vertex 77.5 101 5
    endloop
  endfacet
  facet normal 0 0 1
    outer loop
      vertex 9.5 101 5
      vertex 4 130 5
      vertex 9.5 33 5
    endloop
  endfacet
  facet normal -0 0 1
    outer loop
      vertex 4 130 5
      vertex 9.5 101 5
      vertex 82 130 5
    endloop
  endfacet
  facet normal -0 0 1
    outer loop
      vertex 77.5 33 5
      vertex 82 4 5
      vertex 77.5 101 5
    endloop
  endfacet
  facet normal -0 0 1
    outer loop
      vertex 9.5 33 5
      vertex 82 4 5
      vertex 77.5 33 5
    endloop
  endfacet
  facet normal 0 0 1
    outer loop
      vertex 9.5 33 5
      vertex 4 4 5
      vertex 82 4 5
    endloop
  endfacet
  facet normal 0 0 1
    outer loop
      vertex 4 4 5
      vertex 9.5 33 5
      vertex 4 130 5
    endloop
  endfacet
  facet normal 1 -0 0
    outer loop
      vertex 4 4 56.3
      vertex 4 130 5
      vertex 4 130 56.3
    endloop
  endfacet
  facet normal 1 0 0
    outer loop
      vertex 4 130 5
      vertex 4 4 56.3
      vertex 4 4 5
    endloop
  endfacet
  facet normal 0 -1 0
    outer loop
      vertex 4 130 5
      vertex 82 130 56.3
      vertex 4 130 56.3
    endloop
  endfacet
  facet normal 0 -1 -0
    outer loop
      vertex 82 130 56.3
      vertex 4 130 5
      vertex 82 130 5
    endloop
  endfacet
  facet normal 0 1 -0
    outer loop
      vertex 82 4 5
      vertex 4 4 56.3
      vertex 82 4 56.3
    endloop
  endfacet
  facet normal 0 1 0
    outer loop
      vertex 4 4 56.3
      vertex 82 4 5
      vertex 4 4 5
    endloop
  endfacet
  facet normal 1 -0 0
    outer loop
      vertex 77.5 33 30
      vertex 77.5 101 5
      vertex 77.5 101 30
    endloop
  endfacet
  facet normal 1 0 0
    outer loop
      vertex 77.5 101 5
      vertex 77.5 33 30
      vertex 77.5 33 5
    endloop
  endfacet
  facet normal 0 0 1
    outer loop
      vertex 13.2 93.7483 30
      vertex 26.8606 69.9305 30
      vertex 14.9515 93.4395 30
    endloop
  endfacet
  facet normal 0 0 1
    outer loop
      vertex 26.5 66.5 30
      vertex 16.4917 39.6712 30
      vertex 17.1 38 30
    endloop
  endfacet
  facet normal 0 0 1
    outer loop
      vertex 26.8606 69.9305 30
      vertex 13.2 93.7483 30
      vertex 26.5 66.5 30
    endloop
  endfacet
  facet normal 0 0 1
    outer loop
      vertex 26.5 66.5 30
      vertex 14.9515 40.5605 30
      vertex 16.4917 39.6712 30
    endloop
  endfacet
  facet normal 0 0 1
    outer loop
      vertex 13.2 40.2517 30
      vertex 26.5 66.5 30
      vertex 13.2 93.7483 30
    endloop
  endfacet
  facet normal 0 0 1
    outer loop
      vertex 26.5 66.5 30
      vertex 13.2 40.2517 30
      vertex 14.9515 40.5605 30
    endloop
  endfacet
  facet normal 0 0 1
    outer loop
      vertex 12.0568 95.1107 30
      vertex 13.2 40.2517 30
      vertex 13.2 93.7483 30
    endloop
  endfacet
  facet normal 0 0 1
    outer loop
      vertex 13.2 40.2517 30
      vertex 12.0568 95.1107 30
      vertex 12.0568 38.8893 30
    endloop
  endfacet
  facet normal -0 0 1
    outer loop
      vertex 74.4917 39.6712 30
      vertex 77.5 33 30
      vertex 74.4917 94.3288 30
    endloop
  endfacet
  facet normal 0 0 1
    outer loop
      vertex 77.5 33 30
      vertex 74.4917 39.6712 30
      vertex 75.1 38 30
    endloop
  endfacet
  facet normal 0 0 1
    outer loop
      vertex 59.5 66.5 30
      vertex 74.4917 94.3288 30
      vertex 72.9515 93.4395 30
    endloop
  endfacet
  facet normal 0 0 1
    outer loop
      vertex 74.4917 94.3288 30
      vertex 59.5 66.5 30
      vertex 74.4917 39.6712 30
    endloop
  endfacet
  facet normal 0 0 1
    outer loop
      vertex 58.0735 73.2112 30
      vertex 72.9515 93.4395 30
      vertex 71.2 93.7483 30
    endloop
  endfacet
  facet normal 0 0 1
    outer loop
      vertex 74.4917 39.6712 30
      vertex 59.5 66.5 30
      vertex 72.9515 40.5605 30
    endloop
  endfacet
  facet normal 0 0 1
    outer loop
      vertex 54.0407 78.7619 30
      vertex 71.2 93.7483 30
      vertex 70.0568 95.1107 30
    endloop
  endfacet
  facet normal -0 0 1
    outer loop
      vertex 59.1394 63.0695 30
      vertex 72.9515 40.5605 30
      vertex 59.5 66.5 30
    endloop
  endfacet
  facet normal 0 0 1
    outer loop
      vertex 74.4917 94.3288 30
      vertex 77.5 101 30
      vertex 75.1 96 30
    endloop
  endfacet
  facet normal 0 0 1
    outer loop
      vertex 77.5 101 30
      vertex 74.4917 97.6712 30
      vertex 75.1 96 30
    endloop
  endfacet
  facet normal 0 0 1
    outer loop
      vertex 77.5 101 30
      vertex 72.9515 98.5605 30
      vertex 74.4917 97.6712 30
    endloop
  endfacet
  facet normal 0 0 1
    outer loop
      vertex 77.5 101 30
      vertex 71.2 98.2517 30
      vertex 72.9515 98.5605 30
    endloop
  endfacet
  facet normal 0 0 1
    outer loop
      vertex 48.0988 82.1924 30
      vertex 70.0568 95.1107 30
      vertex 70.0568 96.8893 30
    endloop
  endfacet
  facet normal -0 0 1
    outer loop
      vertex 58.0735 59.7888 30
      vertex 72.9515 40.5605 30
      vertex 59.1394 63.0695 30
    endloop
  endfacet
  facet normal 0 0 1
    outer loop
      vertex 72.9515 40.5605 30
      vertex 58.0735 59.7888 30
      vertex 71.2 40.2517 30
    endloop
  endfacet
  facet normal 0 0 1
    outer loop
      vertex 72.9515 93.4395 30
      vertex 59.1394 69.9305 30
      vertex 59.5 66.5 30
    endloop
  endfacet
  facet normal 0 0 1
    outer loop
      vertex 72.9515 93.4395 30
      vertex 58.0735 73.2112 30
      vertex 59.1394 69.9305 30
    endloop
  endfacet
  facet normal 0 0 1
    outer loop
      vertex 71.2 93.7483 30
      vertex 56.3488 76.1985 30
      vertex 58.0735 73.2112 30
    endloop
  endfacet
  facet normal 0 0 1
    outer loop
      vertex 71.2 93.7483 30
      vertex 54.0407 78.7619 30
      vertex 56.3488 76.1985 30
    endloop
  endfacet
  facet normal -0 0 1
    outer loop
      vertex 16.4917 97.6712 30
      vertex 70.0568 96.8893 30
      vertex 71.2 98.2517 30
    endloop
  endfacet
  facet normal 0 0 1
    outer loop
      vertex 70.0568 95.1107 30
      vertex 51.25 80.7894 30
      vertex 54.0407 78.7619 30
    endloop
  endfacet
  facet normal 0 0 1
    outer loop
      vertex 70.0568 95.1107 30
      vertex 48.0988 82.1924 30
      vertex 51.25 80.7894 30
    endloop
  endfacet
  facet normal 0 0 1
    outer loop
      vertex 70.0568 96.8893 30
      vertex 44.7247 82.9096 30
      vertex 48.0988 82.1924 30
    endloop
  endfacet
  facet normal 0 0 1
    outer loop
      vertex 70.0568 96.8893 30
      vertex 16.4917 97.6712 30
      vertex 44.7247 82.9096 30
    endloop
  endfacet
  facet normal 0 0 1
    outer loop
      vertex 44.7247 82.9096 30
      vertex 16.4917 97.6712 30
      vertex 41.2753 82.9096 30
    endloop
  endfacet
  facet normal -0 -0 1
    outer loop
      vertex 17.1 96 30
      vertex 41.2753 82.9096 30
      vertex 16.4917 97.6712 30
    endloop
  endfacet
  facet normal 0 0 1
    outer loop
      vertex 29.6512 76.1985 30
      vertex 14.9515 93.4395 30
      vertex 27.9265 73.2112 30
    endloop
  endfacet
  facet normal -0 0 1
    outer loop
      vertex 14.9515 93.4395 30
      vertex 29.6512 76.1985 30
      vertex 16.4917 94.3288 30
    endloop
  endfacet
  facet normal 0 0 1
    outer loop
      vertex 31.9593 78.7619 30
      vertex 16.4917 94.3288 30
      vertex 29.6512 76.1985 30
    endloop
  endfacet
  facet normal 0 0 1
    outer loop
      vertex 34.75 80.7894 30
      vertex 16.4917 94.3288 30
      vertex 31.9593 78.7619 30
    endloop
  endfacet
  facet normal -0 0 1
    outer loop
      vertex 16.4917 94.3288 30
      vertex 34.75 80.7894 30
      vertex 17.1 96 30
    endloop
  endfacet
  facet normal 0 0 1
    outer loop
      vertex 41.2753 82.9096 30
      vertex 17.1 96 30
      vertex 37.9012 82.1924 30
    endloop
  endfacet
  facet normal -0 0 1
    outer loop
      vertex 14.9515 98.5605 30
      vertex 71.2 98.2517 30
      vertex 77.5 101 30
    endloop
  endfacet
  facet normal 0 0 1
    outer loop
      vertex 37.9012 82.1924 30
      vertex 17.1 96 30
      vertex 34.75 80.7894 30
    endloop
  endfacet
  facet normal 0 0 1
    outer loop
      vertex 71.2 98.2517 30
      vertex 14.9515 98.5605 30
      vertex 16.4917 97.6712 30
    endloop
  endfacet
  facet normal 0 0 1
    outer loop
      vertex 9.5 101 30
      vertex 12.0568 95.1107 30
      vertex 12.0568 96.8893 30
    endloop
  endfacet
  facet normal 0 0 1
    outer loop
      vertex 12.0568 95.1107 30
      vertex 9.5 101 30
      vertex 12.0568 38.8893 30
    endloop
  endfacet
  facet normal 0 0 1
    outer loop
      vertex 9.5 33 30
      vertex 12.0568 38.8893 30
      vertex 9.5 101 30
    endloop
  endfacet
  facet normal 0 0 1
    outer loop
      vertex 13.2 98.2517 30
      vertex 9.5 101 30
      vertex 12.0568 96.8893 30
    endloop
  endfacet
  facet normal 0 0 1
    outer loop
      vertex 14.9515 98.5605 30
      vertex 9.5 101 30
      vertex 13.2 98.2517 30
    endloop
  endfacet
  facet normal -0 0 1
    outer loop
      vertex 9.5 101 30
      vertex 14.9515 98.5605 30
      vertex 77.5 101 30
    endloop
  endfacet
  facet normal 0 0 1
    outer loop
      vertex 77.5 101 30
      vertex 74.4917 94.3288 30
      vertex 77.5 33 30
    endloop
  endfacet
  facet normal -0 0 1
    outer loop
      vertex 74.4917 36.3288 30
      vertex 77.5 33 30
      vertex 75.1 38 30
    endloop
  endfacet
  facet normal -0 0 1
    outer loop
      vertex 72.9515 35.4395 30
      vertex 77.5 33 30
      vertex 74.4917 36.3288 30
    endloop
  endfacet
  facet normal 0 0 1
    outer loop
      vertex 71.2 35.7483 30
      vertex 77.5 33 30
      vertex 72.9515 35.4395 30
    endloop
  endfacet
  facet normal -0 0 1
    outer loop
      vertex 56.3488 56.8015 30
      vertex 71.2 40.2517 30
      vertex 58.0735 59.7888 30
    endloop
  endfacet
  facet normal -0 0 1
    outer loop
      vertex 54.0407 54.2381 30
      vertex 71.2 40.2517 30
      vertex 56.3488 56.8015 30
    endloop
  endfacet
  facet normal 0 0 1
    outer loop
      vertex 71.2 40.2517 30
      vertex 54.0407 54.2381 30
      vertex 70.0568 38.8893 30
    endloop
  endfacet
  facet normal -0 0 1
    outer loop
      vertex 51.25 52.2106 30
      vertex 70.0568 38.8893 30
      vertex 54.0407 54.2381 30
    endloop
  endfacet
  facet normal -0 0 1
    outer loop
      vertex 48.0988 50.8076 30
      vertex 70.0568 38.8893 30
      vertex 51.25 52.2106 30
    endloop
  endfacet
  facet normal 0 0 1
    outer loop
      vertex 70.0568 38.8893 30
      vertex 48.0988 50.8076 30
      vertex 70.0568 37.1107 30
    endloop
  endfacet
  facet normal -0 0 1
    outer loop
      vertex 44.7247 50.0904 30
      vertex 70.0568 37.1107 30
      vertex 48.0988 50.8076 30
    endloop
  endfacet
  facet normal 0 0 1
    outer loop
      vertex 16.4917 36.3288 30
      vertex 70.0568 37.1107 30
      vertex 44.7247 50.0904 30
    endloop
  endfacet
  facet normal 0 0 1
    outer loop
      vertex 16.4917 36.3288 30
      vertex 44.7247 50.0904 30
      vertex 41.2753 50.0904 30
    endloop
  endfacet
  facet normal 0 0 1
    outer loop
      vertex 17.1 38 30
      vertex 41.2753 50.0904 30
      vertex 37.9012 50.8076 30
    endloop
  endfacet
  facet normal 0 0 1
    outer loop
      vertex 17.1 38 30
      vertex 37.9012 50.8076 30
      vertex 34.75 52.2106 30
    endloop
  endfacet
  facet normal 0 0 1
    outer loop
      vertex 27.9265 73.2112 30
      vertex 14.9515 93.4395 30
      vertex 26.8606 69.9305 30
    endloop
  endfacet
  facet normal 0 0 1
    outer loop
      vertex 26.5 66.5 30
      vertex 17.1 38 30
      vertex 26.8606 63.0695 30
    endloop
  endfacet
  facet normal 0 0 1
    outer loop
      vertex 17.1 38 30
      vertex 27.9265 59.7888 30
      vertex 26.8606 63.0695 30
    endloop
  endfacet
  facet normal 0 0 1
    outer loop
      vertex 17.1 38 30
      vertex 29.6512 56.8015 30
      vertex 27.9265 59.7888 30
    endloop
  endfacet
  facet normal 0 0 1
    outer loop
      vertex 17.1 38 30
      vertex 31.9593 54.2381 30
      vertex 29.6512 56.8015 30
    endloop
  endfacet
  facet normal 0 0 1
    outer loop
      vertex 17.1 38 30
      vertex 34.75 52.2106 30
      vertex 31.9593 54.2381 30
    endloop
  endfacet
  facet normal 0 0 1
    outer loop
      vertex 41.2753 50.0904 30
      vertex 17.1 38 30
      vertex 16.4917 36.3288 30
    endloop
  endfacet
  facet normal 0 0 1
    outer loop
      vertex 70.0568 37.1107 30
      vertex 16.4917 36.3288 30
      vertex 71.2 35.7483 30
    endloop
  endfacet
  facet normal 0 0 1
    outer loop
      vertex 14.9515 35.4395 30
      vertex 71.2 35.7483 30
      vertex 16.4917 36.3288 30
    endloop
  endfacet
  facet normal 0 0 1
    outer loop
      vertex 71.2 35.7483 30
      vertex 14.9515 35.4395 30
      vertex 77.5 33 30
    endloop
  endfacet
  facet normal 0 0 1
    outer loop
      vertex 14.9515 35.4395 30
      vertex 9.5 33 30
      vertex 77.5 33 30
    endloop
  endfacet
  facet normal 0 0 1
    outer loop
      vertex 13.2 35.7483 30
      vertex 9.5 33 30
      vertex 14.9515 35.4395 30
    endloop
  endfacet
  facet normal 0 0 1
    outer loop
      vertex 12.0568 37.1107 30
      vertex 9.5 33 30
      vertex 13.2 35.7483 30
    endloop
  endfacet
  facet normal 0 0 1
    outer loop
      vertex 12.0568 38.8893 30
      vertex 9.5 33 30
      vertex 12.0568 37.1107 30
    endloop
  endfacet
  facet normal -1 0 0
    outer loop
      vertex 9.5 33 5
      vertex 9.5 101 30
      vertex 9.5 101 5
    endloop
  endfacet
  facet normal -1 -0 0
    outer loop
      vertex 9.5 101 30
      vertex 9.5 33 5
      vertex 9.5 33 30
    endloop
  endfacet
  facet normal 0 1 -0
    outer loop
      vertex 77.5 101 5
      vertex 9.5 101 30
      vertex 77.5 101 30
    endloop
  endfacet
  facet normal 0 1 0
    outer loop
      vertex 9.5 101 30
      vertex 77.5 101 5
      vertex 9.5 101 5
    endloop
  endfacet
  facet normal 0 -1 0
    outer loop
      vertex 9.5 33 5
      vertex 77.5 33 30
      vertex 9.5 33 30
    endloop
  endfacet
  facet normal 0 -1 -0
    outer loop
      vertex 77.5 33 30
      vertex 9.5 33 5
      vertex 77.5 33 5
    endloop
  endfacet
  facet normal 1 0 0
    outer loop
      vertex 86 134 56.3
      vertex 86 132.7 40
      vertex 86 134 0
    endloop
  endfacet
  facet normal 1 0 0
    outer loop
      vertex 86 134 56.3
      vertex 86 1.3 40
      vertex 86 132.7 40
    endloop
  endfacet
  facet normal 1 0 0
    outer loop
      vertex 86 0 0
      vertex 86 1.3 40
      vertex 86 0 56.3
    endloop
  endfacet
  facet normal 1 -0 0
    outer loop
      vertex 86 0 56.3
      vertex 86 1.3 40
      vertex 86 134 56.3
    endloop
  endfacet
  facet normal 1 -0 0
    outer loop
      vertex 86 132.7 1.3
      vertex 86 134 0
      vertex 86 132.7 40
    endloop
  endfacet
  facet normal 1 -0 0
    outer loop
      vertex 86 1.3 1.3
      vertex 86 134 0
      vertex 86 132.7 1.3
    endloop
  endfacet
  facet normal 1 0 0
    outer loop
      vertex 86 1.3 1.3
      vertex 86 0 0
      vertex 86 134 0
    endloop
  endfacet
  facet normal 1 0 0
    outer loop
      vertex 86 1.3 40
      vertex 86 0 0
      vertex 86 1.3 1.3
    endloop
  endfacet
  facet normal 0 0 -1
    outer loop
      vertex 16.4917 94.3288 0
      vertex 71.2 93.7483 0
      vertex 16.4917 39.6712 0
    endloop
  endfacet
  facet normal 0 0 -1
    outer loop
      vertex 71.2 93.7483 0
      vertex 16.4917 94.3288 0
      vertex 17.1 96 0
    endloop
  endfacet
  facet normal 0 0 -1
    outer loop
      vertex 14.9515 40.5605 0
      vertex 16.4917 94.3288 0
      vertex 16.4917 39.6712 0
    endloop
  endfacet
  facet normal 0 0 -1
    outer loop
      vertex 14.9515 40.5605 0
      vertex 14.9515 93.4395 0
      vertex 16.4917 94.3288 0
    endloop
  endfacet
  facet normal 0 0 -1
    outer loop
      vertex 13.2 40.2517 0
      vertex 14.9515 93.4395 0
      vertex 14.9515 40.5605 0
    endloop
  endfacet
  facet normal 0 0 -1
    outer loop
      vertex 13.2 40.2517 0
      vertex 13.2 93.7483 0
      vertex 14.9515 93.4395 0
    endloop
  endfacet
  facet normal 0 0 -1
    outer loop
      vertex 12.0568 38.8893 0
      vertex 13.2 93.7483 0
      vertex 13.2 40.2517 0
    endloop
  endfacet
  facet normal -0 0 -1
    outer loop
      vertex 13.2 93.7483 0
      vertex 12.0568 38.8893 0
      vertex 12.0568 95.1107 0
    endloop
  endfacet
  facet normal 0 0 -1
    outer loop
      vertex 74.4917 39.6712 0
      vertex 75.1 96 0
      vertex 75.1 38 0
    endloop
  endfacet
  facet normal 0 0 -1
    outer loop
      vertex 74.4917 39.6712 0
      vertex 74.4917 94.3288 0
      vertex 75.1 96 0
    endloop
  endfacet
  facet normal 0 0 -1
    outer loop
      vertex 72.9515 40.5605 0
      vertex 74.4917 94.3288 0
      vertex 74.4917 39.6712 0
    endloop
  endfacet
  facet normal 0 0 -1
    outer loop
      vertex 72.9515 40.5605 0
      vertex 72.9515 93.4395 0
      vertex 74.4917 94.3288 0
    endloop
  endfacet
  facet normal 0 0 -1
    outer loop
      vertex 71.2 40.2517 0
      vertex 72.9515 93.4395 0
      vertex 72.9515 40.5605 0
    endloop
  endfacet
  facet normal 0 0 -1
    outer loop
      vertex 71.2 40.2517 0
      vertex 71.2 93.7483 0
      vertex 72.9515 93.4395 0
    endloop
  endfacet
  facet normal 0 0 -1
    outer loop
      vertex 16.4917 39.6712 0
      vertex 70.0568 38.8893 0
      vertex 17.1 38 0
    endloop
  endfacet
  facet normal 0 0 -1
    outer loop
      vertex 70.0568 38.8893 0
      vertex 16.4917 39.6712 0
      vertex 71.2 40.2517 0
    endloop
  endfacet
  facet normal 0 0 -1
    outer loop
      vertex 86 0 0
      vertex 75.1 38 0
      vertex 86 134 0
    endloop
  endfacet
  facet normal 0 0 -1
    outer loop
      vertex 86 0 0
      vertex 74.4917 36.3288 0
      vertex 75.1 38 0
    endloop
  endfacet
  facet normal 0 0 -1
    outer loop
      vertex 86 0 0
      vertex 72.9515 35.4395 0
      vertex 74.4917 36.3288 0
    endloop
  endfacet
  facet normal 0 0 -1
    outer loop
      vertex 86 0 0
      vertex 71.2 35.7483 0
      vertex 72.9515 35.4395 0
    endloop
  endfacet
  facet normal 0 0 -1
    outer loop
      vertex 16.4917 36.3288 0
      vertex 71.2 35.7483 0
      vertex 86 0 0
    endloop
  endfacet
  facet normal 0 0 -1
    outer loop
      vertex 17.1 38 0
      vertex 70.0568 38.8893 0
      vertex 70.0568 37.1107 0
    endloop
  endfacet
  facet normal -0 0 -1
    outer loop
      vertex 71.2 40.2517 0
      vertex 16.4917 39.6712 0
      vertex 71.2 93.7483 0
    endloop
  endfacet
  facet normal 0 0 -1
    outer loop
      vertex 71.2 93.7483 0
      vertex 17.1 96 0
      vertex 70.0568 95.1107 0
    endloop
  endfacet
  facet normal 0 0 -1
    outer loop
      vertex 71.2 35.7483 0
      vertex 16.4917 36.3288 0
      vertex 70.0568 37.1107 0
    endloop
  endfacet
  facet normal -0 0 -1
    outer loop
      vertex 70.0568 37.1107 0
      vertex 16.4917 36.3288 0
      vertex 17.1 38 0
    endloop
  endfacet
  facet normal 0 0 -1
    outer loop
      vertex 0 0 0
      vertex 16.4917 36.3288 0
      vertex 86 0 0
    endloop
  endfacet
  facet normal 0 0 -1
    outer loop
      vertex 16.4917 36.3288 0
      vertex 0 0 0
      vertex 14.9515 35.4395 0
    endloop
  endfacet
  facet normal 0 0 -1
    outer loop
      vertex 0 0 0
      vertex 12.0568 38.8893 0
      vertex 12.0568 37.1107 0
    endloop
  endfacet
  facet normal -0 0 -1
    outer loop
      vertex 12.0568 38.8893 0
      vertex 0 0 0
      vertex 12.0568 95.1107 0
    endloop
  endfacet
  facet normal 0 0 -1
    outer loop
      vertex 0 134 0
      vertex 12.0568 95.1107 0
      vertex 0 0 0
    endloop
  endfacet
  facet normal -0 0 -1
    outer loop
      vertex 13.2 35.7483 0
      vertex 0 0 0
      vertex 12.0568 37.1107 0
    endloop
  endfacet
  facet normal -0 0 -1
    outer loop
      vertex 14.9515 35.4395 0
      vertex 0 0 0
      vertex 13.2 35.7483 0
    endloop
  endfacet
  facet normal 0 0 -1
    outer loop
      vertex 75.1 96 0
      vertex 86 134 0
      vertex 75.1 38 0
    endloop
  endfacet
  facet normal 0 0 -1
    outer loop
      vertex 74.4917 97.6712 0
      vertex 86 134 0
      vertex 75.1 96 0
    endloop
  endfacet
  facet normal 0 0 -1
    outer loop
      vertex 72.9515 98.5605 0
      vertex 86 134 0
      vertex 74.4917 97.6712 0
    endloop
  endfacet
  facet normal 0 0 -1
    outer loop
      vertex 71.2 98.2517 0
      vertex 86 134 0
      vertex 72.9515 98.5605 0
    endloop
  endfacet
  facet normal 0 0 -1
    outer loop
      vertex 16.4917 97.6712 0
      vertex 71.2 98.2517 0
      vertex 70.0568 96.8893 0
    endloop
  endfacet
  facet normal 0 0 -1
    outer loop
      vertex 70.0568 95.1107 0
      vertex 17.1 96 0
      vertex 70.0568 96.8893 0
    endloop
  endfacet
  facet normal 0 0 -1
    outer loop
      vertex 16.4917 97.6712 0
      vertex 70.0568 96.8893 0
      vertex 17.1 96 0
    endloop
  endfacet
  facet normal -0 0 -1
    outer loop
      vertex 71.2 98.2517 0
      vertex 16.4917 97.6712 0
      vertex 86 134 0
    endloop
  endfacet
  facet normal 0 0 -1
    outer loop
      vertex 0 134 0
      vertex 16.4917 97.6712 0
      vertex 14.9515 98.5605 0
    endloop
  endfacet
  facet normal 0 0 -1
    outer loop
      vertex 0 134 0
      vertex 14.9515 98.5605 0
      vertex 13.2 98.2517 0
    endloop
  endfacet
  facet normal 0 0 -1
    outer loop
      vertex 16.4917 97.6712 0
      vertex 0 134 0
      vertex 86 134 0
    endloop
  endfacet
  facet normal 0 0 -1
    outer loop
      vertex 12.0568 96.8893 0
      vertex 0 134 0
      vertex 13.2 98.2517 0
    endloop
  endfacet
  facet normal 0 0 -1
    outer loop
      vertex 12.0568 95.1107 0
      vertex 0 134 0
      vertex 12.0568 96.8893 0
    endloop
  endfacet
  facet normal -1 0 0
    outer loop
      vertex 0 0 0
      vertex 0 134 56.3
      vertex 0 134 0
    endloop
  endfacet
  facet normal -1 -0 0
    outer loop
      vertex 0 134 56.3
      vertex 0 0 0
      vertex 0 0 56.3
    endloop
  endfacet
  facet normal 0 1 -0
    outer loop
      vertex 86 134 0
      vertex 0 134 56.3
      vertex 86 134 56.3
    endloop
  endfacet
  facet normal 0 1 0
    outer loop
      vertex 0 134 56.3
      vertex 86 134 0
      vertex 0 134 0
    endloop
  endfacet
  facet normal 0 -1 0
    outer loop
      vertex 0 0 0
      vertex 86 0 56.3
      vertex 0 0 56.3
    endloop
  endfacet
  facet normal 0 -1 -0
    outer loop
      vertex 86 0 56.3
      vertex 0 0 0
      vertex 86 0 0
    endloop
  endfacet
  facet normal 1 0 0
    outer loop
      vertex 91 68.5637 28.753
      vertex 91 132.7 40
      vertex 91 68.9499 30.445
    endloop
  endfacet
  facet normal 1 0 0
    outer loop
      vertex 91 132.7 40
      vertex 91 67.8678 31.8019
      vertex 91 68.9499 30.445
    endloop
  endfacet
  facet normal 1 0 0
    outer loop
      vertex 91 132.7 40
      vertex 91 66.1322 31.8019
      vertex 91 67.8678 31.8019
    endloop
  endfacet
  facet normal 1 0 0
    outer loop
      vertex 91 66.1322 31.8019
      vertex 91 1.3 40
      vertex 91 65.0501 30.445
    endloop
  endfacet
  facet normal 1 -0 0
    outer loop
      vertex 91 1.3 40
      vertex 91 66.1322 31.8019
      vertex 91 132.7 40
    endloop
  endfacet
  facet normal 1 0 0
    outer loop
      vertex 91 132.7 40
      vertex 91 68.5637 28.753
      vertex 91 132.7 1.3
    endloop
  endfacet
  facet normal 1 -0 0
    outer loop
      vertex 91 67 28
      vertex 91 132.7 1.3
      vertex 91 68.5637 28.753
    endloop
  endfacet
  facet normal 1 0 0
    outer loop
      vertex 91 1.3 40
      vertex 91 65.4363 28.753
      vertex 91 65.0501 30.445
    endloop
  endfacet
  facet normal 1 0 0
    outer loop
      vertex 91 1.3 1.3
      vertex 91 65.4363 28.753
      vertex 91 1.3 40
    endloop
  endfacet
  facet normal 1 0 0
    outer loop
      vertex 91 65.4363 28.753
      vertex 91 1.3 1.3
      vertex 91 67 28
    endloop
  endfacet
  facet normal 1 0 0
    outer loop
      vertex 91 67 28
      vertex 91 1.3 1.3
      vertex 91 132.7 1.3
    endloop
  endfacet
  facet normal -0 0 1
    outer loop
      vertex 86 132.7 40
      vertex 91 1.3 40
      vertex 91 132.7 40
    endloop
  endfacet
  facet normal 0 0 1
    outer loop
      vertex 91 1.3 40
      vertex 86 132.7 40
      vertex 86 1.3 40
    endloop
  endfacet
  facet normal 0 0 -1
    outer loop
      vertex 86 1.3 1.3
      vertex 91 132.7 1.3
      vertex 91 1.3 1.3
    endloop
  endfacet
  facet normal -0 0 -1
    outer loop
      vertex 91 132.7 1.3
      vertex 86 1.3 1.3
      vertex 86 132.7 1.3
    endloop
  endfacet
  facet normal 0 1 -0
    outer loop
      vertex 91 132.7 1.3
      vertex 86 132.7 40
      vertex 91 132.7 40
    endloop
  endfacet
  facet normal 0 1 0
    outer loop
      vertex 86 132.7 40
      vertex 91 132.7 1.3
      vertex 86 132.7 1.3
    endloop
  endfacet
  facet normal 0 -1 0
    outer loop
      vertex 86 1.3 1.3
      vertex 91 1.3 40
      vertex 86 1.3 40
    endloop
  endfacet
  facet normal 0 -1 -0
    outer loop
      vertex 91 1.3 40
      vertex 86 1.3 1.3
      vertex 91 1.3 1.3
    endloop
  endfacet
  facet normal 0.766041 0.642791 0
    outer loop
      vertex 13.2 35.7483 30
      vertex 12.0568 37.1107 0
      vertex 12.0568 37.1107 30
    endloop
  endfacet
  facet normal 0.766041 0.642791 0
    outer loop
      vertex 12.0568 37.1107 0
      vertex 13.2 35.7483 30
      vertex 13.2 35.7483 0
    endloop
  endfacet
  facet normal -0.500027 -0.86601 0
    outer loop
      vertex 14.9515 40.5605 0
      vertex 16.4917 39.6712 30
      vertex 14.9515 40.5605 30
    endloop
  endfacet
  facet normal -0.500027 -0.86601 -0
    outer loop
      vertex 16.4917 39.6712 30
      vertex 14.9515 40.5605 0
      vertex 16.4917 39.6712 0
    endloop
  endfacet
  facet normal -0.939687 -0.342037 0
    outer loop
      vertex 17.1 38 0
      vertex 16.4917 39.6712 30
      vertex 16.4917 39.6712 0
    endloop
  endfacet
  facet normal -0.939687 -0.342037 0
    outer loop
      vertex 16.4917 39.6712 30
      vertex 17.1 38 0
      vertex 17.1 38 30
    endloop
  endfacet
  facet normal 0.173628 -0.984811 0
    outer loop
      vertex 13.2 40.2517 0
      vertex 14.9515 40.5605 30
      vertex 13.2 40.2517 30
    endloop
  endfacet
  facet normal 0.173628 -0.984811 0
    outer loop
      vertex 14.9515 40.5605 30
      vertex 13.2 40.2517 0
      vertex 14.9515 40.5605 0
    endloop
  endfacet
  facet normal 0.173628 0.984811 -0
    outer loop
      vertex 14.9515 35.4395 0
      vertex 13.2 35.7483 30
      vertex 14.9515 35.4395 30
    endloop
  endfacet
  facet normal 0.173628 0.984811 0
    outer loop
      vertex 13.2 35.7483 30
      vertex 14.9515 35.4395 0
      vertex 13.2 35.7483 0
    endloop
  endfacet
  facet normal -0.500027 0.86601 0
    outer loop
      vertex 16.4917 36.3288 0
      vertex 14.9515 35.4395 30
      vertex 16.4917 36.3288 30
    endloop
  endfacet
  facet normal -0.500027 0.86601 0
    outer loop
      vertex 14.9515 35.4395 30
      vertex 16.4917 36.3288 0
      vertex 14.9515 35.4395 0
    endloop
  endfacet
  facet normal 0.766041 -0.642791 0
    outer loop
      vertex 12.0568 38.8893 30
      vertex 13.2 40.2517 0
      vertex 13.2 40.2517 30
    endloop
  endfacet
  facet normal 0.766041 -0.642791 0
    outer loop
      vertex 13.2 40.2517 0
      vertex 12.0568 38.8893 30
      vertex 12.0568 38.8893 0
    endloop
  endfacet
  facet normal -0.939687 0.342037 0
    outer loop
      vertex 16.4917 36.3288 0
      vertex 17.1 38 30
      vertex 17.1 38 0
    endloop
  endfacet
  facet normal -0.939687 0.342037 0
    outer loop
      vertex 17.1 38 30
      vertex 16.4917 36.3288 0
      vertex 16.4917 36.3288 30
    endloop
  endfacet
  facet normal 1 -0 0
    outer loop
      vertex 12.0568 37.1107 30
      vertex 12.0568 38.8893 0
      vertex 12.0568 38.8893 30
    endloop
  endfacet
  facet normal 1 0 0
    outer loop
      vertex 12.0568 38.8893 0
      vertex 12.0568 37.1107 30
      vertex 12.0568 37.1107 0
    endloop
  endfacet
  facet normal 0.766041 0.642791 0
    outer loop
      vertex 71.2 35.7483 30
      vertex 70.0568 37.1107 0
      vertex 70.0568 37.1107 30
    endloop
  endfacet
  facet normal 0.766041 0.642791 0
    outer loop
      vertex 70.0568 37.1107 0
      vertex 71.2 35.7483 30
      vertex 71.2 35.7483 0
    endloop
  endfacet
  facet normal -0.500027 -0.86601 0
    outer loop
      vertex 72.9515 40.5605 0
      vertex 74.4917 39.6712 30
      vertex 72.9515 40.5605 30
    endloop
  endfacet
  facet normal -0.500027 -0.86601 -0
    outer loop
      vertex 74.4917 39.6712 30
      vertex 72.9515 40.5605 0
      vertex 74.4917 39.6712 0
    endloop
  endfacet
  facet normal -0.939687 -0.342037 0
    outer loop
      vertex 75.1 38 0
      vertex 74.4917 39.6712 30
      vertex 74.4917 39.6712 0
    endloop
  endfacet
  facet normal -0.939687 -0.342037 0
    outer loop
      vertex 74.4917 39.6712 30
      vertex 75.1 38 0
      vertex 75.1 38 30
    endloop
  endfacet
  facet normal 0.173628 -0.984811 0
    outer loop
      vertex 71.2 40.2517 0
      vertex 72.9515 40.5605 30
      vertex 71.2 40.2517 30
    endloop
  endfacet
  facet normal 0.173628 -0.984811 0
    outer loop
      vertex 72.9515 40.5605 30
      vertex 71.2 40.2517 0
      vertex 72.9515 40.5605 0
    endloop
  endfacet
  facet normal 0.173628 0.984811 -0
    outer loop
      vertex 72.9515 35.4395 0
      vertex 71.2 35.7483 30
      vertex 72.9515 35.4395 30
    endloop
  endfacet
  facet normal 0.173628 0.984811 0
    outer loop
      vertex 71.2 35.7483 30
      vertex 72.9515 35.4395 0
      vertex 71.2 35.7483 0
    endloop
  endfacet
  facet normal -0.500027 0.86601 0
    outer loop
      vertex 74.4917 36.3288 0
      vertex 72.9515 35.4395 30
      vertex 74.4917 36.3288 30
    endloop
  endfacet
  facet normal -0.500027 0.86601 0
    outer loop
      vertex 72.9515 35.4395 30
      vertex 74.4917 36.3288 0
      vertex 72.9515 35.4395 0
    endloop
  endfacet
  facet normal 0.766041 -0.642791 0
    outer loop
      vertex 70.0568 38.8893 30
      vertex 71.2 40.2517 0
      vertex 71.2 40.2517 30
    endloop
  endfacet
  facet normal 0.766041 -0.642791 0
    outer loop
      vertex 71.2 40.2517 0
      vertex 70.0568 38.8893 30
      vertex 70.0568 38.8893 0
    endloop
  endfacet
  facet normal -0.939687 0.342037 0
    outer loop
      vertex 74.4917 36.3288 0
      vertex 75.1 38 30
      vertex 75.1 38 0
    endloop
  endfacet
  facet normal -0.939687 0.342037 0
    outer loop
      vertex 75.1 38 30
      vertex 74.4917 36.3288 0
      vertex 74.4917 36.3288 30
    endloop
  endfacet
  facet normal 1 -0 0
    outer loop
      vertex 70.0568 37.1107 30
      vertex 70.0568 38.8893 0
      vertex 70.0568 38.8893 30
    endloop
  endfacet
  facet normal 1 0 0
    outer loop
      vertex 70.0568 38.8893 0
      vertex 70.0568 37.1107 30
      vertex 70.0568 37.1107 0
    endloop
  endfacet
  facet normal 0.766041 0.642791 0
    outer loop
      vertex 13.2 93.7483 30
      vertex 12.0568 95.1107 0
      vertex 12.0568 95.1107 30
    endloop
  endfacet
  facet normal 0.766041 0.642791 0
    outer loop
      vertex 12.0568 95.1107 0
      vertex 13.2 93.7483 30
      vertex 13.2 93.7483 0
    endloop
  endfacet
  facet normal -0.500027 -0.86601 0
    outer loop
      vertex 14.9515 98.5605 0
      vertex 16.4917 97.6712 30
      vertex 14.9515 98.5605 30
    endloop
  endfacet
  facet normal -0.500027 -0.86601 -0
    outer loop
      vertex 16.4917 97.6712 30
      vertex 14.9515 98.5605 0
      vertex 16.4917 97.6712 0
    endloop
  endfacet
  facet normal -0.939687 -0.342037 0
    outer loop
      vertex 17.1 96 0
      vertex 16.4917 97.6712 30
      vertex 16.4917 97.6712 0
    endloop
  endfacet
  facet normal -0.939687 -0.342037 0
    outer loop
      vertex 16.4917 97.6712 30
      vertex 17.1 96 0
      vertex 17.1 96 30
    endloop
  endfacet
  facet normal 0.173628 -0.984811 0
    outer loop
      vertex 13.2 98.2517 0
      vertex 14.9515 98.5605 30
      vertex 13.2 98.2517 30
    endloop
  endfacet
  facet normal 0.173628 -0.984811 0
    outer loop
      vertex 14.9515 98.5605 30
      vertex 13.2 98.2517 0
      vertex 14.9515 98.5605 0
    endloop
  endfacet
  facet normal 0.173628 0.984811 -0
    outer loop
      vertex 14.9515 93.4395 0
      vertex 13.2 93.7483 30
      vertex 14.9515 93.4395 30
    endloop
  endfacet
  facet normal 0.173628 0.984811 0
    outer loop
      vertex 13.2 93.7483 30
      vertex 14.9515 93.4395 0
      vertex 13.2 93.7483 0
    endloop
  endfacet
  facet normal -0.500027 0.86601 0
    outer loop
      vertex 16.4917 94.3288 0
      vertex 14.9515 93.4395 30
      vertex 16.4917 94.3288 30
    endloop
  endfacet
  facet normal -0.500027 0.86601 0
    outer loop
      vertex 14.9515 93.4395 30
      vertex 16.4917 94.3288 0
      vertex 14.9515 93.4395 0
    endloop
  endfacet
  facet normal 0.766041 -0.642791 0
    outer loop
      vertex 12.0568 96.8893 30
      vertex 13.2 98.2517 0
      vertex 13.2 98.2517 30
    endloop
  endfacet
  facet normal 0.766041 -0.642791 0
    outer loop
      vertex 13.2 98.2517 0
      vertex 12.0568 96.8893 30
      vertex 12.0568 96.8893 0
    endloop
  endfacet
  facet normal -0.939687 0.342037 0
    outer loop
      vertex 16.4917 94.3288 0
      vertex 17.1 96 30
      vertex 17.1 96 0
    endloop
  endfacet
  facet normal -0.939687 0.342037 0
    outer loop
      vertex 17.1 96 30
      vertex 16.4917 94.3288 0
      vertex 16.4917 94.3288 30
    endloop
  endfacet
  facet normal 1 -0 0
    outer loop
      vertex 12.0568 95.1107 30
      vertex 12.0568 96.8893 0
      vertex 12.0568 96.8893 30
    endloop
  endfacet
  facet normal 1 0 0
    outer loop
      vertex 12.0568 96.8893 0
      vertex 12.0568 95.1107 30
      vertex 12.0568 95.1107 0
    endloop
  endfacet
  facet normal 0.766041 0.642791 0
    outer loop
      vertex 71.2 93.7483 30
      vertex 70.0568 95.1107 0
      vertex 70.0568 95.1107 30
    endloop
  endfacet
  facet normal 0.766041 0.642791 0
    outer loop
      vertex 70.0568 95.1107 0
      vertex 71.2 93.7483 30
      vertex 71.2 93.7483 0
    endloop
  endfacet
  facet normal -0.500027 -0.86601 0
    outer loop
      vertex 72.9515 98.5605 0
      vertex 74.4917 97.6712 30
      vertex 72.9515 98.5605 30
    endloop
  endfacet
  facet normal -0.500027 -0.86601 -0
    outer loop
      vertex 74.4917 97.6712 30
      vertex 72.9515 98.5605 0
      vertex 74.4917 97.6712 0
    endloop
  endfacet
  facet normal -0.939687 -0.342037 0
    outer loop
      vertex 75.1 96 0
      vertex 74.4917 97.6712 30
      vertex 74.4917 97.6712 0
    endloop
  endfacet
  facet normal -0.939687 -0.342037 0
    outer loop
      vertex 74.4917 97.6712 30
      vertex 75.1 96 0
      vertex 75.1 96 30
    endloop
  endfacet
  facet normal 0.173628 -0.984811 0
    outer loop
      vertex 71.2 98.2517 0
      vertex 72.9515 98.5605 30
      vertex 71.2 98.2517 30
    endloop
  endfacet
  facet normal 0.173628 -0.984811 0
    outer loop
      vertex 72.9515 98.5605 30
      vertex 71.2 98.2517 0
      vertex 72.9515 98.5605 0
    endloop
  endfacet
  facet normal 0.173628 0.984811 -0
    outer loop
      vertex 72.9515 93.4395 0
      vertex 71.2 93.7483 30
      vertex 72.9515 93.4395 30
    endloop
  endfacet
  facet normal 0.173628 0.984811 0
    outer loop
      vertex 71.2 93.7483 30
      vertex 72.9515 93.4395 0
      vertex 71.2 93.7483 0
    endloop
  endfacet
  facet normal -0.500027 0.86601 0
    outer loop
      vertex 74.4917 94.3288 0
      vertex 72.9515 93.4395 30
      vertex 74.4917 94.3288 30
    endloop
  endfacet
  facet normal -0.500027 0.86601 0
    outer loop
      vertex 72.9515 93.4395 30
      vertex 74.4917 94.3288 0
      vertex 72.9515 93.4395 0
    endloop
  endfacet
  facet normal 0.766041 -0.642791 0
    outer loop
      vertex 70.0568 96.8893 30
      vertex 71.2 98.2517 0
      vertex 71.2 98.2517 30
    endloop
  endfacet
  facet normal 0.766041 -0.642791 0
    outer loop
      vertex 71.2 98.2517 0
      vertex 70.0568 96.8893 30
      vertex 70.0568 96.8893 0
    endloop
  endfacet
  facet normal -0.939687 0.342037 0
    outer loop
      vertex 74.4917 94.3288 0
      vertex 75.1 96 30
      vertex 75.1 96 0
    endloop
  endfacet
  facet normal -0.939687 0.342037 0
    outer loop
      vertex 75.1 96 30
      vertex 74.4917 94.3288 0
      vertex 74.4917 94.3288 30
    endloop
  endfacet
  facet normal 1 -0 0
    outer loop
      vertex 70.0568 95.1107 30
      vertex 70.0568 96.8893 0
      vertex 70.0568 96.8893 30
    endloop
  endfacet
  facet normal 1 0 0
    outer loop
      vertex 70.0568 96.8893 0
      vertex 70.0568 95.1107 30
      vertex 70.0568 95.1107 0
    endloop
  endfacet
  facet normal -0.951062 -0.309 0
    outer loop
      vertex 59.1394 69.9305 20
      vertex 58.0735 73.2112 30
      vertex 58.0735 73.2112 20
    endloop
  endfacet
  facet normal -0.951062 -0.309 0
    outer loop
      vertex 58.0735 73.2112 30
      vertex 59.1394 69.9305 20
      vertex 59.1394 69.9305 30
    endloop
  endfacet
  facet normal -0.994521 -0.10454 0
    outer loop
      vertex 59.5 66.5 20
      vertex 59.1394 69.9305 30
      vertex 59.1394 69.9305 20
    endloop
  endfacet
  facet normal -0.994521 -0.10454 0
    outer loop
      vertex 59.1394 69.9305 30
      vertex 59.5 66.5 20
      vertex 59.5 66.5 30
    endloop
  endfacet
  facet normal -0.866028 -0.499996 0
    outer loop
      vertex 58.0735 73.2112 20
      vertex 56.3488 76.1985 30
      vertex 56.3488 76.1985 20
    endloop
  endfacet
  facet normal -0.866028 -0.499996 0
    outer loop
      vertex 56.3488 76.1985 30
      vertex 58.0735 73.2112 20
      vertex 58.0735 73.2112 30
    endloop
  endfacet
  facet normal 0.587773 0.809026 -0
    outer loop
      vertex 34.75 52.2106 20
      vertex 31.9593 54.2381 30
      vertex 34.75 52.2106 30
    endloop
  endfacet
  facet normal 0.587773 0.809026 0
    outer loop
      vertex 31.9593 54.2381 30
      vertex 34.75 52.2106 20
      vertex 31.9593 54.2381 20
    endloop
  endfacet
  facet normal 0 1 -0
    outer loop
      vertex 44.7247 50.0904 20
      vertex 41.2753 50.0904 30
      vertex 44.7247 50.0904 30
    endloop
  endfacet
  facet normal 0 1 0
    outer loop
      vertex 41.2753 50.0904 30
      vertex 44.7247 50.0904 20
      vertex 41.2753 50.0904 20
    endloop
  endfacet
  facet normal -0.994521 0.10454 0
    outer loop
      vertex 59.1394 63.0695 20
      vertex 59.5 66.5 30
      vertex 59.5 66.5 20
    endloop
  endfacet
  facet normal -0.994521 0.10454 0
    outer loop
      vertex 59.5 66.5 30
      vertex 59.1394 63.0695 20
      vertex 59.1394 63.0695 30
    endloop
  endfacet
  facet normal 0.994521 -0.10454 0
    outer loop
      vertex 26.5 66.5 30
      vertex 26.8606 69.9305 20
      vertex 26.8606 69.9305 30
    endloop
  endfacet
  facet normal 0.994521 -0.10454 0
    outer loop
      vertex 26.8606 69.9305 20
      vertex 26.5 66.5 30
      vertex 26.5 66.5 20
    endloop
  endfacet
  facet normal -0.866028 0.499996 0
    outer loop
      vertex 56.3488 56.8015 20
      vertex 58.0735 59.7888 30
      vertex 58.0735 59.7888 20
    endloop
  endfacet
  facet normal -0.866028 0.499996 0
    outer loop
      vertex 58.0735 59.7888 30
      vertex 56.3488 56.8015 20
      vertex 56.3488 56.8015 30
    endloop
  endfacet
  facet normal 0.743144 0.669131 0
    outer loop
      vertex 31.9593 54.2381 30
      vertex 29.6512 56.8015 20
      vertex 29.6512 56.8015 30
    endloop
  endfacet
  facet normal 0.743144 0.669131 0
    outer loop
      vertex 29.6512 56.8015 20
      vertex 31.9593 54.2381 30
      vertex 31.9593 54.2381 20
    endloop
  endfacet
  facet normal -0.587773 -0.809026 0
    outer loop
      vertex 51.25 80.7894 20
      vertex 54.0407 78.7619 30
      vertex 51.25 80.7894 30
    endloop
  endfacet
  facet normal -0.587773 -0.809026 -0
    outer loop
      vertex 54.0407 78.7619 30
      vertex 51.25 80.7894 20
      vertex 54.0407 78.7619 20
    endloop
  endfacet
  facet normal 0.951062 -0.309 0
    outer loop
      vertex 26.8606 69.9305 30
      vertex 27.9265 73.2112 20
      vertex 27.9265 73.2112 30
    endloop
  endfacet
  facet normal 0.951062 -0.309 0
    outer loop
      vertex 27.9265 73.2112 20
      vertex 26.8606 69.9305 30
      vertex 26.8606 69.9305 20
    endloop
  endfacet
  facet normal -0.951062 0.309 0
    outer loop
      vertex 58.0735 59.7888 20
      vertex 59.1394 63.0695 30
      vertex 59.1394 63.0695 20
    endloop
  endfacet
  facet normal -0.951062 0.309 0
    outer loop
      vertex 59.1394 63.0695 30
      vertex 58.0735 59.7888 20
      vertex 58.0735 59.7888 30
    endloop
  endfacet
  facet normal -0.207915 -0.978147 0
    outer loop
      vertex 44.7247 82.9096 20
      vertex 48.0988 82.1924 30
      vertex 44.7247 82.9096 30
    endloop
  endfacet
  facet normal -0.207915 -0.978147 -0
    outer loop
      vertex 48.0988 82.1924 30
      vertex 44.7247 82.9096 20
      vertex 48.0988 82.1924 20
    endloop
  endfacet
  facet normal 0.207915 0.978147 -0
    outer loop
      vertex 41.2753 50.0904 20
      vertex 37.9012 50.8076 30
      vertex 41.2753 50.0904 30
    endloop
  endfacet
  facet normal 0.207915 0.978147 0
    outer loop
      vertex 37.9012 50.8076 30
      vertex 41.2753 50.0904 20
      vertex 37.9012 50.8076 20
    endloop
  endfacet
  facet normal -0.406736 -0.913546 0
    outer loop
      vertex 48.0988 82.1924 20
      vertex 51.25 80.7894 30
      vertex 48.0988 82.1924 30
    endloop
  endfacet
  facet normal -0.406736 -0.913546 -0
    outer loop
      vertex 51.25 80.7894 30
      vertex 48.0988 82.1924 20
      vertex 51.25 80.7894 20
    endloop
  endfacet
  facet normal -0.743144 0.669131 0
    outer loop
      vertex 54.0407 54.2381 20
      vertex 56.3488 56.8015 30
      vertex 56.3488 56.8015 20
    endloop
  endfacet
  facet normal -0.743144 0.669131 0
    outer loop
      vertex 56.3488 56.8015 30
      vertex 54.0407 54.2381 20
      vertex 54.0407 54.2381 30
    endloop
  endfacet
  facet normal 0.406736 0.913546 -0
    outer loop
      vertex 37.9012 50.8076 20
      vertex 34.75 52.2106 30
      vertex 37.9012 50.8076 30
    endloop
  endfacet
  facet normal 0.406736 0.913546 0
    outer loop
      vertex 34.75 52.2106 30
      vertex 37.9012 50.8076 20
      vertex 34.75 52.2106 20
    endloop
  endfacet
  facet normal 0.587773 -0.809026 0
    outer loop
      vertex 31.9593 78.7619 20
      vertex 34.75 80.7894 30
      vertex 31.9593 78.7619 30
    endloop
  endfacet
  facet normal 0.587773 -0.809026 0
    outer loop
      vertex 34.75 80.7894 30
      vertex 31.9593 78.7619 20
      vertex 34.75 80.7894 20
    endloop
  endfacet
  facet normal 0.994521 0.10454 0
    outer loop
      vertex 26.8606 63.0695 30
      vertex 26.5 66.5 20
      vertex 26.5 66.5 30
    endloop
  endfacet
  facet normal 0.994521 0.10454 0
    outer loop
      vertex 26.5 66.5 20
      vertex 26.8606 63.0695 30
      vertex 26.8606 63.0695 20
    endloop
  endfacet
  facet normal -0.587773 0.809026 0
    outer loop
      vertex 54.0407 54.2381 20
      vertex 51.25 52.2106 30
      vertex 54.0407 54.2381 30
    endloop
  endfacet
  facet normal -0.587773 0.809026 0
    outer loop
      vertex 51.25 52.2106 30
      vertex 54.0407 54.2381 20
      vertex 51.25 52.2106 20
    endloop
  endfacet
  facet normal 0.743144 -0.669131 0
    outer loop
      vertex 29.6512 76.1985 30
      vertex 31.9593 78.7619 20
      vertex 31.9593 78.7619 30
    endloop
  endfacet
  facet normal 0.743144 -0.669131 0
    outer loop
      vertex 31.9593 78.7619 20
      vertex 29.6512 76.1985 30
      vertex 29.6512 76.1985 20
    endloop
  endfacet
  facet normal -0.743144 -0.669131 0
    outer loop
      vertex 56.3488 76.1985 20
      vertex 54.0407 78.7619 30
      vertex 54.0407 78.7619 20
    endloop
  endfacet
  facet normal -0.743144 -0.669131 0
    outer loop
      vertex 54.0407 78.7619 30
      vertex 56.3488 76.1985 20
      vertex 56.3488 76.1985 30
    endloop
  endfacet
  facet normal 0.951062 0.309 0
    outer loop
      vertex 27.9265 59.7888 30
      vertex 26.8606 63.0695 20
      vertex 26.8606 63.0695 30
    endloop
  endfacet
  facet normal 0.951062 0.309 0
    outer loop
      vertex 26.8606 63.0695 20
      vertex 27.9265 59.7888 30
      vertex 27.9265 59.7888 20
    endloop
  endfacet
  facet normal 0.406736 -0.913546 0
    outer loop
      vertex 34.75 80.7894 20
      vertex 37.9012 82.1924 30
      vertex 34.75 80.7894 30
    endloop
  endfacet
  facet normal 0.406736 -0.913546 0
    outer loop
      vertex 37.9012 82.1924 30
      vertex 34.75 80.7894 20
      vertex 37.9012 82.1924 20
    endloop
  endfacet
  facet normal 0.866028 -0.499996 0
    outer loop
      vertex 27.9265 73.2112 30
      vertex 29.6512 76.1985 20
      vertex 29.6512 76.1985 30
    endloop
  endfacet
  facet normal 0.866028 -0.499996 0
    outer loop
      vertex 29.6512 76.1985 20
      vertex 27.9265 73.2112 30
      vertex 27.9265 73.2112 20
    endloop
  endfacet
  facet normal 0 -1 0
    outer loop
      vertex 41.2753 82.9096 20
      vertex 44.7247 82.9096 30
      vertex 41.2753 82.9096 30
    endloop
  endfacet
  facet normal 0 -1 -0
    outer loop
      vertex 44.7247 82.9096 30
      vertex 41.2753 82.9096 20
      vertex 44.7247 82.9096 20
    endloop
  endfacet
  facet normal 0 0 1
    outer loop
      vertex 59.1394 69.9305 20
      vertex 59.1394 63.0695 20
      vertex 59.5 66.5 20
    endloop
  endfacet
  facet normal 0 0 1
    outer loop
      vertex 58.0735 73.2112 20
      vertex 59.1394 63.0695 20
      vertex 59.1394 69.9305 20
    endloop
  endfacet
  facet normal 0 0 1
    outer loop
      vertex 58.0735 73.2112 20
      vertex 58.0735 59.7888 20
      vertex 59.1394 63.0695 20
    endloop
  endfacet
  facet normal 0 0 1
    outer loop
      vertex 56.3488 76.1985 20
      vertex 58.0735 59.7888 20
      vertex 58.0735 73.2112 20
    endloop
  endfacet
  facet normal 0 0 1
    outer loop
      vertex 56.3488 76.1985 20
      vertex 56.3488 56.8015 20
      vertex 58.0735 59.7888 20
    endloop
  endfacet
  facet normal 0 0 1
    outer loop
      vertex 54.0407 78.7619 20
      vertex 56.3488 56.8015 20
      vertex 56.3488 76.1985 20
    endloop
  endfacet
  facet normal 0 0 1
    outer loop
      vertex 54.0407 78.7619 20
      vertex 54.0407 54.2381 20
      vertex 56.3488 56.8015 20
    endloop
  endfacet
  facet normal 0 0 1
    outer loop
      vertex 51.25 80.7894 20
      vertex 54.0407 54.2381 20
      vertex 54.0407 78.7619 20
    endloop
  endfacet
  facet normal 0 0 1
    outer loop
      vertex 51.25 80.7894 20
      vertex 51.25 52.2106 20
      vertex 54.0407 54.2381 20
    endloop
  endfacet
  facet normal 0 0 1
    outer loop
      vertex 48.0988 82.1924 20
      vertex 51.25 52.2106 20
      vertex 51.25 80.7894 20
    endloop
  endfacet
  facet normal 0 0 1
    outer loop
      vertex 48.0988 82.1924 20
      vertex 48.0988 50.8076 20
      vertex 51.25 52.2106 20
    endloop
  endfacet
  facet normal 0 0 1
    outer loop
      vertex 44.7247 82.9096 20
      vertex 48.0988 50.8076 20
      vertex 48.0988 82.1924 20
    endloop
  endfacet
  facet normal 0 0 1
    outer loop
      vertex 44.7247 82.9096 20
      vertex 44.7247 50.0904 20
      vertex 48.0988 50.8076 20
    endloop
  endfacet
  facet normal -0 0 1
    outer loop
      vertex 41.2753 82.9096 20
      vertex 44.7247 50.0904 20
      vertex 44.7247 82.9096 20
    endloop
  endfacet
  facet normal 0 0 1
    outer loop
      vertex 41.2753 82.9096 20
      vertex 41.2753 50.0904 20
      vertex 44.7247 50.0904 20
    endloop
  endfacet
  facet normal -0 0 1
    outer loop
      vertex 37.9012 82.1924 20
      vertex 41.2753 50.0904 20
      vertex 41.2753 82.9096 20
    endloop
  endfacet
  facet normal 0 0 1
    outer loop
      vertex 37.9012 82.1924 20
      vertex 37.9012 50.8076 20
      vertex 41.2753 50.0904 20
    endloop
  endfacet
  facet normal -0 0 1
    outer loop
      vertex 34.75 80.7894 20
      vertex 37.9012 50.8076 20
      vertex 37.9012 82.1924 20
    endloop
  endfacet
  facet normal 0 0 1
    outer loop
      vertex 34.75 80.7894 20
      vertex 34.75 52.2106 20
      vertex 37.9012 50.8076 20
    endloop
  endfacet
  facet normal -0 0 1
    outer loop
      vertex 31.9593 78.7619 20
      vertex 34.75 52.2106 20
      vertex 34.75 80.7894 20
    endloop
  endfacet
  facet normal 0 0 1
    outer loop
      vertex 31.9593 78.7619 20
      vertex 31.9593 54.2381 20
      vertex 34.75 52.2106 20
    endloop
  endfacet
  facet normal -0 0 1
    outer loop
      vertex 29.6512 76.1985 20
      vertex 31.9593 54.2381 20
      vertex 31.9593 78.7619 20
    endloop
  endfacet
  facet normal 0 0 1
    outer loop
      vertex 29.6512 76.1985 20
      vertex 29.6512 56.8015 20
      vertex 31.9593 54.2381 20
    endloop
  endfacet
  facet normal -0 0 1
    outer loop
      vertex 27.9265 73.2112 20
      vertex 29.6512 56.8015 20
      vertex 29.6512 76.1985 20
    endloop
  endfacet
  facet normal 0 0 1
    outer loop
      vertex 27.9265 73.2112 20
      vertex 27.9265 59.7888 20
      vertex 29.6512 56.8015 20
    endloop
  endfacet
  facet normal -0 0 1
    outer loop
      vertex 26.8606 69.9305 20
      vertex 27.9265 59.7888 20
      vertex 27.9265 73.2112 20
    endloop
  endfacet
  facet normal 0 0 1
    outer loop
      vertex 26.8606 69.9305 20
      vertex 26.8606 63.0695 20
      vertex 27.9265 59.7888 20
    endloop
  endfacet
  facet normal 0 -0 1
    outer loop
      vertex 26.8606 63.0695 20
      vertex 26.8606 69.9305 20
      vertex 26.5 66.5 20
    endloop
  endfacet
  facet normal 0.866028 0.499996 0
    outer loop
      vertex 29.6512 56.8015 30
      vertex 27.9265 59.7888 20
      vertex 27.9265 59.7888 30
    endloop
  endfacet
  facet normal 0.866028 0.499996 0
    outer loop
      vertex 27.9265 59.7888 20
      vertex 29.6512 56.8015 30
      vertex 29.6512 56.8015 20
    endloop
  endfacet
  facet normal -0.207915 0.978147 0
    outer loop
      vertex 48.0988 50.8076 20
      vertex 44.7247 50.0904 30
      vertex 48.0988 50.8076 30
    endloop
  endfacet
  facet normal -0.207915 0.978147 0
    outer loop
      vertex 44.7247 50.0904 30
      vertex 48.0988 50.8076 20
      vertex 44.7247 50.0904 20
    endloop
  endfacet
  facet normal -0.406736 0.913546 0
    outer loop
      vertex 51.25 52.2106 20
      vertex 48.0988 50.8076 30
      vertex 51.25 52.2106 30
    endloop
  endfacet
  facet normal -0.406736 0.913546 0
    outer loop
      vertex 48.0988 50.8076 30
      vertex 51.25 52.2106 20
      vertex 48.0988 50.8076 20
    endloop
  endfacet
  facet normal 0.207915 -0.978147 0
    outer loop
      vertex 37.9012 82.1924 20
      vertex 41.2753 82.9096 30
      vertex 37.9012 82.1924 30
    endloop
  endfacet
  facet normal 0.207915 -0.978147 0
    outer loop
      vertex 41.2753 82.9096 30
      vertex 37.9012 82.1924 20
      vertex 41.2753 82.9096 20
    endloop
  endfacet
  facet normal -0 0.433866 0.900977
    outer loop
      vertex 82 67 28
      vertex 91 65.4363 28.753
      vertex 91 67 28
    endloop
  endfacet
  facet normal 0 0.433866 0.900977
    outer loop
      vertex 91 65.4363 28.753
      vertex 82 67 28
      vertex 82 65.4363 28.753
    endloop
  endfacet
  facet normal 0 -0.781829 -0.623493
    outer loop
      vertex 82 68.9499 30.445
      vertex 91 67.8678 31.8019
      vertex 82 67.8678 31.8019
    endloop
  endfacet
  facet normal 0 -0.781829 -0.623493
    outer loop
      vertex 91 67.8678 31.8019
      vertex 82 68.9499 30.445
      vertex 91 68.9499 30.445
    endloop
  endfacet
  facet normal 0 -0.433866 0.900977
    outer loop
      vertex 82 68.5637 28.753
      vertex 91 67 28
      vertex 91 68.5637 28.753
    endloop
  endfacet
  facet normal 0 -0.433866 0.900977
    outer loop
      vertex 91 67 28
      vertex 82 68.5637 28.753
      vertex 82 67 28
    endloop
  endfacet
  facet normal 0 -0.974926 0.222528
    outer loop
      vertex 82 68.5637 28.753
      vertex 91 68.9499 30.445
      vertex 82 68.9499 30.445
    endloop
  endfacet
  facet normal 0 -0.974926 0.222528
    outer loop
      vertex 91 68.9499 30.445
      vertex 82 68.5637 28.753
      vertex 91 68.5637 28.753
    endloop
  endfacet
  facet normal 0 0.781829 -0.623493
    outer loop
      vertex 91 65.0501 30.445
      vertex 82 66.1322 31.8019
      vertex 91 66.1322 31.8019
    endloop
  endfacet
  facet normal 0 0.781829 -0.623493
    outer loop
      vertex 82 66.1322 31.8019
      vertex 91 65.0501 30.445
      vertex 82 65.0501 30.445
    endloop
  endfacet
  facet normal 0 0.974926 0.222528
    outer loop
      vertex 91 65.4363 28.753
      vertex 82 65.0501 30.445
      vertex 91 65.0501 30.445
    endloop
  endfacet
  facet normal 0 0.974926 0.222528
    outer loop
      vertex 82 65.0501 30.445
      vertex 91 65.4363 28.753
      vertex 82 65.4363 28.753
    endloop
  endfacet
  facet normal 0 0 -1
    outer loop
      vertex 82 66.1322 31.8019
      vertex 91 67.8678 31.8019
      vertex 91 66.1322 31.8019
    endloop
  endfacet
  facet normal -0 0 -1
    outer loop
      vertex 91 67.8678 31.8019
      vertex 82 66.1322 31.8019
      vertex 82 67.8678 31.8019
    endloop
  endfacet
endsolid OpenSCAD_Model
