solid OpenSCAD_Model
  facet normal -0 0 1
    outer loop
      vertex 0 134 1
      vertex 430 0 1
      vertex 430 134 1
    endloop
  endfacet
  facet normal 0 0 1
    outer loop
      vertex 430 0 1
      vertex 0 134 1
      vertex 0 0 1
    endloop
  endfacet
  facet normal 0 0 -1
    outer loop
      vertex 0 0 0
      vertex 430 134 0
      vertex 430 0 0
    endloop
  endfacet
  facet normal -0 0 -1
    outer loop
      vertex 430 134 0
      vertex 0 0 0
      vertex 0 134 0
    endloop
  endfacet
  facet normal 0 -1 0
    outer loop
      vertex 0 0 0
      vertex 430 0 1
      vertex 0 0 1
    endloop
  endfacet
  facet normal 0 -1 -0
    outer loop
      vertex 430 0 1
      vertex 0 0 0
      vertex 430 0 0
    endloop
  endfacet
  facet normal 1 -0 0
    outer loop
      vertex 430 0 1
      vertex 430 134 0
      vertex 430 134 1
    endloop
  endfacet
  facet normal 1 0 0
    outer loop
      vertex 430 134 0
      vertex 430 0 1
      vertex 430 0 0
    endloop
  endfacet
  facet normal 0 1 -0
    outer loop
      vertex 430 134 0
      vertex 0 134 1
      vertex 430 134 1
    endloop
  endfacet
  facet normal 0 1 0
    outer loop
      vertex 0 134 1
      vertex 430 134 0
      vertex 0 134 0
    endloop
  endfacet
  facet normal -1 0 0
    outer loop
      vertex 0 0 0
      vertex 0 134 1
      vertex 0 134 0
    endloop
  endfacet
  facet normal -1 -0 0
    outer loop
      vertex 0 134 1
      vertex 0 0 0
      vertex 0 0 1
    endloop
  endfacet
endsolid OpenSCAD_Model
